%TF.GenerationSoftware,KiCad,Pcbnew,(5.1.10)-1*%
%TF.CreationDate,2022-01-14T08:13:24+01:00*%
%TF.ProjectId,SimpleGRBLEndSwich,53696d70-6c65-4475-9242-4c456e645377,rev?*%
%TF.SameCoordinates,PX4a62f80PY57bcf00*%
%TF.FileFunction,Copper,L2,Bot*%
%TF.FilePolarity,Positive*%
%FSLAX46Y46*%
G04 Gerber Fmt 4.6, Leading zero omitted, Abs format (unit mm)*
G04 Created by KiCad (PCBNEW (5.1.10)-1) date 2022-01-14 08:13:24*
%MOMM*%
%LPD*%
G01*
G04 APERTURE LIST*
%TA.AperFunction,ComponentPad*%
%ADD10O,2.000000X2.000000*%
%TD*%
%TA.AperFunction,ComponentPad*%
%ADD11R,2.000000X2.000000*%
%TD*%
%TA.AperFunction,ComponentPad*%
%ADD12C,2.000000*%
%TD*%
%TA.AperFunction,Conductor*%
%ADD13C,1.000000*%
%TD*%
%TA.AperFunction,Conductor*%
%ADD14C,0.254000*%
%TD*%
%TA.AperFunction,Conductor*%
%ADD15C,0.100000*%
%TD*%
G04 APERTURE END LIST*
D10*
%TO.P,U2,4*%
%TO.N,Net-(J6-Pad4)*%
X29120000Y22000000D03*
%TO.P,U2,2*%
%TO.N,Net-(J2-Pad1)*%
X21500000Y19460000D03*
%TO.P,U2,3*%
%TO.N,GND*%
X29120000Y19460000D03*
D11*
%TO.P,U2,1*%
%TO.N,Net-(R2-Pad2)*%
X21500000Y22000000D03*
%TD*%
D10*
%TO.P,U3,4*%
%TO.N,Net-(J6-Pad5)*%
X29120000Y8500000D03*
%TO.P,U3,2*%
%TO.N,Net-(J5-Pad1)*%
X21500000Y5960000D03*
%TO.P,U3,3*%
%TO.N,GND*%
X29120000Y5960000D03*
D11*
%TO.P,U3,1*%
%TO.N,Net-(R3-Pad2)*%
X21500000Y8500000D03*
%TD*%
D10*
%TO.P,U1,4*%
%TO.N,Net-(J6-Pad3)*%
X29620000Y35000000D03*
%TO.P,U1,2*%
%TO.N,Net-(J1-Pad1)*%
X22000000Y32460000D03*
%TO.P,U1,3*%
%TO.N,GND*%
X29620000Y32460000D03*
D11*
%TO.P,U1,1*%
%TO.N,Net-(R1-Pad2)*%
X22000000Y35000000D03*
%TD*%
D10*
%TO.P,R6,2*%
%TO.N,Net-(J6-Pad5)*%
X33500000Y5380000D03*
D12*
%TO.P,R6,1*%
%TO.N,+5V*%
X33500000Y13000000D03*
%TD*%
D10*
%TO.P,R5,2*%
%TO.N,Net-(J6-Pad4)*%
X33500000Y26120000D03*
D12*
%TO.P,R5,1*%
%TO.N,+5V*%
X33500000Y18500000D03*
%TD*%
D10*
%TO.P,R4,2*%
%TO.N,Net-(J6-Pad3)*%
X33500000Y31380000D03*
D12*
%TO.P,R4,1*%
%TO.N,+5V*%
X33500000Y39000000D03*
%TD*%
D10*
%TO.P,R3,2*%
%TO.N,Net-(R3-Pad2)*%
X21380000Y12000000D03*
D12*
%TO.P,R3,1*%
%TO.N,+5V*%
X29000000Y12000000D03*
%TD*%
D10*
%TO.P,R2,2*%
%TO.N,Net-(R2-Pad2)*%
X21380000Y25500000D03*
D12*
%TO.P,R2,1*%
%TO.N,+5V*%
X29000000Y25500000D03*
%TD*%
D10*
%TO.P,R1,2*%
%TO.N,Net-(R1-Pad2)*%
X21880000Y38500000D03*
D12*
%TO.P,R1,1*%
%TO.N,+5V*%
X29500000Y38500000D03*
%TD*%
D10*
%TO.P,J6,5*%
%TO.N,Net-(J6-Pad5)*%
X39000000Y17420000D03*
%TO.P,J6,4*%
%TO.N,Net-(J6-Pad4)*%
X39000000Y19960000D03*
%TO.P,J6,3*%
%TO.N,Net-(J6-Pad3)*%
X39000000Y22500000D03*
%TO.P,J6,2*%
%TO.N,+5V*%
X39000000Y25040000D03*
D11*
%TO.P,J6,1*%
%TO.N,GND*%
X39000000Y27580000D03*
%TD*%
D12*
%TO.P,J5,2*%
%TO.N,GND*%
X14000000Y3690000D03*
D11*
%TO.P,J5,1*%
%TO.N,Net-(J5-Pad1)*%
X14000000Y7500000D03*
%TD*%
D12*
%TO.P,J4,2*%
%TO.N,GND*%
X14000000Y12190000D03*
D11*
%TO.P,J4,1*%
%TO.N,Net-(J2-Pad1)*%
X14000000Y16000000D03*
%TD*%
D12*
%TO.P,J2,2*%
%TO.N,GND*%
X14000000Y29190000D03*
D11*
%TO.P,J2,1*%
%TO.N,Net-(J1-Pad1)*%
X14000000Y33000000D03*
%TD*%
D12*
%TO.P,J3,2*%
%TO.N,GND*%
X14000000Y20690000D03*
D11*
%TO.P,J3,1*%
%TO.N,Net-(J2-Pad1)*%
X14000000Y24500000D03*
%TD*%
D12*
%TO.P,J1,2*%
%TO.N,GND*%
X14000000Y37690000D03*
D11*
%TO.P,J1,1*%
%TO.N,Net-(J1-Pad1)*%
X14000000Y41500000D03*
%TD*%
D13*
%TO.N,Net-(J1-Pad1)*%
X14000000Y41500000D02*
X16000000Y41500000D01*
X16000000Y41500000D02*
X18000000Y39500000D01*
X18000000Y39500000D02*
X18000000Y34500000D01*
X20040000Y32460000D02*
X22000000Y32460000D01*
X18000000Y34500000D02*
X20040000Y32460000D01*
X16500000Y33000000D02*
X18000000Y34500000D01*
X14000000Y33000000D02*
X16500000Y33000000D01*
%TO.N,Net-(J2-Pad1)*%
X14000000Y24500000D02*
X15200000Y24500000D01*
X15200000Y24500000D02*
X18100000Y21600000D01*
X16500000Y16000000D02*
X14000000Y16000000D01*
X18100000Y17600000D02*
X16500000Y16000000D01*
X21460000Y19500000D02*
X21500000Y19460000D01*
X18100000Y19500000D02*
X21460000Y19500000D01*
X18100000Y21600000D02*
X18100000Y19500000D01*
X18100000Y19500000D02*
X18100000Y17600000D01*
%TO.N,Net-(J5-Pad1)*%
X14000000Y7500000D02*
X17000000Y7500000D01*
X18540000Y5960000D02*
X21500000Y5960000D01*
X17000000Y7500000D02*
X18540000Y5960000D01*
%TO.N,+5V*%
X30000000Y39000000D02*
X29500000Y38500000D01*
X33500000Y39000000D02*
X30000000Y39000000D01*
X32500000Y12000000D02*
X33500000Y13000000D01*
X29000000Y12000000D02*
X32500000Y12000000D01*
X33500000Y13000000D02*
X33500000Y18500000D01*
X29500000Y38500000D02*
X28000000Y38500000D01*
X28000000Y38500000D02*
X25500000Y36000000D01*
X25500000Y15500000D02*
X29000000Y12000000D01*
X29000000Y25500000D02*
X25750000Y25500000D01*
X25750000Y25500000D02*
X25500000Y25250000D01*
X25500000Y25250000D02*
X25500000Y15500000D01*
X25500000Y36000000D02*
X25500000Y25250000D01*
X38000000Y32250000D02*
X39750000Y32250000D01*
X33500000Y36750000D02*
X38000000Y32250000D01*
X33500000Y39000000D02*
X33500000Y36750000D01*
X39000000Y25040000D02*
X41340000Y25040000D01*
X41340000Y25040000D02*
X41800000Y25500000D01*
X41800000Y30200000D02*
X39750000Y32250000D01*
X41800000Y25500000D02*
X41800000Y30200000D01*
%TO.N,Net-(J6-Pad3)*%
X33240000Y31380000D02*
X33500000Y31380000D01*
X39000000Y22500000D02*
X38000000Y22500000D01*
X38000000Y22500000D02*
X35500000Y25000000D01*
X35500000Y29380000D02*
X33500000Y31380000D01*
X35500000Y25000000D02*
X35500000Y29380000D01*
X33500000Y31380000D02*
X33500000Y33000000D01*
X31500000Y35000000D02*
X29620000Y35000000D01*
X33500000Y33000000D02*
X31500000Y35000000D01*
%TO.N,Net-(R1-Pad2)*%
X21880000Y35120000D02*
X22000000Y35000000D01*
X21880000Y38500000D02*
X21880000Y35120000D01*
%TO.N,Net-(R2-Pad2)*%
X21380000Y22120000D02*
X21500000Y22000000D01*
X21380000Y25500000D02*
X21380000Y22120000D01*
%TO.N,Net-(R3-Pad2)*%
X21380000Y8620000D02*
X21500000Y8500000D01*
X21380000Y12000000D02*
X21380000Y8620000D01*
%TO.N,Net-(J6-Pad5)*%
X39000000Y10880000D02*
X33500000Y5380000D01*
X39000000Y17420000D02*
X39000000Y10880000D01*
X30380000Y8500000D02*
X33500000Y5380000D01*
X29120000Y8500000D02*
X30380000Y8500000D01*
%TO.N,Net-(J6-Pad4)*%
X39000000Y19960000D02*
X37040000Y19960000D01*
X33500000Y23500000D02*
X33500000Y26120000D01*
X34250000Y22000000D02*
X34625000Y22375000D01*
X29120000Y22000000D02*
X34250000Y22000000D01*
X34625000Y22375000D02*
X33500000Y23500000D01*
X37040000Y19960000D02*
X34625000Y22375000D01*
%TD*%
D14*
%TO.N,GND*%
X42340000Y31265132D02*
X40591996Y33013135D01*
X40556449Y33056449D01*
X40383623Y33198284D01*
X40186447Y33303676D01*
X39972499Y33368577D01*
X39805752Y33385000D01*
X39805751Y33385000D01*
X39750000Y33390491D01*
X39694249Y33385000D01*
X38470132Y33385000D01*
X34635000Y37220131D01*
X34635000Y37822761D01*
X34769987Y37957748D01*
X34948918Y38225537D01*
X35072168Y38523088D01*
X35135000Y38838967D01*
X35135000Y39161033D01*
X35072168Y39476912D01*
X34948918Y39774463D01*
X34769987Y40042252D01*
X34542252Y40269987D01*
X34274463Y40448918D01*
X33976912Y40572168D01*
X33661033Y40635000D01*
X33338967Y40635000D01*
X33023088Y40572168D01*
X32725537Y40448918D01*
X32457748Y40269987D01*
X32322761Y40135000D01*
X30055752Y40135000D01*
X30000000Y40140491D01*
X29944248Y40135000D01*
X29777501Y40118577D01*
X29764074Y40114504D01*
X29661033Y40135000D01*
X29338967Y40135000D01*
X29023088Y40072168D01*
X28725537Y39948918D01*
X28457748Y39769987D01*
X28322761Y39635000D01*
X28055751Y39635000D01*
X28000000Y39640491D01*
X27944248Y39635000D01*
X27777501Y39618577D01*
X27563553Y39553676D01*
X27366377Y39448284D01*
X27193551Y39306449D01*
X27158011Y39263143D01*
X24736865Y36841996D01*
X24693551Y36806449D01*
X24551716Y36633623D01*
X24454202Y36451185D01*
X24446324Y36436446D01*
X24381423Y36222498D01*
X24359509Y36000000D01*
X24365000Y35944248D01*
X24365001Y25305761D01*
X24359509Y25250000D01*
X24365000Y25194248D01*
X24365001Y15555761D01*
X24359509Y15500000D01*
X24381423Y15277502D01*
X24446324Y15063554D01*
X24495384Y14971770D01*
X24551717Y14866377D01*
X24693552Y14693551D01*
X24736860Y14658009D01*
X27365000Y12029868D01*
X27365000Y11838967D01*
X27427832Y11523088D01*
X27551082Y11225537D01*
X27730013Y10957748D01*
X27957748Y10730013D01*
X28225537Y10551082D01*
X28523088Y10427832D01*
X28838967Y10365000D01*
X29161033Y10365000D01*
X29476912Y10427832D01*
X29774463Y10551082D01*
X30042252Y10730013D01*
X30177239Y10865000D01*
X32444249Y10865000D01*
X32500000Y10859509D01*
X32555751Y10865000D01*
X32555752Y10865000D01*
X32722499Y10881423D01*
X32936447Y10946324D01*
X33133623Y11051716D01*
X33306449Y11193551D01*
X33341995Y11236864D01*
X33470131Y11365000D01*
X33661033Y11365000D01*
X33976912Y11427832D01*
X34274463Y11551082D01*
X34542252Y11730013D01*
X34769987Y11957748D01*
X34948918Y12225537D01*
X35072168Y12523088D01*
X35135000Y12838967D01*
X35135000Y13161033D01*
X35072168Y13476912D01*
X34948918Y13774463D01*
X34769987Y14042252D01*
X34635000Y14177239D01*
X34635000Y17322761D01*
X34769987Y17457748D01*
X34948918Y17725537D01*
X35072168Y18023088D01*
X35135000Y18338967D01*
X35135000Y18661033D01*
X35072168Y18976912D01*
X34948918Y19274463D01*
X34769987Y19542252D01*
X34542252Y19769987D01*
X34274463Y19948918D01*
X33976912Y20072168D01*
X33661033Y20135000D01*
X33338967Y20135000D01*
X33023088Y20072168D01*
X32725537Y19948918D01*
X32457748Y19769987D01*
X32230013Y19542252D01*
X32051082Y19274463D01*
X31927832Y18976912D01*
X31865000Y18661033D01*
X31865000Y18338967D01*
X31927832Y18023088D01*
X32051082Y17725537D01*
X32230013Y17457748D01*
X32365001Y17322760D01*
X32365000Y14177239D01*
X32230013Y14042252D01*
X32051082Y13774463D01*
X31927832Y13476912D01*
X31865000Y13161033D01*
X31865000Y13135000D01*
X30177239Y13135000D01*
X30042252Y13269987D01*
X29774463Y13448918D01*
X29476912Y13572168D01*
X29161033Y13635000D01*
X28970132Y13635000D01*
X26635000Y15970131D01*
X26635000Y19079566D01*
X27529876Y19079566D01*
X27586498Y18892893D01*
X27726601Y18604618D01*
X27920252Y18349215D01*
X28160008Y18136499D01*
X28436656Y17974644D01*
X28739565Y17869871D01*
X28993000Y17988685D01*
X28993000Y19333000D01*
X29247000Y19333000D01*
X29247000Y17988685D01*
X29500435Y17869871D01*
X29803344Y17974644D01*
X30079992Y18136499D01*
X30319748Y18349215D01*
X30513399Y18604618D01*
X30653502Y18892893D01*
X30710124Y19079566D01*
X30590777Y19333000D01*
X29247000Y19333000D01*
X28993000Y19333000D01*
X27649223Y19333000D01*
X27529876Y19079566D01*
X26635000Y19079566D01*
X26635000Y24365000D01*
X27822761Y24365000D01*
X27957748Y24230013D01*
X28225537Y24051082D01*
X28523088Y23927832D01*
X28838967Y23865000D01*
X29161033Y23865000D01*
X29476912Y23927832D01*
X29774463Y24051082D01*
X30042252Y24230013D01*
X30269987Y24457748D01*
X30448918Y24725537D01*
X30572168Y25023088D01*
X30635000Y25338967D01*
X30635000Y25661033D01*
X30572168Y25976912D01*
X30448918Y26274463D01*
X30269987Y26542252D01*
X30042252Y26769987D01*
X29774463Y26948918D01*
X29476912Y27072168D01*
X29161033Y27135000D01*
X28838967Y27135000D01*
X28523088Y27072168D01*
X28225537Y26948918D01*
X27957748Y26769987D01*
X27822761Y26635000D01*
X26635000Y26635000D01*
X26635000Y32079566D01*
X28029876Y32079566D01*
X28086498Y31892893D01*
X28226601Y31604618D01*
X28420252Y31349215D01*
X28660008Y31136499D01*
X28936656Y30974644D01*
X29239565Y30869871D01*
X29493000Y30988685D01*
X29493000Y32333000D01*
X29747000Y32333000D01*
X29747000Y30988685D01*
X30000435Y30869871D01*
X30303344Y30974644D01*
X30579992Y31136499D01*
X30819748Y31349215D01*
X31013399Y31604618D01*
X31153502Y31892893D01*
X31210124Y32079566D01*
X31090777Y32333000D01*
X29747000Y32333000D01*
X29493000Y32333000D01*
X28149223Y32333000D01*
X28029876Y32079566D01*
X26635000Y32079566D01*
X26635000Y35529869D01*
X28396446Y37291315D01*
X28457748Y37230013D01*
X28725537Y37051082D01*
X29023088Y36927832D01*
X29338967Y36865000D01*
X29661033Y36865000D01*
X29976912Y36927832D01*
X30274463Y37051082D01*
X30542252Y37230013D01*
X30769987Y37457748D01*
X30948918Y37725537D01*
X31006686Y37865000D01*
X32322761Y37865000D01*
X32365001Y37822760D01*
X32365001Y36805761D01*
X32359509Y36750000D01*
X32381423Y36527502D01*
X32446324Y36313554D01*
X32469611Y36269987D01*
X32551717Y36116377D01*
X32693552Y35943551D01*
X32736860Y35908009D01*
X37158009Y31486859D01*
X37193551Y31443551D01*
X37366377Y31301716D01*
X37521191Y31218967D01*
X37563553Y31196324D01*
X37777501Y31131423D01*
X37999999Y31109509D01*
X38055751Y31115000D01*
X39279869Y31115000D01*
X40665001Y29729867D01*
X40665000Y26175000D01*
X40489088Y26175000D01*
X40530537Y26225506D01*
X40589502Y26335820D01*
X40625812Y26455518D01*
X40638072Y26580000D01*
X40635000Y27294250D01*
X40476250Y27453000D01*
X39127000Y27453000D01*
X39127000Y27433000D01*
X38873000Y27433000D01*
X38873000Y27453000D01*
X37523750Y27453000D01*
X37365000Y27294250D01*
X37361928Y26580000D01*
X37374188Y26455518D01*
X37410498Y26335820D01*
X37469463Y26225506D01*
X37548815Y26128815D01*
X37645506Y26049463D01*
X37691630Y26024809D01*
X37551082Y25814463D01*
X37427832Y25516912D01*
X37365000Y25201033D01*
X37365000Y24878967D01*
X37399473Y24705658D01*
X36635000Y25470131D01*
X36635000Y28580000D01*
X37361928Y28580000D01*
X37365000Y27865750D01*
X37523750Y27707000D01*
X38873000Y27707000D01*
X38873000Y29056250D01*
X39127000Y29056250D01*
X39127000Y27707000D01*
X40476250Y27707000D01*
X40635000Y27865750D01*
X40638072Y28580000D01*
X40625812Y28704482D01*
X40589502Y28824180D01*
X40530537Y28934494D01*
X40451185Y29031185D01*
X40354494Y29110537D01*
X40244180Y29169502D01*
X40124482Y29205812D01*
X40000000Y29218072D01*
X39285750Y29215000D01*
X39127000Y29056250D01*
X38873000Y29056250D01*
X38714250Y29215000D01*
X38000000Y29218072D01*
X37875518Y29205812D01*
X37755820Y29169502D01*
X37645506Y29110537D01*
X37548815Y29031185D01*
X37469463Y28934494D01*
X37410498Y28824180D01*
X37374188Y28704482D01*
X37361928Y28580000D01*
X36635000Y28580000D01*
X36635000Y29324249D01*
X36640491Y29380001D01*
X36618577Y29602500D01*
X36575349Y29745000D01*
X36553676Y29816447D01*
X36448284Y30013623D01*
X36306449Y30186449D01*
X36263141Y30221991D01*
X35135000Y31350131D01*
X35135000Y31541033D01*
X35072168Y31856912D01*
X34948918Y32154463D01*
X34769987Y32422252D01*
X34635000Y32557239D01*
X34635000Y32944249D01*
X34640491Y33000001D01*
X34618577Y33222500D01*
X34569282Y33385000D01*
X34553676Y33436447D01*
X34448284Y33633623D01*
X34306449Y33806449D01*
X34263141Y33841991D01*
X32341996Y35763135D01*
X32306449Y35806449D01*
X32133623Y35948284D01*
X31936447Y36053676D01*
X31722499Y36118577D01*
X31555752Y36135000D01*
X31555751Y36135000D01*
X31500000Y36140491D01*
X31444249Y36135000D01*
X30797239Y36135000D01*
X30662252Y36269987D01*
X30394463Y36448918D01*
X30096912Y36572168D01*
X29781033Y36635000D01*
X29458967Y36635000D01*
X29143088Y36572168D01*
X28845537Y36448918D01*
X28577748Y36269987D01*
X28350013Y36042252D01*
X28171082Y35774463D01*
X28047832Y35476912D01*
X27985000Y35161033D01*
X27985000Y34838967D01*
X28047832Y34523088D01*
X28171082Y34225537D01*
X28350013Y33957748D01*
X28577748Y33730013D01*
X28590282Y33721638D01*
X28420252Y33570785D01*
X28226601Y33315382D01*
X28086498Y33027107D01*
X28029876Y32840434D01*
X28149223Y32587000D01*
X29493000Y32587000D01*
X29493000Y32607000D01*
X29747000Y32607000D01*
X29747000Y32587000D01*
X31090777Y32587000D01*
X31210124Y32840434D01*
X31153502Y33027107D01*
X31013399Y33315382D01*
X30819748Y33570785D01*
X30649718Y33721638D01*
X30662252Y33730013D01*
X30797239Y33865000D01*
X31029869Y33865000D01*
X32351315Y32543554D01*
X32230013Y32422252D01*
X32051082Y32154463D01*
X31927832Y31856912D01*
X31865000Y31541033D01*
X31865000Y31218967D01*
X31927832Y30903088D01*
X32051082Y30605537D01*
X32230013Y30337748D01*
X32457748Y30110013D01*
X32725537Y29931082D01*
X33023088Y29807832D01*
X33338967Y29745000D01*
X33529869Y29745000D01*
X34365001Y28909867D01*
X34365001Y27508423D01*
X34274463Y27568918D01*
X33976912Y27692168D01*
X33661033Y27755000D01*
X33338967Y27755000D01*
X33023088Y27692168D01*
X32725537Y27568918D01*
X32457748Y27389987D01*
X32230013Y27162252D01*
X32051082Y26894463D01*
X31927832Y26596912D01*
X31865000Y26281033D01*
X31865000Y25958967D01*
X31927832Y25643088D01*
X32051082Y25345537D01*
X32230013Y25077748D01*
X32365001Y24942760D01*
X32365000Y23555752D01*
X32359509Y23500000D01*
X32365000Y23444249D01*
X32381423Y23277502D01*
X32424651Y23135000D01*
X30297239Y23135000D01*
X30162252Y23269987D01*
X29894463Y23448918D01*
X29596912Y23572168D01*
X29281033Y23635000D01*
X28958967Y23635000D01*
X28643088Y23572168D01*
X28345537Y23448918D01*
X28077748Y23269987D01*
X27850013Y23042252D01*
X27671082Y22774463D01*
X27547832Y22476912D01*
X27485000Y22161033D01*
X27485000Y21838967D01*
X27547832Y21523088D01*
X27671082Y21225537D01*
X27850013Y20957748D01*
X28077748Y20730013D01*
X28090282Y20721638D01*
X27920252Y20570785D01*
X27726601Y20315382D01*
X27586498Y20027107D01*
X27529876Y19840434D01*
X27649223Y19587000D01*
X28993000Y19587000D01*
X28993000Y19607000D01*
X29247000Y19607000D01*
X29247000Y19587000D01*
X30590777Y19587000D01*
X30710124Y19840434D01*
X30653502Y20027107D01*
X30513399Y20315382D01*
X30319748Y20570785D01*
X30149718Y20721638D01*
X30162252Y20730013D01*
X30297239Y20865000D01*
X34194249Y20865000D01*
X34250000Y20859509D01*
X34305751Y20865000D01*
X34305752Y20865000D01*
X34472499Y20881423D01*
X34503916Y20890953D01*
X36198009Y19196859D01*
X36233551Y19153551D01*
X36391954Y19023553D01*
X36406377Y19011716D01*
X36603553Y18906324D01*
X36817501Y18841423D01*
X37040000Y18819509D01*
X37095752Y18825000D01*
X37822761Y18825000D01*
X37957748Y18690013D01*
X37957767Y18690000D01*
X37957748Y18689987D01*
X37730013Y18462252D01*
X37551082Y18194463D01*
X37427832Y17896912D01*
X37365000Y17581033D01*
X37365000Y17258967D01*
X37427832Y16943088D01*
X37551082Y16645537D01*
X37730013Y16377748D01*
X37865000Y16242761D01*
X37865001Y11350134D01*
X33529869Y7015000D01*
X33470132Y7015000D01*
X31221996Y9263135D01*
X31186449Y9306449D01*
X31013623Y9448284D01*
X30816447Y9553676D01*
X30602499Y9618577D01*
X30435752Y9635000D01*
X30435751Y9635000D01*
X30380000Y9640491D01*
X30324249Y9635000D01*
X30297239Y9635000D01*
X30162252Y9769987D01*
X29894463Y9948918D01*
X29596912Y10072168D01*
X29281033Y10135000D01*
X28958967Y10135000D01*
X28643088Y10072168D01*
X28345537Y9948918D01*
X28077748Y9769987D01*
X27850013Y9542252D01*
X27671082Y9274463D01*
X27547832Y8976912D01*
X27485000Y8661033D01*
X27485000Y8338967D01*
X27547832Y8023088D01*
X27671082Y7725537D01*
X27850013Y7457748D01*
X28077748Y7230013D01*
X28090282Y7221638D01*
X27920252Y7070785D01*
X27726601Y6815382D01*
X27586498Y6527107D01*
X27529876Y6340434D01*
X27649223Y6087000D01*
X28993000Y6087000D01*
X28993000Y6107000D01*
X29247000Y6107000D01*
X29247000Y6087000D01*
X30590777Y6087000D01*
X30710124Y6340434D01*
X30653502Y6527107D01*
X30564375Y6710493D01*
X31865000Y5409868D01*
X31865000Y5218967D01*
X31927832Y4903088D01*
X32051082Y4605537D01*
X32230013Y4337748D01*
X32457748Y4110013D01*
X32725537Y3931082D01*
X33023088Y3807832D01*
X33338967Y3745000D01*
X33661033Y3745000D01*
X33976912Y3807832D01*
X34274463Y3931082D01*
X34542252Y4110013D01*
X34652367Y4220128D01*
X36765000Y4220128D01*
X36765000Y3779872D01*
X36850890Y3348075D01*
X37019369Y2941331D01*
X37263962Y2575271D01*
X37575271Y2263962D01*
X37941331Y2019369D01*
X38348075Y1850890D01*
X38779872Y1765000D01*
X39220128Y1765000D01*
X39651925Y1850890D01*
X40058669Y2019369D01*
X40424729Y2263962D01*
X40736038Y2575271D01*
X40980631Y2941331D01*
X41149110Y3348075D01*
X41235000Y3779872D01*
X41235000Y4220128D01*
X41149110Y4651925D01*
X40980631Y5058669D01*
X40736038Y5424729D01*
X40424729Y5736038D01*
X40058669Y5980631D01*
X39651925Y6149110D01*
X39220128Y6235000D01*
X38779872Y6235000D01*
X38348075Y6149110D01*
X37941331Y5980631D01*
X37575271Y5736038D01*
X37263962Y5424729D01*
X37019369Y5058669D01*
X36850890Y4651925D01*
X36765000Y4220128D01*
X34652367Y4220128D01*
X34769987Y4337748D01*
X34948918Y4605537D01*
X35072168Y4903088D01*
X35135000Y5218967D01*
X35135000Y5409869D01*
X39763146Y10038013D01*
X39806449Y10073551D01*
X39948284Y10246377D01*
X40053676Y10443553D01*
X40118577Y10657501D01*
X40135000Y10824248D01*
X40140491Y10880000D01*
X40135000Y10935752D01*
X40135000Y16242761D01*
X40269987Y16377748D01*
X40448918Y16645537D01*
X40572168Y16943088D01*
X40635000Y17258967D01*
X40635000Y17581033D01*
X40572168Y17896912D01*
X40448918Y18194463D01*
X40269987Y18462252D01*
X40042252Y18689987D01*
X40042233Y18690000D01*
X40042252Y18690013D01*
X40269987Y18917748D01*
X40448918Y19185537D01*
X40572168Y19483088D01*
X40635000Y19798967D01*
X40635000Y20121033D01*
X40572168Y20436912D01*
X40448918Y20734463D01*
X40269987Y21002252D01*
X40042252Y21229987D01*
X40042233Y21230000D01*
X40042252Y21230013D01*
X40269987Y21457748D01*
X40448918Y21725537D01*
X40572168Y22023088D01*
X40635000Y22338967D01*
X40635000Y22661033D01*
X40572168Y22976912D01*
X40448918Y23274463D01*
X40269987Y23542252D01*
X40042252Y23769987D01*
X40042233Y23770000D01*
X40042252Y23770013D01*
X40177239Y23905000D01*
X41284249Y23905000D01*
X41340000Y23899509D01*
X41395751Y23905000D01*
X41395752Y23905000D01*
X41562499Y23921423D01*
X41776447Y23986324D01*
X41973623Y24091716D01*
X42146449Y24233551D01*
X42181996Y24276865D01*
X42340000Y24434869D01*
X42340001Y660000D01*
X660000Y660000D01*
X660000Y4220128D01*
X1765000Y4220128D01*
X1765000Y3779872D01*
X1850890Y3348075D01*
X2019369Y2941331D01*
X2263962Y2575271D01*
X2575271Y2263962D01*
X2941331Y2019369D01*
X3348075Y1850890D01*
X3779872Y1765000D01*
X4220128Y1765000D01*
X4651925Y1850890D01*
X5058669Y2019369D01*
X5424729Y2263962D01*
X5715354Y2554587D01*
X13044192Y2554587D01*
X13139956Y2290186D01*
X13429571Y2149296D01*
X13741108Y2067616D01*
X14062595Y2048282D01*
X14381675Y2092039D01*
X14686088Y2197205D01*
X14860044Y2290186D01*
X14955808Y2554587D01*
X14000000Y3510395D01*
X13044192Y2554587D01*
X5715354Y2554587D01*
X5736038Y2575271D01*
X5980631Y2941331D01*
X6149110Y3348075D01*
X6204672Y3627405D01*
X12358282Y3627405D01*
X12402039Y3308325D01*
X12507205Y3003912D01*
X12600186Y2829956D01*
X12864587Y2734192D01*
X13820395Y3690000D01*
X14179605Y3690000D01*
X15135413Y2734192D01*
X15399814Y2829956D01*
X15540704Y3119571D01*
X15622384Y3431108D01*
X15641718Y3752595D01*
X15597961Y4071675D01*
X15492795Y4376088D01*
X15399814Y4550044D01*
X15135413Y4645808D01*
X14179605Y3690000D01*
X13820395Y3690000D01*
X12864587Y4645808D01*
X12600186Y4550044D01*
X12459296Y4260429D01*
X12377616Y3948892D01*
X12358282Y3627405D01*
X6204672Y3627405D01*
X6235000Y3779872D01*
X6235000Y4220128D01*
X6149110Y4651925D01*
X6077249Y4825413D01*
X13044192Y4825413D01*
X14000000Y3869605D01*
X14955808Y4825413D01*
X14860044Y5089814D01*
X14570429Y5230704D01*
X14258892Y5312384D01*
X13937405Y5331718D01*
X13618325Y5287961D01*
X13313912Y5182795D01*
X13139956Y5089814D01*
X13044192Y4825413D01*
X6077249Y4825413D01*
X5980631Y5058669D01*
X5736038Y5424729D01*
X5424729Y5736038D01*
X5058669Y5980631D01*
X4651925Y6149110D01*
X4220128Y6235000D01*
X3779872Y6235000D01*
X3348075Y6149110D01*
X2941331Y5980631D01*
X2575271Y5736038D01*
X2263962Y5424729D01*
X2019369Y5058669D01*
X1850890Y4651925D01*
X1765000Y4220128D01*
X660000Y4220128D01*
X660000Y8500000D01*
X12361928Y8500000D01*
X12361928Y6500000D01*
X12374188Y6375518D01*
X12410498Y6255820D01*
X12469463Y6145506D01*
X12548815Y6048815D01*
X12645506Y5969463D01*
X12755820Y5910498D01*
X12875518Y5874188D01*
X13000000Y5861928D01*
X15000000Y5861928D01*
X15124482Y5874188D01*
X15244180Y5910498D01*
X15354494Y5969463D01*
X15451185Y6048815D01*
X15530537Y6145506D01*
X15589502Y6255820D01*
X15622621Y6365000D01*
X16529869Y6365000D01*
X17698009Y5196860D01*
X17733551Y5153551D01*
X17811215Y5089814D01*
X17906377Y5011716D01*
X18103553Y4906324D01*
X18317501Y4841423D01*
X18540000Y4819509D01*
X18595752Y4825000D01*
X20322761Y4825000D01*
X20457748Y4690013D01*
X20725537Y4511082D01*
X21023088Y4387832D01*
X21338967Y4325000D01*
X21661033Y4325000D01*
X21976912Y4387832D01*
X22274463Y4511082D01*
X22542252Y4690013D01*
X22769987Y4917748D01*
X22948918Y5185537D01*
X23072168Y5483088D01*
X23091358Y5579566D01*
X27529876Y5579566D01*
X27586498Y5392893D01*
X27726601Y5104618D01*
X27920252Y4849215D01*
X28160008Y4636499D01*
X28436656Y4474644D01*
X28739565Y4369871D01*
X28993000Y4488685D01*
X28993000Y5833000D01*
X29247000Y5833000D01*
X29247000Y4488685D01*
X29500435Y4369871D01*
X29803344Y4474644D01*
X30079992Y4636499D01*
X30319748Y4849215D01*
X30513399Y5104618D01*
X30653502Y5392893D01*
X30710124Y5579566D01*
X30590777Y5833000D01*
X29247000Y5833000D01*
X28993000Y5833000D01*
X27649223Y5833000D01*
X27529876Y5579566D01*
X23091358Y5579566D01*
X23135000Y5798967D01*
X23135000Y6121033D01*
X23072168Y6436912D01*
X22948918Y6734463D01*
X22808370Y6944809D01*
X22854494Y6969463D01*
X22951185Y7048815D01*
X23030537Y7145506D01*
X23089502Y7255820D01*
X23125812Y7375518D01*
X23138072Y7500000D01*
X23138072Y9500000D01*
X23125812Y9624482D01*
X23089502Y9744180D01*
X23030537Y9854494D01*
X22951185Y9951185D01*
X22854494Y10030537D01*
X22744180Y10089502D01*
X22624482Y10125812D01*
X22515000Y10136595D01*
X22515000Y10822761D01*
X22649987Y10957748D01*
X22828918Y11225537D01*
X22952168Y11523088D01*
X23015000Y11838967D01*
X23015000Y12161033D01*
X22952168Y12476912D01*
X22828918Y12774463D01*
X22649987Y13042252D01*
X22422252Y13269987D01*
X22154463Y13448918D01*
X21856912Y13572168D01*
X21541033Y13635000D01*
X21218967Y13635000D01*
X20903088Y13572168D01*
X20605537Y13448918D01*
X20337748Y13269987D01*
X20110013Y13042252D01*
X19931082Y12774463D01*
X19807832Y12476912D01*
X19745000Y12161033D01*
X19745000Y11838967D01*
X19807832Y11523088D01*
X19931082Y11225537D01*
X20110013Y10957748D01*
X20245000Y10822761D01*
X20245001Y10083719D01*
X20145506Y10030537D01*
X20048815Y9951185D01*
X19969463Y9854494D01*
X19910498Y9744180D01*
X19874188Y9624482D01*
X19861928Y9500000D01*
X19861928Y7500000D01*
X19874188Y7375518D01*
X19910498Y7255820D01*
X19969463Y7145506D01*
X20010912Y7095000D01*
X19010132Y7095000D01*
X17841996Y8263135D01*
X17806449Y8306449D01*
X17633623Y8448284D01*
X17436447Y8553676D01*
X17222499Y8618577D01*
X17055752Y8635000D01*
X17055751Y8635000D01*
X17000000Y8640491D01*
X16944249Y8635000D01*
X15622621Y8635000D01*
X15589502Y8744180D01*
X15530537Y8854494D01*
X15451185Y8951185D01*
X15354494Y9030537D01*
X15244180Y9089502D01*
X15124482Y9125812D01*
X15000000Y9138072D01*
X13000000Y9138072D01*
X12875518Y9125812D01*
X12755820Y9089502D01*
X12645506Y9030537D01*
X12548815Y8951185D01*
X12469463Y8854494D01*
X12410498Y8744180D01*
X12374188Y8624482D01*
X12361928Y8500000D01*
X660000Y8500000D01*
X660000Y11054587D01*
X13044192Y11054587D01*
X13139956Y10790186D01*
X13429571Y10649296D01*
X13741108Y10567616D01*
X14062595Y10548282D01*
X14381675Y10592039D01*
X14686088Y10697205D01*
X14860044Y10790186D01*
X14955808Y11054587D01*
X14000000Y12010395D01*
X13044192Y11054587D01*
X660000Y11054587D01*
X660000Y12127405D01*
X12358282Y12127405D01*
X12402039Y11808325D01*
X12507205Y11503912D01*
X12600186Y11329956D01*
X12864587Y11234192D01*
X13820395Y12190000D01*
X14179605Y12190000D01*
X15135413Y11234192D01*
X15399814Y11329956D01*
X15540704Y11619571D01*
X15622384Y11931108D01*
X15641718Y12252595D01*
X15597961Y12571675D01*
X15492795Y12876088D01*
X15399814Y13050044D01*
X15135413Y13145808D01*
X14179605Y12190000D01*
X13820395Y12190000D01*
X12864587Y13145808D01*
X12600186Y13050044D01*
X12459296Y12760429D01*
X12377616Y12448892D01*
X12358282Y12127405D01*
X660000Y12127405D01*
X660000Y13325413D01*
X13044192Y13325413D01*
X14000000Y12369605D01*
X14955808Y13325413D01*
X14860044Y13589814D01*
X14570429Y13730704D01*
X14258892Y13812384D01*
X13937405Y13831718D01*
X13618325Y13787961D01*
X13313912Y13682795D01*
X13139956Y13589814D01*
X13044192Y13325413D01*
X660000Y13325413D01*
X660000Y19554587D01*
X13044192Y19554587D01*
X13139956Y19290186D01*
X13429571Y19149296D01*
X13741108Y19067616D01*
X14062595Y19048282D01*
X14381675Y19092039D01*
X14686088Y19197205D01*
X14860044Y19290186D01*
X14955808Y19554587D01*
X14000000Y20510395D01*
X13044192Y19554587D01*
X660000Y19554587D01*
X660000Y20627405D01*
X12358282Y20627405D01*
X12402039Y20308325D01*
X12507205Y20003912D01*
X12600186Y19829956D01*
X12864587Y19734192D01*
X13820395Y20690000D01*
X14179605Y20690000D01*
X15135413Y19734192D01*
X15399814Y19829956D01*
X15540704Y20119571D01*
X15622384Y20431108D01*
X15641718Y20752595D01*
X15597961Y21071675D01*
X15492795Y21376088D01*
X15399814Y21550044D01*
X15135413Y21645808D01*
X14179605Y20690000D01*
X13820395Y20690000D01*
X12864587Y21645808D01*
X12600186Y21550044D01*
X12459296Y21260429D01*
X12377616Y20948892D01*
X12358282Y20627405D01*
X660000Y20627405D01*
X660000Y21825413D01*
X13044192Y21825413D01*
X14000000Y20869605D01*
X14955808Y21825413D01*
X14860044Y22089814D01*
X14570429Y22230704D01*
X14258892Y22312384D01*
X13937405Y22331718D01*
X13618325Y22287961D01*
X13313912Y22182795D01*
X13139956Y22089814D01*
X13044192Y21825413D01*
X660000Y21825413D01*
X660000Y25500000D01*
X12361928Y25500000D01*
X12361928Y23500000D01*
X12374188Y23375518D01*
X12410498Y23255820D01*
X12469463Y23145506D01*
X12548815Y23048815D01*
X12645506Y22969463D01*
X12755820Y22910498D01*
X12875518Y22874188D01*
X13000000Y22861928D01*
X15000000Y22861928D01*
X15124482Y22874188D01*
X15198291Y22896578D01*
X16965000Y21129868D01*
X16965001Y19555761D01*
X16959509Y19500000D01*
X16965000Y19444248D01*
X16965001Y18070133D01*
X16029869Y17135000D01*
X15622621Y17135000D01*
X15589502Y17244180D01*
X15530537Y17354494D01*
X15451185Y17451185D01*
X15354494Y17530537D01*
X15244180Y17589502D01*
X15124482Y17625812D01*
X15000000Y17638072D01*
X13000000Y17638072D01*
X12875518Y17625812D01*
X12755820Y17589502D01*
X12645506Y17530537D01*
X12548815Y17451185D01*
X12469463Y17354494D01*
X12410498Y17244180D01*
X12374188Y17124482D01*
X12361928Y17000000D01*
X12361928Y15000000D01*
X12374188Y14875518D01*
X12410498Y14755820D01*
X12469463Y14645506D01*
X12548815Y14548815D01*
X12645506Y14469463D01*
X12755820Y14410498D01*
X12875518Y14374188D01*
X13000000Y14361928D01*
X15000000Y14361928D01*
X15124482Y14374188D01*
X15244180Y14410498D01*
X15354494Y14469463D01*
X15451185Y14548815D01*
X15530537Y14645506D01*
X15589502Y14755820D01*
X15622621Y14865000D01*
X16444249Y14865000D01*
X16500000Y14859509D01*
X16555751Y14865000D01*
X16555752Y14865000D01*
X16722499Y14881423D01*
X16936447Y14946324D01*
X17133623Y15051716D01*
X17306449Y15193551D01*
X17341995Y15236864D01*
X18863146Y16758013D01*
X18906449Y16793551D01*
X19048284Y16966377D01*
X19153676Y17163553D01*
X19218577Y17377501D01*
X19235000Y17544248D01*
X19240491Y17600000D01*
X19235000Y17655752D01*
X19235000Y18365000D01*
X20282761Y18365000D01*
X20457748Y18190013D01*
X20725537Y18011082D01*
X21023088Y17887832D01*
X21338967Y17825000D01*
X21661033Y17825000D01*
X21976912Y17887832D01*
X22274463Y18011082D01*
X22542252Y18190013D01*
X22769987Y18417748D01*
X22948918Y18685537D01*
X23072168Y18983088D01*
X23135000Y19298967D01*
X23135000Y19621033D01*
X23072168Y19936912D01*
X22948918Y20234463D01*
X22808370Y20444809D01*
X22854494Y20469463D01*
X22951185Y20548815D01*
X23030537Y20645506D01*
X23089502Y20755820D01*
X23125812Y20875518D01*
X23138072Y21000000D01*
X23138072Y23000000D01*
X23125812Y23124482D01*
X23089502Y23244180D01*
X23030537Y23354494D01*
X22951185Y23451185D01*
X22854494Y23530537D01*
X22744180Y23589502D01*
X22624482Y23625812D01*
X22515000Y23636595D01*
X22515000Y24322761D01*
X22649987Y24457748D01*
X22828918Y24725537D01*
X22952168Y25023088D01*
X23015000Y25338967D01*
X23015000Y25661033D01*
X22952168Y25976912D01*
X22828918Y26274463D01*
X22649987Y26542252D01*
X22422252Y26769987D01*
X22154463Y26948918D01*
X21856912Y27072168D01*
X21541033Y27135000D01*
X21218967Y27135000D01*
X20903088Y27072168D01*
X20605537Y26948918D01*
X20337748Y26769987D01*
X20110013Y26542252D01*
X19931082Y26274463D01*
X19807832Y25976912D01*
X19745000Y25661033D01*
X19745000Y25338967D01*
X19807832Y25023088D01*
X19931082Y24725537D01*
X20110013Y24457748D01*
X20245000Y24322761D01*
X20245001Y23583719D01*
X20145506Y23530537D01*
X20048815Y23451185D01*
X19969463Y23354494D01*
X19910498Y23244180D01*
X19874188Y23124482D01*
X19861928Y23000000D01*
X19861928Y21000000D01*
X19874188Y20875518D01*
X19910498Y20755820D01*
X19969463Y20645506D01*
X19978085Y20635000D01*
X19235000Y20635000D01*
X19235000Y21544259D01*
X19240490Y21600001D01*
X19235000Y21655743D01*
X19235000Y21655752D01*
X19218577Y21822499D01*
X19153676Y22036447D01*
X19048284Y22233623D01*
X18906449Y22406449D01*
X18863141Y22441991D01*
X16041996Y25263135D01*
X16006449Y25306449D01*
X15833623Y25448284D01*
X15636447Y25553676D01*
X15632673Y25554821D01*
X15625812Y25624482D01*
X15589502Y25744180D01*
X15530537Y25854494D01*
X15451185Y25951185D01*
X15354494Y26030537D01*
X15244180Y26089502D01*
X15124482Y26125812D01*
X15000000Y26138072D01*
X13000000Y26138072D01*
X12875518Y26125812D01*
X12755820Y26089502D01*
X12645506Y26030537D01*
X12548815Y25951185D01*
X12469463Y25854494D01*
X12410498Y25744180D01*
X12374188Y25624482D01*
X12361928Y25500000D01*
X660000Y25500000D01*
X660000Y28054587D01*
X13044192Y28054587D01*
X13139956Y27790186D01*
X13429571Y27649296D01*
X13741108Y27567616D01*
X14062595Y27548282D01*
X14381675Y27592039D01*
X14686088Y27697205D01*
X14860044Y27790186D01*
X14955808Y28054587D01*
X14000000Y29010395D01*
X13044192Y28054587D01*
X660000Y28054587D01*
X660000Y29127405D01*
X12358282Y29127405D01*
X12402039Y28808325D01*
X12507205Y28503912D01*
X12600186Y28329956D01*
X12864587Y28234192D01*
X13820395Y29190000D01*
X14179605Y29190000D01*
X15135413Y28234192D01*
X15399814Y28329956D01*
X15540704Y28619571D01*
X15622384Y28931108D01*
X15641718Y29252595D01*
X15597961Y29571675D01*
X15492795Y29876088D01*
X15399814Y30050044D01*
X15135413Y30145808D01*
X14179605Y29190000D01*
X13820395Y29190000D01*
X12864587Y30145808D01*
X12600186Y30050044D01*
X12459296Y29760429D01*
X12377616Y29448892D01*
X12358282Y29127405D01*
X660000Y29127405D01*
X660000Y30325413D01*
X13044192Y30325413D01*
X14000000Y29369605D01*
X14955808Y30325413D01*
X14860044Y30589814D01*
X14570429Y30730704D01*
X14258892Y30812384D01*
X13937405Y30831718D01*
X13618325Y30787961D01*
X13313912Y30682795D01*
X13139956Y30589814D01*
X13044192Y30325413D01*
X660000Y30325413D01*
X660000Y36554587D01*
X13044192Y36554587D01*
X13139956Y36290186D01*
X13429571Y36149296D01*
X13741108Y36067616D01*
X14062595Y36048282D01*
X14381675Y36092039D01*
X14686088Y36197205D01*
X14860044Y36290186D01*
X14955808Y36554587D01*
X14000000Y37510395D01*
X13044192Y36554587D01*
X660000Y36554587D01*
X660000Y37627405D01*
X12358282Y37627405D01*
X12402039Y37308325D01*
X12507205Y37003912D01*
X12600186Y36829956D01*
X12864587Y36734192D01*
X13820395Y37690000D01*
X14179605Y37690000D01*
X15135413Y36734192D01*
X15399814Y36829956D01*
X15540704Y37119571D01*
X15622384Y37431108D01*
X15641718Y37752595D01*
X15597961Y38071675D01*
X15492795Y38376088D01*
X15399814Y38550044D01*
X15135413Y38645808D01*
X14179605Y37690000D01*
X13820395Y37690000D01*
X12864587Y38645808D01*
X12600186Y38550044D01*
X12459296Y38260429D01*
X12377616Y37948892D01*
X12358282Y37627405D01*
X660000Y37627405D01*
X660000Y41220128D01*
X1765000Y41220128D01*
X1765000Y40779872D01*
X1850890Y40348075D01*
X2019369Y39941331D01*
X2263962Y39575271D01*
X2575271Y39263962D01*
X2941331Y39019369D01*
X3348075Y38850890D01*
X3779872Y38765000D01*
X4220128Y38765000D01*
X4523843Y38825413D01*
X13044192Y38825413D01*
X14000000Y37869605D01*
X14955808Y38825413D01*
X14860044Y39089814D01*
X14570429Y39230704D01*
X14258892Y39312384D01*
X13937405Y39331718D01*
X13618325Y39287961D01*
X13313912Y39182795D01*
X13139956Y39089814D01*
X13044192Y38825413D01*
X4523843Y38825413D01*
X4651925Y38850890D01*
X5058669Y39019369D01*
X5424729Y39263962D01*
X5736038Y39575271D01*
X5980631Y39941331D01*
X6149110Y40348075D01*
X6235000Y40779872D01*
X6235000Y41220128D01*
X6149110Y41651925D01*
X5980631Y42058669D01*
X5736038Y42424729D01*
X5660767Y42500000D01*
X12361928Y42500000D01*
X12361928Y40500000D01*
X12374188Y40375518D01*
X12410498Y40255820D01*
X12469463Y40145506D01*
X12548815Y40048815D01*
X12645506Y39969463D01*
X12755820Y39910498D01*
X12875518Y39874188D01*
X13000000Y39861928D01*
X15000000Y39861928D01*
X15124482Y39874188D01*
X15244180Y39910498D01*
X15354494Y39969463D01*
X15451185Y40048815D01*
X15530537Y40145506D01*
X15589502Y40255820D01*
X15601034Y40293835D01*
X16865000Y39029868D01*
X16865001Y34970133D01*
X16029869Y34135000D01*
X15622621Y34135000D01*
X15589502Y34244180D01*
X15530537Y34354494D01*
X15451185Y34451185D01*
X15354494Y34530537D01*
X15244180Y34589502D01*
X15124482Y34625812D01*
X15000000Y34638072D01*
X13000000Y34638072D01*
X12875518Y34625812D01*
X12755820Y34589502D01*
X12645506Y34530537D01*
X12548815Y34451185D01*
X12469463Y34354494D01*
X12410498Y34244180D01*
X12374188Y34124482D01*
X12361928Y34000000D01*
X12361928Y32000000D01*
X12374188Y31875518D01*
X12410498Y31755820D01*
X12469463Y31645506D01*
X12548815Y31548815D01*
X12645506Y31469463D01*
X12755820Y31410498D01*
X12875518Y31374188D01*
X13000000Y31361928D01*
X15000000Y31361928D01*
X15124482Y31374188D01*
X15244180Y31410498D01*
X15354494Y31469463D01*
X15451185Y31548815D01*
X15530537Y31645506D01*
X15589502Y31755820D01*
X15622621Y31865000D01*
X16444249Y31865000D01*
X16500000Y31859509D01*
X16555751Y31865000D01*
X16555752Y31865000D01*
X16722499Y31881423D01*
X16936447Y31946324D01*
X17133623Y32051716D01*
X17306449Y32193551D01*
X17341996Y32236865D01*
X18000000Y32894868D01*
X19198013Y31696854D01*
X19233551Y31653551D01*
X19276854Y31618013D01*
X19276856Y31618011D01*
X19406377Y31511716D01*
X19603553Y31406324D01*
X19817501Y31341423D01*
X20040000Y31319509D01*
X20095752Y31325000D01*
X20822761Y31325000D01*
X20957748Y31190013D01*
X21225537Y31011082D01*
X21523088Y30887832D01*
X21838967Y30825000D01*
X22161033Y30825000D01*
X22476912Y30887832D01*
X22774463Y31011082D01*
X23042252Y31190013D01*
X23269987Y31417748D01*
X23448918Y31685537D01*
X23572168Y31983088D01*
X23635000Y32298967D01*
X23635000Y32621033D01*
X23572168Y32936912D01*
X23448918Y33234463D01*
X23308370Y33444809D01*
X23354494Y33469463D01*
X23451185Y33548815D01*
X23530537Y33645506D01*
X23589502Y33755820D01*
X23625812Y33875518D01*
X23638072Y34000000D01*
X23638072Y36000000D01*
X23625812Y36124482D01*
X23589502Y36244180D01*
X23530537Y36354494D01*
X23451185Y36451185D01*
X23354494Y36530537D01*
X23244180Y36589502D01*
X23124482Y36625812D01*
X23015000Y36636595D01*
X23015000Y37322761D01*
X23149987Y37457748D01*
X23328918Y37725537D01*
X23452168Y38023088D01*
X23515000Y38338967D01*
X23515000Y38661033D01*
X23452168Y38976912D01*
X23328918Y39274463D01*
X23149987Y39542252D01*
X22922252Y39769987D01*
X22654463Y39948918D01*
X22356912Y40072168D01*
X22041033Y40135000D01*
X21718967Y40135000D01*
X21403088Y40072168D01*
X21105537Y39948918D01*
X20837748Y39769987D01*
X20610013Y39542252D01*
X20431082Y39274463D01*
X20307832Y38976912D01*
X20245000Y38661033D01*
X20245000Y38338967D01*
X20307832Y38023088D01*
X20431082Y37725537D01*
X20610013Y37457748D01*
X20745000Y37322761D01*
X20745001Y36583719D01*
X20645506Y36530537D01*
X20548815Y36451185D01*
X20469463Y36354494D01*
X20410498Y36244180D01*
X20374188Y36124482D01*
X20361928Y36000000D01*
X20361928Y34000000D01*
X20374188Y33875518D01*
X20410498Y33755820D01*
X20469463Y33645506D01*
X20510912Y33595000D01*
X20510133Y33595000D01*
X19135000Y34970131D01*
X19135000Y39444249D01*
X19140491Y39500001D01*
X19118577Y39722500D01*
X19072562Y39874188D01*
X19053676Y39936447D01*
X18948284Y40133623D01*
X18806449Y40306449D01*
X18763141Y40341991D01*
X17885004Y41220128D01*
X36765000Y41220128D01*
X36765000Y40779872D01*
X36850890Y40348075D01*
X37019369Y39941331D01*
X37263962Y39575271D01*
X37575271Y39263962D01*
X37941331Y39019369D01*
X38348075Y38850890D01*
X38779872Y38765000D01*
X39220128Y38765000D01*
X39651925Y38850890D01*
X40058669Y39019369D01*
X40424729Y39263962D01*
X40736038Y39575271D01*
X40980631Y39941331D01*
X41149110Y40348075D01*
X41235000Y40779872D01*
X41235000Y41220128D01*
X41149110Y41651925D01*
X40980631Y42058669D01*
X40736038Y42424729D01*
X40424729Y42736038D01*
X40058669Y42980631D01*
X39651925Y43149110D01*
X39220128Y43235000D01*
X38779872Y43235000D01*
X38348075Y43149110D01*
X37941331Y42980631D01*
X37575271Y42736038D01*
X37263962Y42424729D01*
X37019369Y42058669D01*
X36850890Y41651925D01*
X36765000Y41220128D01*
X17885004Y41220128D01*
X16841996Y42263135D01*
X16806449Y42306449D01*
X16633623Y42448284D01*
X16436447Y42553676D01*
X16222499Y42618577D01*
X16055752Y42635000D01*
X16055751Y42635000D01*
X16000000Y42640491D01*
X15944249Y42635000D01*
X15622621Y42635000D01*
X15589502Y42744180D01*
X15530537Y42854494D01*
X15451185Y42951185D01*
X15354494Y43030537D01*
X15244180Y43089502D01*
X15124482Y43125812D01*
X15000000Y43138072D01*
X13000000Y43138072D01*
X12875518Y43125812D01*
X12755820Y43089502D01*
X12645506Y43030537D01*
X12548815Y42951185D01*
X12469463Y42854494D01*
X12410498Y42744180D01*
X12374188Y42624482D01*
X12361928Y42500000D01*
X5660767Y42500000D01*
X5424729Y42736038D01*
X5058669Y42980631D01*
X4651925Y43149110D01*
X4220128Y43235000D01*
X3779872Y43235000D01*
X3348075Y43149110D01*
X2941331Y42980631D01*
X2575271Y42736038D01*
X2263962Y42424729D01*
X2019369Y42058669D01*
X1850890Y41651925D01*
X1765000Y41220128D01*
X660000Y41220128D01*
X660000Y44340000D01*
X42340000Y44340000D01*
X42340000Y31265132D01*
%TA.AperFunction,Conductor*%
D15*
G36*
X42340000Y31265132D02*
G01*
X40591996Y33013135D01*
X40556449Y33056449D01*
X40383623Y33198284D01*
X40186447Y33303676D01*
X39972499Y33368577D01*
X39805752Y33385000D01*
X39805751Y33385000D01*
X39750000Y33390491D01*
X39694249Y33385000D01*
X38470132Y33385000D01*
X34635000Y37220131D01*
X34635000Y37822761D01*
X34769987Y37957748D01*
X34948918Y38225537D01*
X35072168Y38523088D01*
X35135000Y38838967D01*
X35135000Y39161033D01*
X35072168Y39476912D01*
X34948918Y39774463D01*
X34769987Y40042252D01*
X34542252Y40269987D01*
X34274463Y40448918D01*
X33976912Y40572168D01*
X33661033Y40635000D01*
X33338967Y40635000D01*
X33023088Y40572168D01*
X32725537Y40448918D01*
X32457748Y40269987D01*
X32322761Y40135000D01*
X30055752Y40135000D01*
X30000000Y40140491D01*
X29944248Y40135000D01*
X29777501Y40118577D01*
X29764074Y40114504D01*
X29661033Y40135000D01*
X29338967Y40135000D01*
X29023088Y40072168D01*
X28725537Y39948918D01*
X28457748Y39769987D01*
X28322761Y39635000D01*
X28055751Y39635000D01*
X28000000Y39640491D01*
X27944248Y39635000D01*
X27777501Y39618577D01*
X27563553Y39553676D01*
X27366377Y39448284D01*
X27193551Y39306449D01*
X27158011Y39263143D01*
X24736865Y36841996D01*
X24693551Y36806449D01*
X24551716Y36633623D01*
X24454202Y36451185D01*
X24446324Y36436446D01*
X24381423Y36222498D01*
X24359509Y36000000D01*
X24365000Y35944248D01*
X24365001Y25305761D01*
X24359509Y25250000D01*
X24365000Y25194248D01*
X24365001Y15555761D01*
X24359509Y15500000D01*
X24381423Y15277502D01*
X24446324Y15063554D01*
X24495384Y14971770D01*
X24551717Y14866377D01*
X24693552Y14693551D01*
X24736860Y14658009D01*
X27365000Y12029868D01*
X27365000Y11838967D01*
X27427832Y11523088D01*
X27551082Y11225537D01*
X27730013Y10957748D01*
X27957748Y10730013D01*
X28225537Y10551082D01*
X28523088Y10427832D01*
X28838967Y10365000D01*
X29161033Y10365000D01*
X29476912Y10427832D01*
X29774463Y10551082D01*
X30042252Y10730013D01*
X30177239Y10865000D01*
X32444249Y10865000D01*
X32500000Y10859509D01*
X32555751Y10865000D01*
X32555752Y10865000D01*
X32722499Y10881423D01*
X32936447Y10946324D01*
X33133623Y11051716D01*
X33306449Y11193551D01*
X33341995Y11236864D01*
X33470131Y11365000D01*
X33661033Y11365000D01*
X33976912Y11427832D01*
X34274463Y11551082D01*
X34542252Y11730013D01*
X34769987Y11957748D01*
X34948918Y12225537D01*
X35072168Y12523088D01*
X35135000Y12838967D01*
X35135000Y13161033D01*
X35072168Y13476912D01*
X34948918Y13774463D01*
X34769987Y14042252D01*
X34635000Y14177239D01*
X34635000Y17322761D01*
X34769987Y17457748D01*
X34948918Y17725537D01*
X35072168Y18023088D01*
X35135000Y18338967D01*
X35135000Y18661033D01*
X35072168Y18976912D01*
X34948918Y19274463D01*
X34769987Y19542252D01*
X34542252Y19769987D01*
X34274463Y19948918D01*
X33976912Y20072168D01*
X33661033Y20135000D01*
X33338967Y20135000D01*
X33023088Y20072168D01*
X32725537Y19948918D01*
X32457748Y19769987D01*
X32230013Y19542252D01*
X32051082Y19274463D01*
X31927832Y18976912D01*
X31865000Y18661033D01*
X31865000Y18338967D01*
X31927832Y18023088D01*
X32051082Y17725537D01*
X32230013Y17457748D01*
X32365001Y17322760D01*
X32365000Y14177239D01*
X32230013Y14042252D01*
X32051082Y13774463D01*
X31927832Y13476912D01*
X31865000Y13161033D01*
X31865000Y13135000D01*
X30177239Y13135000D01*
X30042252Y13269987D01*
X29774463Y13448918D01*
X29476912Y13572168D01*
X29161033Y13635000D01*
X28970132Y13635000D01*
X26635000Y15970131D01*
X26635000Y19079566D01*
X27529876Y19079566D01*
X27586498Y18892893D01*
X27726601Y18604618D01*
X27920252Y18349215D01*
X28160008Y18136499D01*
X28436656Y17974644D01*
X28739565Y17869871D01*
X28993000Y17988685D01*
X28993000Y19333000D01*
X29247000Y19333000D01*
X29247000Y17988685D01*
X29500435Y17869871D01*
X29803344Y17974644D01*
X30079992Y18136499D01*
X30319748Y18349215D01*
X30513399Y18604618D01*
X30653502Y18892893D01*
X30710124Y19079566D01*
X30590777Y19333000D01*
X29247000Y19333000D01*
X28993000Y19333000D01*
X27649223Y19333000D01*
X27529876Y19079566D01*
X26635000Y19079566D01*
X26635000Y24365000D01*
X27822761Y24365000D01*
X27957748Y24230013D01*
X28225537Y24051082D01*
X28523088Y23927832D01*
X28838967Y23865000D01*
X29161033Y23865000D01*
X29476912Y23927832D01*
X29774463Y24051082D01*
X30042252Y24230013D01*
X30269987Y24457748D01*
X30448918Y24725537D01*
X30572168Y25023088D01*
X30635000Y25338967D01*
X30635000Y25661033D01*
X30572168Y25976912D01*
X30448918Y26274463D01*
X30269987Y26542252D01*
X30042252Y26769987D01*
X29774463Y26948918D01*
X29476912Y27072168D01*
X29161033Y27135000D01*
X28838967Y27135000D01*
X28523088Y27072168D01*
X28225537Y26948918D01*
X27957748Y26769987D01*
X27822761Y26635000D01*
X26635000Y26635000D01*
X26635000Y32079566D01*
X28029876Y32079566D01*
X28086498Y31892893D01*
X28226601Y31604618D01*
X28420252Y31349215D01*
X28660008Y31136499D01*
X28936656Y30974644D01*
X29239565Y30869871D01*
X29493000Y30988685D01*
X29493000Y32333000D01*
X29747000Y32333000D01*
X29747000Y30988685D01*
X30000435Y30869871D01*
X30303344Y30974644D01*
X30579992Y31136499D01*
X30819748Y31349215D01*
X31013399Y31604618D01*
X31153502Y31892893D01*
X31210124Y32079566D01*
X31090777Y32333000D01*
X29747000Y32333000D01*
X29493000Y32333000D01*
X28149223Y32333000D01*
X28029876Y32079566D01*
X26635000Y32079566D01*
X26635000Y35529869D01*
X28396446Y37291315D01*
X28457748Y37230013D01*
X28725537Y37051082D01*
X29023088Y36927832D01*
X29338967Y36865000D01*
X29661033Y36865000D01*
X29976912Y36927832D01*
X30274463Y37051082D01*
X30542252Y37230013D01*
X30769987Y37457748D01*
X30948918Y37725537D01*
X31006686Y37865000D01*
X32322761Y37865000D01*
X32365001Y37822760D01*
X32365001Y36805761D01*
X32359509Y36750000D01*
X32381423Y36527502D01*
X32446324Y36313554D01*
X32469611Y36269987D01*
X32551717Y36116377D01*
X32693552Y35943551D01*
X32736860Y35908009D01*
X37158009Y31486859D01*
X37193551Y31443551D01*
X37366377Y31301716D01*
X37521191Y31218967D01*
X37563553Y31196324D01*
X37777501Y31131423D01*
X37999999Y31109509D01*
X38055751Y31115000D01*
X39279869Y31115000D01*
X40665001Y29729867D01*
X40665000Y26175000D01*
X40489088Y26175000D01*
X40530537Y26225506D01*
X40589502Y26335820D01*
X40625812Y26455518D01*
X40638072Y26580000D01*
X40635000Y27294250D01*
X40476250Y27453000D01*
X39127000Y27453000D01*
X39127000Y27433000D01*
X38873000Y27433000D01*
X38873000Y27453000D01*
X37523750Y27453000D01*
X37365000Y27294250D01*
X37361928Y26580000D01*
X37374188Y26455518D01*
X37410498Y26335820D01*
X37469463Y26225506D01*
X37548815Y26128815D01*
X37645506Y26049463D01*
X37691630Y26024809D01*
X37551082Y25814463D01*
X37427832Y25516912D01*
X37365000Y25201033D01*
X37365000Y24878967D01*
X37399473Y24705658D01*
X36635000Y25470131D01*
X36635000Y28580000D01*
X37361928Y28580000D01*
X37365000Y27865750D01*
X37523750Y27707000D01*
X38873000Y27707000D01*
X38873000Y29056250D01*
X39127000Y29056250D01*
X39127000Y27707000D01*
X40476250Y27707000D01*
X40635000Y27865750D01*
X40638072Y28580000D01*
X40625812Y28704482D01*
X40589502Y28824180D01*
X40530537Y28934494D01*
X40451185Y29031185D01*
X40354494Y29110537D01*
X40244180Y29169502D01*
X40124482Y29205812D01*
X40000000Y29218072D01*
X39285750Y29215000D01*
X39127000Y29056250D01*
X38873000Y29056250D01*
X38714250Y29215000D01*
X38000000Y29218072D01*
X37875518Y29205812D01*
X37755820Y29169502D01*
X37645506Y29110537D01*
X37548815Y29031185D01*
X37469463Y28934494D01*
X37410498Y28824180D01*
X37374188Y28704482D01*
X37361928Y28580000D01*
X36635000Y28580000D01*
X36635000Y29324249D01*
X36640491Y29380001D01*
X36618577Y29602500D01*
X36575349Y29745000D01*
X36553676Y29816447D01*
X36448284Y30013623D01*
X36306449Y30186449D01*
X36263141Y30221991D01*
X35135000Y31350131D01*
X35135000Y31541033D01*
X35072168Y31856912D01*
X34948918Y32154463D01*
X34769987Y32422252D01*
X34635000Y32557239D01*
X34635000Y32944249D01*
X34640491Y33000001D01*
X34618577Y33222500D01*
X34569282Y33385000D01*
X34553676Y33436447D01*
X34448284Y33633623D01*
X34306449Y33806449D01*
X34263141Y33841991D01*
X32341996Y35763135D01*
X32306449Y35806449D01*
X32133623Y35948284D01*
X31936447Y36053676D01*
X31722499Y36118577D01*
X31555752Y36135000D01*
X31555751Y36135000D01*
X31500000Y36140491D01*
X31444249Y36135000D01*
X30797239Y36135000D01*
X30662252Y36269987D01*
X30394463Y36448918D01*
X30096912Y36572168D01*
X29781033Y36635000D01*
X29458967Y36635000D01*
X29143088Y36572168D01*
X28845537Y36448918D01*
X28577748Y36269987D01*
X28350013Y36042252D01*
X28171082Y35774463D01*
X28047832Y35476912D01*
X27985000Y35161033D01*
X27985000Y34838967D01*
X28047832Y34523088D01*
X28171082Y34225537D01*
X28350013Y33957748D01*
X28577748Y33730013D01*
X28590282Y33721638D01*
X28420252Y33570785D01*
X28226601Y33315382D01*
X28086498Y33027107D01*
X28029876Y32840434D01*
X28149223Y32587000D01*
X29493000Y32587000D01*
X29493000Y32607000D01*
X29747000Y32607000D01*
X29747000Y32587000D01*
X31090777Y32587000D01*
X31210124Y32840434D01*
X31153502Y33027107D01*
X31013399Y33315382D01*
X30819748Y33570785D01*
X30649718Y33721638D01*
X30662252Y33730013D01*
X30797239Y33865000D01*
X31029869Y33865000D01*
X32351315Y32543554D01*
X32230013Y32422252D01*
X32051082Y32154463D01*
X31927832Y31856912D01*
X31865000Y31541033D01*
X31865000Y31218967D01*
X31927832Y30903088D01*
X32051082Y30605537D01*
X32230013Y30337748D01*
X32457748Y30110013D01*
X32725537Y29931082D01*
X33023088Y29807832D01*
X33338967Y29745000D01*
X33529869Y29745000D01*
X34365001Y28909867D01*
X34365001Y27508423D01*
X34274463Y27568918D01*
X33976912Y27692168D01*
X33661033Y27755000D01*
X33338967Y27755000D01*
X33023088Y27692168D01*
X32725537Y27568918D01*
X32457748Y27389987D01*
X32230013Y27162252D01*
X32051082Y26894463D01*
X31927832Y26596912D01*
X31865000Y26281033D01*
X31865000Y25958967D01*
X31927832Y25643088D01*
X32051082Y25345537D01*
X32230013Y25077748D01*
X32365001Y24942760D01*
X32365000Y23555752D01*
X32359509Y23500000D01*
X32365000Y23444249D01*
X32381423Y23277502D01*
X32424651Y23135000D01*
X30297239Y23135000D01*
X30162252Y23269987D01*
X29894463Y23448918D01*
X29596912Y23572168D01*
X29281033Y23635000D01*
X28958967Y23635000D01*
X28643088Y23572168D01*
X28345537Y23448918D01*
X28077748Y23269987D01*
X27850013Y23042252D01*
X27671082Y22774463D01*
X27547832Y22476912D01*
X27485000Y22161033D01*
X27485000Y21838967D01*
X27547832Y21523088D01*
X27671082Y21225537D01*
X27850013Y20957748D01*
X28077748Y20730013D01*
X28090282Y20721638D01*
X27920252Y20570785D01*
X27726601Y20315382D01*
X27586498Y20027107D01*
X27529876Y19840434D01*
X27649223Y19587000D01*
X28993000Y19587000D01*
X28993000Y19607000D01*
X29247000Y19607000D01*
X29247000Y19587000D01*
X30590777Y19587000D01*
X30710124Y19840434D01*
X30653502Y20027107D01*
X30513399Y20315382D01*
X30319748Y20570785D01*
X30149718Y20721638D01*
X30162252Y20730013D01*
X30297239Y20865000D01*
X34194249Y20865000D01*
X34250000Y20859509D01*
X34305751Y20865000D01*
X34305752Y20865000D01*
X34472499Y20881423D01*
X34503916Y20890953D01*
X36198009Y19196859D01*
X36233551Y19153551D01*
X36391954Y19023553D01*
X36406377Y19011716D01*
X36603553Y18906324D01*
X36817501Y18841423D01*
X37040000Y18819509D01*
X37095752Y18825000D01*
X37822761Y18825000D01*
X37957748Y18690013D01*
X37957767Y18690000D01*
X37957748Y18689987D01*
X37730013Y18462252D01*
X37551082Y18194463D01*
X37427832Y17896912D01*
X37365000Y17581033D01*
X37365000Y17258967D01*
X37427832Y16943088D01*
X37551082Y16645537D01*
X37730013Y16377748D01*
X37865000Y16242761D01*
X37865001Y11350134D01*
X33529869Y7015000D01*
X33470132Y7015000D01*
X31221996Y9263135D01*
X31186449Y9306449D01*
X31013623Y9448284D01*
X30816447Y9553676D01*
X30602499Y9618577D01*
X30435752Y9635000D01*
X30435751Y9635000D01*
X30380000Y9640491D01*
X30324249Y9635000D01*
X30297239Y9635000D01*
X30162252Y9769987D01*
X29894463Y9948918D01*
X29596912Y10072168D01*
X29281033Y10135000D01*
X28958967Y10135000D01*
X28643088Y10072168D01*
X28345537Y9948918D01*
X28077748Y9769987D01*
X27850013Y9542252D01*
X27671082Y9274463D01*
X27547832Y8976912D01*
X27485000Y8661033D01*
X27485000Y8338967D01*
X27547832Y8023088D01*
X27671082Y7725537D01*
X27850013Y7457748D01*
X28077748Y7230013D01*
X28090282Y7221638D01*
X27920252Y7070785D01*
X27726601Y6815382D01*
X27586498Y6527107D01*
X27529876Y6340434D01*
X27649223Y6087000D01*
X28993000Y6087000D01*
X28993000Y6107000D01*
X29247000Y6107000D01*
X29247000Y6087000D01*
X30590777Y6087000D01*
X30710124Y6340434D01*
X30653502Y6527107D01*
X30564375Y6710493D01*
X31865000Y5409868D01*
X31865000Y5218967D01*
X31927832Y4903088D01*
X32051082Y4605537D01*
X32230013Y4337748D01*
X32457748Y4110013D01*
X32725537Y3931082D01*
X33023088Y3807832D01*
X33338967Y3745000D01*
X33661033Y3745000D01*
X33976912Y3807832D01*
X34274463Y3931082D01*
X34542252Y4110013D01*
X34652367Y4220128D01*
X36765000Y4220128D01*
X36765000Y3779872D01*
X36850890Y3348075D01*
X37019369Y2941331D01*
X37263962Y2575271D01*
X37575271Y2263962D01*
X37941331Y2019369D01*
X38348075Y1850890D01*
X38779872Y1765000D01*
X39220128Y1765000D01*
X39651925Y1850890D01*
X40058669Y2019369D01*
X40424729Y2263962D01*
X40736038Y2575271D01*
X40980631Y2941331D01*
X41149110Y3348075D01*
X41235000Y3779872D01*
X41235000Y4220128D01*
X41149110Y4651925D01*
X40980631Y5058669D01*
X40736038Y5424729D01*
X40424729Y5736038D01*
X40058669Y5980631D01*
X39651925Y6149110D01*
X39220128Y6235000D01*
X38779872Y6235000D01*
X38348075Y6149110D01*
X37941331Y5980631D01*
X37575271Y5736038D01*
X37263962Y5424729D01*
X37019369Y5058669D01*
X36850890Y4651925D01*
X36765000Y4220128D01*
X34652367Y4220128D01*
X34769987Y4337748D01*
X34948918Y4605537D01*
X35072168Y4903088D01*
X35135000Y5218967D01*
X35135000Y5409869D01*
X39763146Y10038013D01*
X39806449Y10073551D01*
X39948284Y10246377D01*
X40053676Y10443553D01*
X40118577Y10657501D01*
X40135000Y10824248D01*
X40140491Y10880000D01*
X40135000Y10935752D01*
X40135000Y16242761D01*
X40269987Y16377748D01*
X40448918Y16645537D01*
X40572168Y16943088D01*
X40635000Y17258967D01*
X40635000Y17581033D01*
X40572168Y17896912D01*
X40448918Y18194463D01*
X40269987Y18462252D01*
X40042252Y18689987D01*
X40042233Y18690000D01*
X40042252Y18690013D01*
X40269987Y18917748D01*
X40448918Y19185537D01*
X40572168Y19483088D01*
X40635000Y19798967D01*
X40635000Y20121033D01*
X40572168Y20436912D01*
X40448918Y20734463D01*
X40269987Y21002252D01*
X40042252Y21229987D01*
X40042233Y21230000D01*
X40042252Y21230013D01*
X40269987Y21457748D01*
X40448918Y21725537D01*
X40572168Y22023088D01*
X40635000Y22338967D01*
X40635000Y22661033D01*
X40572168Y22976912D01*
X40448918Y23274463D01*
X40269987Y23542252D01*
X40042252Y23769987D01*
X40042233Y23770000D01*
X40042252Y23770013D01*
X40177239Y23905000D01*
X41284249Y23905000D01*
X41340000Y23899509D01*
X41395751Y23905000D01*
X41395752Y23905000D01*
X41562499Y23921423D01*
X41776447Y23986324D01*
X41973623Y24091716D01*
X42146449Y24233551D01*
X42181996Y24276865D01*
X42340000Y24434869D01*
X42340001Y660000D01*
X660000Y660000D01*
X660000Y4220128D01*
X1765000Y4220128D01*
X1765000Y3779872D01*
X1850890Y3348075D01*
X2019369Y2941331D01*
X2263962Y2575271D01*
X2575271Y2263962D01*
X2941331Y2019369D01*
X3348075Y1850890D01*
X3779872Y1765000D01*
X4220128Y1765000D01*
X4651925Y1850890D01*
X5058669Y2019369D01*
X5424729Y2263962D01*
X5715354Y2554587D01*
X13044192Y2554587D01*
X13139956Y2290186D01*
X13429571Y2149296D01*
X13741108Y2067616D01*
X14062595Y2048282D01*
X14381675Y2092039D01*
X14686088Y2197205D01*
X14860044Y2290186D01*
X14955808Y2554587D01*
X14000000Y3510395D01*
X13044192Y2554587D01*
X5715354Y2554587D01*
X5736038Y2575271D01*
X5980631Y2941331D01*
X6149110Y3348075D01*
X6204672Y3627405D01*
X12358282Y3627405D01*
X12402039Y3308325D01*
X12507205Y3003912D01*
X12600186Y2829956D01*
X12864587Y2734192D01*
X13820395Y3690000D01*
X14179605Y3690000D01*
X15135413Y2734192D01*
X15399814Y2829956D01*
X15540704Y3119571D01*
X15622384Y3431108D01*
X15641718Y3752595D01*
X15597961Y4071675D01*
X15492795Y4376088D01*
X15399814Y4550044D01*
X15135413Y4645808D01*
X14179605Y3690000D01*
X13820395Y3690000D01*
X12864587Y4645808D01*
X12600186Y4550044D01*
X12459296Y4260429D01*
X12377616Y3948892D01*
X12358282Y3627405D01*
X6204672Y3627405D01*
X6235000Y3779872D01*
X6235000Y4220128D01*
X6149110Y4651925D01*
X6077249Y4825413D01*
X13044192Y4825413D01*
X14000000Y3869605D01*
X14955808Y4825413D01*
X14860044Y5089814D01*
X14570429Y5230704D01*
X14258892Y5312384D01*
X13937405Y5331718D01*
X13618325Y5287961D01*
X13313912Y5182795D01*
X13139956Y5089814D01*
X13044192Y4825413D01*
X6077249Y4825413D01*
X5980631Y5058669D01*
X5736038Y5424729D01*
X5424729Y5736038D01*
X5058669Y5980631D01*
X4651925Y6149110D01*
X4220128Y6235000D01*
X3779872Y6235000D01*
X3348075Y6149110D01*
X2941331Y5980631D01*
X2575271Y5736038D01*
X2263962Y5424729D01*
X2019369Y5058669D01*
X1850890Y4651925D01*
X1765000Y4220128D01*
X660000Y4220128D01*
X660000Y8500000D01*
X12361928Y8500000D01*
X12361928Y6500000D01*
X12374188Y6375518D01*
X12410498Y6255820D01*
X12469463Y6145506D01*
X12548815Y6048815D01*
X12645506Y5969463D01*
X12755820Y5910498D01*
X12875518Y5874188D01*
X13000000Y5861928D01*
X15000000Y5861928D01*
X15124482Y5874188D01*
X15244180Y5910498D01*
X15354494Y5969463D01*
X15451185Y6048815D01*
X15530537Y6145506D01*
X15589502Y6255820D01*
X15622621Y6365000D01*
X16529869Y6365000D01*
X17698009Y5196860D01*
X17733551Y5153551D01*
X17811215Y5089814D01*
X17906377Y5011716D01*
X18103553Y4906324D01*
X18317501Y4841423D01*
X18540000Y4819509D01*
X18595752Y4825000D01*
X20322761Y4825000D01*
X20457748Y4690013D01*
X20725537Y4511082D01*
X21023088Y4387832D01*
X21338967Y4325000D01*
X21661033Y4325000D01*
X21976912Y4387832D01*
X22274463Y4511082D01*
X22542252Y4690013D01*
X22769987Y4917748D01*
X22948918Y5185537D01*
X23072168Y5483088D01*
X23091358Y5579566D01*
X27529876Y5579566D01*
X27586498Y5392893D01*
X27726601Y5104618D01*
X27920252Y4849215D01*
X28160008Y4636499D01*
X28436656Y4474644D01*
X28739565Y4369871D01*
X28993000Y4488685D01*
X28993000Y5833000D01*
X29247000Y5833000D01*
X29247000Y4488685D01*
X29500435Y4369871D01*
X29803344Y4474644D01*
X30079992Y4636499D01*
X30319748Y4849215D01*
X30513399Y5104618D01*
X30653502Y5392893D01*
X30710124Y5579566D01*
X30590777Y5833000D01*
X29247000Y5833000D01*
X28993000Y5833000D01*
X27649223Y5833000D01*
X27529876Y5579566D01*
X23091358Y5579566D01*
X23135000Y5798967D01*
X23135000Y6121033D01*
X23072168Y6436912D01*
X22948918Y6734463D01*
X22808370Y6944809D01*
X22854494Y6969463D01*
X22951185Y7048815D01*
X23030537Y7145506D01*
X23089502Y7255820D01*
X23125812Y7375518D01*
X23138072Y7500000D01*
X23138072Y9500000D01*
X23125812Y9624482D01*
X23089502Y9744180D01*
X23030537Y9854494D01*
X22951185Y9951185D01*
X22854494Y10030537D01*
X22744180Y10089502D01*
X22624482Y10125812D01*
X22515000Y10136595D01*
X22515000Y10822761D01*
X22649987Y10957748D01*
X22828918Y11225537D01*
X22952168Y11523088D01*
X23015000Y11838967D01*
X23015000Y12161033D01*
X22952168Y12476912D01*
X22828918Y12774463D01*
X22649987Y13042252D01*
X22422252Y13269987D01*
X22154463Y13448918D01*
X21856912Y13572168D01*
X21541033Y13635000D01*
X21218967Y13635000D01*
X20903088Y13572168D01*
X20605537Y13448918D01*
X20337748Y13269987D01*
X20110013Y13042252D01*
X19931082Y12774463D01*
X19807832Y12476912D01*
X19745000Y12161033D01*
X19745000Y11838967D01*
X19807832Y11523088D01*
X19931082Y11225537D01*
X20110013Y10957748D01*
X20245000Y10822761D01*
X20245001Y10083719D01*
X20145506Y10030537D01*
X20048815Y9951185D01*
X19969463Y9854494D01*
X19910498Y9744180D01*
X19874188Y9624482D01*
X19861928Y9500000D01*
X19861928Y7500000D01*
X19874188Y7375518D01*
X19910498Y7255820D01*
X19969463Y7145506D01*
X20010912Y7095000D01*
X19010132Y7095000D01*
X17841996Y8263135D01*
X17806449Y8306449D01*
X17633623Y8448284D01*
X17436447Y8553676D01*
X17222499Y8618577D01*
X17055752Y8635000D01*
X17055751Y8635000D01*
X17000000Y8640491D01*
X16944249Y8635000D01*
X15622621Y8635000D01*
X15589502Y8744180D01*
X15530537Y8854494D01*
X15451185Y8951185D01*
X15354494Y9030537D01*
X15244180Y9089502D01*
X15124482Y9125812D01*
X15000000Y9138072D01*
X13000000Y9138072D01*
X12875518Y9125812D01*
X12755820Y9089502D01*
X12645506Y9030537D01*
X12548815Y8951185D01*
X12469463Y8854494D01*
X12410498Y8744180D01*
X12374188Y8624482D01*
X12361928Y8500000D01*
X660000Y8500000D01*
X660000Y11054587D01*
X13044192Y11054587D01*
X13139956Y10790186D01*
X13429571Y10649296D01*
X13741108Y10567616D01*
X14062595Y10548282D01*
X14381675Y10592039D01*
X14686088Y10697205D01*
X14860044Y10790186D01*
X14955808Y11054587D01*
X14000000Y12010395D01*
X13044192Y11054587D01*
X660000Y11054587D01*
X660000Y12127405D01*
X12358282Y12127405D01*
X12402039Y11808325D01*
X12507205Y11503912D01*
X12600186Y11329956D01*
X12864587Y11234192D01*
X13820395Y12190000D01*
X14179605Y12190000D01*
X15135413Y11234192D01*
X15399814Y11329956D01*
X15540704Y11619571D01*
X15622384Y11931108D01*
X15641718Y12252595D01*
X15597961Y12571675D01*
X15492795Y12876088D01*
X15399814Y13050044D01*
X15135413Y13145808D01*
X14179605Y12190000D01*
X13820395Y12190000D01*
X12864587Y13145808D01*
X12600186Y13050044D01*
X12459296Y12760429D01*
X12377616Y12448892D01*
X12358282Y12127405D01*
X660000Y12127405D01*
X660000Y13325413D01*
X13044192Y13325413D01*
X14000000Y12369605D01*
X14955808Y13325413D01*
X14860044Y13589814D01*
X14570429Y13730704D01*
X14258892Y13812384D01*
X13937405Y13831718D01*
X13618325Y13787961D01*
X13313912Y13682795D01*
X13139956Y13589814D01*
X13044192Y13325413D01*
X660000Y13325413D01*
X660000Y19554587D01*
X13044192Y19554587D01*
X13139956Y19290186D01*
X13429571Y19149296D01*
X13741108Y19067616D01*
X14062595Y19048282D01*
X14381675Y19092039D01*
X14686088Y19197205D01*
X14860044Y19290186D01*
X14955808Y19554587D01*
X14000000Y20510395D01*
X13044192Y19554587D01*
X660000Y19554587D01*
X660000Y20627405D01*
X12358282Y20627405D01*
X12402039Y20308325D01*
X12507205Y20003912D01*
X12600186Y19829956D01*
X12864587Y19734192D01*
X13820395Y20690000D01*
X14179605Y20690000D01*
X15135413Y19734192D01*
X15399814Y19829956D01*
X15540704Y20119571D01*
X15622384Y20431108D01*
X15641718Y20752595D01*
X15597961Y21071675D01*
X15492795Y21376088D01*
X15399814Y21550044D01*
X15135413Y21645808D01*
X14179605Y20690000D01*
X13820395Y20690000D01*
X12864587Y21645808D01*
X12600186Y21550044D01*
X12459296Y21260429D01*
X12377616Y20948892D01*
X12358282Y20627405D01*
X660000Y20627405D01*
X660000Y21825413D01*
X13044192Y21825413D01*
X14000000Y20869605D01*
X14955808Y21825413D01*
X14860044Y22089814D01*
X14570429Y22230704D01*
X14258892Y22312384D01*
X13937405Y22331718D01*
X13618325Y22287961D01*
X13313912Y22182795D01*
X13139956Y22089814D01*
X13044192Y21825413D01*
X660000Y21825413D01*
X660000Y25500000D01*
X12361928Y25500000D01*
X12361928Y23500000D01*
X12374188Y23375518D01*
X12410498Y23255820D01*
X12469463Y23145506D01*
X12548815Y23048815D01*
X12645506Y22969463D01*
X12755820Y22910498D01*
X12875518Y22874188D01*
X13000000Y22861928D01*
X15000000Y22861928D01*
X15124482Y22874188D01*
X15198291Y22896578D01*
X16965000Y21129868D01*
X16965001Y19555761D01*
X16959509Y19500000D01*
X16965000Y19444248D01*
X16965001Y18070133D01*
X16029869Y17135000D01*
X15622621Y17135000D01*
X15589502Y17244180D01*
X15530537Y17354494D01*
X15451185Y17451185D01*
X15354494Y17530537D01*
X15244180Y17589502D01*
X15124482Y17625812D01*
X15000000Y17638072D01*
X13000000Y17638072D01*
X12875518Y17625812D01*
X12755820Y17589502D01*
X12645506Y17530537D01*
X12548815Y17451185D01*
X12469463Y17354494D01*
X12410498Y17244180D01*
X12374188Y17124482D01*
X12361928Y17000000D01*
X12361928Y15000000D01*
X12374188Y14875518D01*
X12410498Y14755820D01*
X12469463Y14645506D01*
X12548815Y14548815D01*
X12645506Y14469463D01*
X12755820Y14410498D01*
X12875518Y14374188D01*
X13000000Y14361928D01*
X15000000Y14361928D01*
X15124482Y14374188D01*
X15244180Y14410498D01*
X15354494Y14469463D01*
X15451185Y14548815D01*
X15530537Y14645506D01*
X15589502Y14755820D01*
X15622621Y14865000D01*
X16444249Y14865000D01*
X16500000Y14859509D01*
X16555751Y14865000D01*
X16555752Y14865000D01*
X16722499Y14881423D01*
X16936447Y14946324D01*
X17133623Y15051716D01*
X17306449Y15193551D01*
X17341995Y15236864D01*
X18863146Y16758013D01*
X18906449Y16793551D01*
X19048284Y16966377D01*
X19153676Y17163553D01*
X19218577Y17377501D01*
X19235000Y17544248D01*
X19240491Y17600000D01*
X19235000Y17655752D01*
X19235000Y18365000D01*
X20282761Y18365000D01*
X20457748Y18190013D01*
X20725537Y18011082D01*
X21023088Y17887832D01*
X21338967Y17825000D01*
X21661033Y17825000D01*
X21976912Y17887832D01*
X22274463Y18011082D01*
X22542252Y18190013D01*
X22769987Y18417748D01*
X22948918Y18685537D01*
X23072168Y18983088D01*
X23135000Y19298967D01*
X23135000Y19621033D01*
X23072168Y19936912D01*
X22948918Y20234463D01*
X22808370Y20444809D01*
X22854494Y20469463D01*
X22951185Y20548815D01*
X23030537Y20645506D01*
X23089502Y20755820D01*
X23125812Y20875518D01*
X23138072Y21000000D01*
X23138072Y23000000D01*
X23125812Y23124482D01*
X23089502Y23244180D01*
X23030537Y23354494D01*
X22951185Y23451185D01*
X22854494Y23530537D01*
X22744180Y23589502D01*
X22624482Y23625812D01*
X22515000Y23636595D01*
X22515000Y24322761D01*
X22649987Y24457748D01*
X22828918Y24725537D01*
X22952168Y25023088D01*
X23015000Y25338967D01*
X23015000Y25661033D01*
X22952168Y25976912D01*
X22828918Y26274463D01*
X22649987Y26542252D01*
X22422252Y26769987D01*
X22154463Y26948918D01*
X21856912Y27072168D01*
X21541033Y27135000D01*
X21218967Y27135000D01*
X20903088Y27072168D01*
X20605537Y26948918D01*
X20337748Y26769987D01*
X20110013Y26542252D01*
X19931082Y26274463D01*
X19807832Y25976912D01*
X19745000Y25661033D01*
X19745000Y25338967D01*
X19807832Y25023088D01*
X19931082Y24725537D01*
X20110013Y24457748D01*
X20245000Y24322761D01*
X20245001Y23583719D01*
X20145506Y23530537D01*
X20048815Y23451185D01*
X19969463Y23354494D01*
X19910498Y23244180D01*
X19874188Y23124482D01*
X19861928Y23000000D01*
X19861928Y21000000D01*
X19874188Y20875518D01*
X19910498Y20755820D01*
X19969463Y20645506D01*
X19978085Y20635000D01*
X19235000Y20635000D01*
X19235000Y21544259D01*
X19240490Y21600001D01*
X19235000Y21655743D01*
X19235000Y21655752D01*
X19218577Y21822499D01*
X19153676Y22036447D01*
X19048284Y22233623D01*
X18906449Y22406449D01*
X18863141Y22441991D01*
X16041996Y25263135D01*
X16006449Y25306449D01*
X15833623Y25448284D01*
X15636447Y25553676D01*
X15632673Y25554821D01*
X15625812Y25624482D01*
X15589502Y25744180D01*
X15530537Y25854494D01*
X15451185Y25951185D01*
X15354494Y26030537D01*
X15244180Y26089502D01*
X15124482Y26125812D01*
X15000000Y26138072D01*
X13000000Y26138072D01*
X12875518Y26125812D01*
X12755820Y26089502D01*
X12645506Y26030537D01*
X12548815Y25951185D01*
X12469463Y25854494D01*
X12410498Y25744180D01*
X12374188Y25624482D01*
X12361928Y25500000D01*
X660000Y25500000D01*
X660000Y28054587D01*
X13044192Y28054587D01*
X13139956Y27790186D01*
X13429571Y27649296D01*
X13741108Y27567616D01*
X14062595Y27548282D01*
X14381675Y27592039D01*
X14686088Y27697205D01*
X14860044Y27790186D01*
X14955808Y28054587D01*
X14000000Y29010395D01*
X13044192Y28054587D01*
X660000Y28054587D01*
X660000Y29127405D01*
X12358282Y29127405D01*
X12402039Y28808325D01*
X12507205Y28503912D01*
X12600186Y28329956D01*
X12864587Y28234192D01*
X13820395Y29190000D01*
X14179605Y29190000D01*
X15135413Y28234192D01*
X15399814Y28329956D01*
X15540704Y28619571D01*
X15622384Y28931108D01*
X15641718Y29252595D01*
X15597961Y29571675D01*
X15492795Y29876088D01*
X15399814Y30050044D01*
X15135413Y30145808D01*
X14179605Y29190000D01*
X13820395Y29190000D01*
X12864587Y30145808D01*
X12600186Y30050044D01*
X12459296Y29760429D01*
X12377616Y29448892D01*
X12358282Y29127405D01*
X660000Y29127405D01*
X660000Y30325413D01*
X13044192Y30325413D01*
X14000000Y29369605D01*
X14955808Y30325413D01*
X14860044Y30589814D01*
X14570429Y30730704D01*
X14258892Y30812384D01*
X13937405Y30831718D01*
X13618325Y30787961D01*
X13313912Y30682795D01*
X13139956Y30589814D01*
X13044192Y30325413D01*
X660000Y30325413D01*
X660000Y36554587D01*
X13044192Y36554587D01*
X13139956Y36290186D01*
X13429571Y36149296D01*
X13741108Y36067616D01*
X14062595Y36048282D01*
X14381675Y36092039D01*
X14686088Y36197205D01*
X14860044Y36290186D01*
X14955808Y36554587D01*
X14000000Y37510395D01*
X13044192Y36554587D01*
X660000Y36554587D01*
X660000Y37627405D01*
X12358282Y37627405D01*
X12402039Y37308325D01*
X12507205Y37003912D01*
X12600186Y36829956D01*
X12864587Y36734192D01*
X13820395Y37690000D01*
X14179605Y37690000D01*
X15135413Y36734192D01*
X15399814Y36829956D01*
X15540704Y37119571D01*
X15622384Y37431108D01*
X15641718Y37752595D01*
X15597961Y38071675D01*
X15492795Y38376088D01*
X15399814Y38550044D01*
X15135413Y38645808D01*
X14179605Y37690000D01*
X13820395Y37690000D01*
X12864587Y38645808D01*
X12600186Y38550044D01*
X12459296Y38260429D01*
X12377616Y37948892D01*
X12358282Y37627405D01*
X660000Y37627405D01*
X660000Y41220128D01*
X1765000Y41220128D01*
X1765000Y40779872D01*
X1850890Y40348075D01*
X2019369Y39941331D01*
X2263962Y39575271D01*
X2575271Y39263962D01*
X2941331Y39019369D01*
X3348075Y38850890D01*
X3779872Y38765000D01*
X4220128Y38765000D01*
X4523843Y38825413D01*
X13044192Y38825413D01*
X14000000Y37869605D01*
X14955808Y38825413D01*
X14860044Y39089814D01*
X14570429Y39230704D01*
X14258892Y39312384D01*
X13937405Y39331718D01*
X13618325Y39287961D01*
X13313912Y39182795D01*
X13139956Y39089814D01*
X13044192Y38825413D01*
X4523843Y38825413D01*
X4651925Y38850890D01*
X5058669Y39019369D01*
X5424729Y39263962D01*
X5736038Y39575271D01*
X5980631Y39941331D01*
X6149110Y40348075D01*
X6235000Y40779872D01*
X6235000Y41220128D01*
X6149110Y41651925D01*
X5980631Y42058669D01*
X5736038Y42424729D01*
X5660767Y42500000D01*
X12361928Y42500000D01*
X12361928Y40500000D01*
X12374188Y40375518D01*
X12410498Y40255820D01*
X12469463Y40145506D01*
X12548815Y40048815D01*
X12645506Y39969463D01*
X12755820Y39910498D01*
X12875518Y39874188D01*
X13000000Y39861928D01*
X15000000Y39861928D01*
X15124482Y39874188D01*
X15244180Y39910498D01*
X15354494Y39969463D01*
X15451185Y40048815D01*
X15530537Y40145506D01*
X15589502Y40255820D01*
X15601034Y40293835D01*
X16865000Y39029868D01*
X16865001Y34970133D01*
X16029869Y34135000D01*
X15622621Y34135000D01*
X15589502Y34244180D01*
X15530537Y34354494D01*
X15451185Y34451185D01*
X15354494Y34530537D01*
X15244180Y34589502D01*
X15124482Y34625812D01*
X15000000Y34638072D01*
X13000000Y34638072D01*
X12875518Y34625812D01*
X12755820Y34589502D01*
X12645506Y34530537D01*
X12548815Y34451185D01*
X12469463Y34354494D01*
X12410498Y34244180D01*
X12374188Y34124482D01*
X12361928Y34000000D01*
X12361928Y32000000D01*
X12374188Y31875518D01*
X12410498Y31755820D01*
X12469463Y31645506D01*
X12548815Y31548815D01*
X12645506Y31469463D01*
X12755820Y31410498D01*
X12875518Y31374188D01*
X13000000Y31361928D01*
X15000000Y31361928D01*
X15124482Y31374188D01*
X15244180Y31410498D01*
X15354494Y31469463D01*
X15451185Y31548815D01*
X15530537Y31645506D01*
X15589502Y31755820D01*
X15622621Y31865000D01*
X16444249Y31865000D01*
X16500000Y31859509D01*
X16555751Y31865000D01*
X16555752Y31865000D01*
X16722499Y31881423D01*
X16936447Y31946324D01*
X17133623Y32051716D01*
X17306449Y32193551D01*
X17341996Y32236865D01*
X18000000Y32894868D01*
X19198013Y31696854D01*
X19233551Y31653551D01*
X19276854Y31618013D01*
X19276856Y31618011D01*
X19406377Y31511716D01*
X19603553Y31406324D01*
X19817501Y31341423D01*
X20040000Y31319509D01*
X20095752Y31325000D01*
X20822761Y31325000D01*
X20957748Y31190013D01*
X21225537Y31011082D01*
X21523088Y30887832D01*
X21838967Y30825000D01*
X22161033Y30825000D01*
X22476912Y30887832D01*
X22774463Y31011082D01*
X23042252Y31190013D01*
X23269987Y31417748D01*
X23448918Y31685537D01*
X23572168Y31983088D01*
X23635000Y32298967D01*
X23635000Y32621033D01*
X23572168Y32936912D01*
X23448918Y33234463D01*
X23308370Y33444809D01*
X23354494Y33469463D01*
X23451185Y33548815D01*
X23530537Y33645506D01*
X23589502Y33755820D01*
X23625812Y33875518D01*
X23638072Y34000000D01*
X23638072Y36000000D01*
X23625812Y36124482D01*
X23589502Y36244180D01*
X23530537Y36354494D01*
X23451185Y36451185D01*
X23354494Y36530537D01*
X23244180Y36589502D01*
X23124482Y36625812D01*
X23015000Y36636595D01*
X23015000Y37322761D01*
X23149987Y37457748D01*
X23328918Y37725537D01*
X23452168Y38023088D01*
X23515000Y38338967D01*
X23515000Y38661033D01*
X23452168Y38976912D01*
X23328918Y39274463D01*
X23149987Y39542252D01*
X22922252Y39769987D01*
X22654463Y39948918D01*
X22356912Y40072168D01*
X22041033Y40135000D01*
X21718967Y40135000D01*
X21403088Y40072168D01*
X21105537Y39948918D01*
X20837748Y39769987D01*
X20610013Y39542252D01*
X20431082Y39274463D01*
X20307832Y38976912D01*
X20245000Y38661033D01*
X20245000Y38338967D01*
X20307832Y38023088D01*
X20431082Y37725537D01*
X20610013Y37457748D01*
X20745000Y37322761D01*
X20745001Y36583719D01*
X20645506Y36530537D01*
X20548815Y36451185D01*
X20469463Y36354494D01*
X20410498Y36244180D01*
X20374188Y36124482D01*
X20361928Y36000000D01*
X20361928Y34000000D01*
X20374188Y33875518D01*
X20410498Y33755820D01*
X20469463Y33645506D01*
X20510912Y33595000D01*
X20510133Y33595000D01*
X19135000Y34970131D01*
X19135000Y39444249D01*
X19140491Y39500001D01*
X19118577Y39722500D01*
X19072562Y39874188D01*
X19053676Y39936447D01*
X18948284Y40133623D01*
X18806449Y40306449D01*
X18763141Y40341991D01*
X17885004Y41220128D01*
X36765000Y41220128D01*
X36765000Y40779872D01*
X36850890Y40348075D01*
X37019369Y39941331D01*
X37263962Y39575271D01*
X37575271Y39263962D01*
X37941331Y39019369D01*
X38348075Y38850890D01*
X38779872Y38765000D01*
X39220128Y38765000D01*
X39651925Y38850890D01*
X40058669Y39019369D01*
X40424729Y39263962D01*
X40736038Y39575271D01*
X40980631Y39941331D01*
X41149110Y40348075D01*
X41235000Y40779872D01*
X41235000Y41220128D01*
X41149110Y41651925D01*
X40980631Y42058669D01*
X40736038Y42424729D01*
X40424729Y42736038D01*
X40058669Y42980631D01*
X39651925Y43149110D01*
X39220128Y43235000D01*
X38779872Y43235000D01*
X38348075Y43149110D01*
X37941331Y42980631D01*
X37575271Y42736038D01*
X37263962Y42424729D01*
X37019369Y42058669D01*
X36850890Y41651925D01*
X36765000Y41220128D01*
X17885004Y41220128D01*
X16841996Y42263135D01*
X16806449Y42306449D01*
X16633623Y42448284D01*
X16436447Y42553676D01*
X16222499Y42618577D01*
X16055752Y42635000D01*
X16055751Y42635000D01*
X16000000Y42640491D01*
X15944249Y42635000D01*
X15622621Y42635000D01*
X15589502Y42744180D01*
X15530537Y42854494D01*
X15451185Y42951185D01*
X15354494Y43030537D01*
X15244180Y43089502D01*
X15124482Y43125812D01*
X15000000Y43138072D01*
X13000000Y43138072D01*
X12875518Y43125812D01*
X12755820Y43089502D01*
X12645506Y43030537D01*
X12548815Y42951185D01*
X12469463Y42854494D01*
X12410498Y42744180D01*
X12374188Y42624482D01*
X12361928Y42500000D01*
X5660767Y42500000D01*
X5424729Y42736038D01*
X5058669Y42980631D01*
X4651925Y43149110D01*
X4220128Y43235000D01*
X3779872Y43235000D01*
X3348075Y43149110D01*
X2941331Y42980631D01*
X2575271Y42736038D01*
X2263962Y42424729D01*
X2019369Y42058669D01*
X1850890Y41651925D01*
X1765000Y41220128D01*
X660000Y41220128D01*
X660000Y44340000D01*
X42340000Y44340000D01*
X42340000Y31265132D01*
G37*
%TD.AperFunction*%
%TD*%
M02*
