M48
METRIC
T1C0.800
T2C1.000
%
G90
G05
T1
X14.0Y41.5
X14.0Y37.69
X14.0Y33.0
X14.0Y29.19
X14.0Y24.5
X14.0Y20.69
X14.0Y16.0
X14.0Y12.19
X14.0Y7.5
X14.0Y3.69
X21.38Y25.5
X21.38Y12.0
X21.5Y22.0
X21.5Y19.46
X21.5Y8.5
X21.5Y5.96
X21.88Y38.5
X22.0Y35.0
X22.0Y32.46
X29.0Y25.5
X29.0Y12.0
X29.12Y22.0
X29.12Y19.46
X29.12Y8.5
X29.12Y5.96
X29.5Y38.5
X29.62Y35.0
X29.62Y32.46
X33.5Y39.0
X33.5Y31.38
X33.5Y26.12
X33.5Y18.5
X33.5Y13.0
X33.5Y5.38
T2
X39.0Y27.58
X39.0Y25.04
X39.0Y22.5
X39.0Y19.96
X39.0Y17.42
T0
M30
