M48
METRIC
T1C0.800
T2C1.000
T3C1.100
%
G90
G05
T1
X11.869Y47.956
X11.869Y44.146
X11.869Y40.336
X11.869Y36.526
X11.869Y32.716
X11.869Y28.906
X11.869Y25.096
X22.029Y47.956
X22.029Y44.146
X22.029Y40.336
X22.029Y36.526
X22.029Y32.716
X22.029Y28.906
X22.029Y25.096
X30.834Y48.968
X30.834Y36.268
X30.919Y21.248
X30.919Y8.548
X34.729Y21.248
X34.729Y8.548
X34.898Y48.968
X34.898Y36.268
X54.46Y21.197
X54.46Y8.497
X56.488Y48.968
X56.488Y36.268
X58.27Y21.197
X58.27Y8.497
T2
X4.926Y46.682
X4.926Y44.142
X4.926Y40.332
X4.926Y37.792
X4.926Y35.252
X4.926Y32.712
X4.926Y30.172
X4.926Y27.632
X4.926Y25.092
T3
X6.958Y16.456
X6.958Y11.956
X13.458Y16.456
X13.458Y11.956
X18.134Y16.456
X18.134Y11.956
X24.634Y16.456
X24.634Y11.956
X30.195Y30.926
X30.195Y26.426
X36.695Y30.926
X36.695Y26.426
X41.625Y41.086
X41.625Y36.586
X41.625Y30.926
X41.625Y26.426
X41.625Y20.766
X41.625Y16.266
X48.125Y41.086
X48.125Y36.586
X48.125Y30.926
X48.125Y26.426
X48.125Y20.766
X48.125Y16.266
X53.055Y30.926
X53.055Y26.426
X59.555Y30.926
X59.555Y26.426
T0
M30
