M48
METRIC
T1C0.700
T2C0.800
T3C1.000
T4C1.100
%
G90
G05
T1
X54.3Y9.1
X61.92Y9.1
T2
X2.3Y20.9
X4.75Y6.25
X14.91Y6.25
X15.0Y20.9
X18.1Y20.9
X18.25Y6.25
X28.41Y6.25
X30.8Y20.9
X34.75Y54.45
X34.75Y41.75
X36.3Y19.3
X36.3Y9.14
X39.8Y19.3
X39.8Y9.14
X43.3Y19.3
X43.3Y9.14
X47.8Y19.3
X47.8Y9.14
X51.3Y19.3
X51.3Y9.14
X56.5Y54.45
X56.5Y41.75
X56.7Y28.35
X56.7Y15.65
X61.5Y54.45
X61.5Y41.75
X61.7Y28.35
X61.7Y15.65
T3
X13.54Y50.801
X16.08Y50.801
X18.62Y50.801
X21.16Y50.801
X32.02Y5.5
X32.02Y2.96
X34.56Y5.5
X34.56Y2.96
X37.1Y5.5
X37.1Y2.96
X39.64Y5.5
X39.64Y2.96
X42.18Y5.5
X42.18Y2.96
X44.72Y5.5
X44.72Y2.96
X47.26Y5.5
X47.26Y2.96
X49.8Y5.5
X49.8Y2.96
X52.34Y5.5
X52.34Y2.96
X54.88Y5.5
X54.88Y2.96
X57.42Y5.5
X57.42Y2.96
X59.96Y5.5
X59.96Y2.96
X62.5Y5.5
X62.5Y2.96
T4
X8.0Y16.25
X8.0Y11.75
X14.5Y16.25
X14.5Y11.75
X18.6Y16.25
X18.6Y11.75
X25.1Y16.25
X25.1Y11.75
X34.35Y38.6
X34.35Y34.1
X40.85Y38.6
X40.85Y34.1
X44.85Y49.1
X44.85Y44.6
X44.85Y38.6
X44.85Y34.1
X44.85Y28.1
X44.85Y23.6
X51.35Y49.1
X51.35Y44.6
X51.35Y38.6
X51.35Y34.1
X51.35Y28.1
X51.35Y23.6
X55.35Y38.6
X55.35Y34.1
X61.85Y38.6
X61.85Y34.1
T0
M30
