%TF.GenerationSoftware,KiCad,Pcbnew,(5.1.10)-1*%
%TF.CreationDate,2021-11-05T06:13:27+01:00*%
%TF.ProjectId,Pi-Radio,50692d52-6164-4696-9f2e-6b696361645f,rev?*%
%TF.SameCoordinates,PX700e860PY75c75e0*%
%TF.FileFunction,Legend,Top*%
%TF.FilePolarity,Positive*%
%FSLAX46Y46*%
G04 Gerber Fmt 4.6, Leading zero omitted, Abs format (unit mm)*
G04 Created by KiCad (PCBNEW (5.1.10)-1) date 2021-11-05 06:13:27*
%MOMM*%
%LPD*%
G01*
G04 APERTURE LIST*
%ADD10C,0.120000*%
%ADD11C,0.150000*%
G04 APERTURE END LIST*
D10*
%TO.C,R15*%
X56190000Y10020000D02*
X56190000Y8180000D01*
X56190000Y8180000D02*
X60030000Y8180000D01*
X60030000Y8180000D02*
X60030000Y10020000D01*
X60030000Y10020000D02*
X56190000Y10020000D01*
X55240000Y9100000D02*
X56190000Y9100000D01*
X60980000Y9100000D02*
X60030000Y9100000D01*
%TO.C,SW7*%
X19600000Y10750000D02*
X24100000Y10750000D01*
X18350000Y14750000D02*
X18350000Y13250000D01*
X24100000Y17250000D02*
X19600000Y17250000D01*
X25350000Y13250000D02*
X25350000Y14750000D01*
%TO.C,SW6*%
X9000000Y10750000D02*
X13500000Y10750000D01*
X7750000Y14750000D02*
X7750000Y13250000D01*
X13500000Y17250000D02*
X9000000Y17250000D01*
X14750000Y13250000D02*
X14750000Y14750000D01*
%TO.C,SW5*%
X56350000Y33100000D02*
X60850000Y33100000D01*
X55100000Y37100000D02*
X55100000Y35600000D01*
X60850000Y39600000D02*
X56350000Y39600000D01*
X62100000Y35600000D02*
X62100000Y37100000D01*
%TO.C,SW4*%
X45850000Y22600000D02*
X50350000Y22600000D01*
X44600000Y26600000D02*
X44600000Y25100000D01*
X50350000Y29100000D02*
X45850000Y29100000D01*
X51600000Y25100000D02*
X51600000Y26600000D01*
%TO.C,SW3*%
X45850000Y43600000D02*
X50350000Y43600000D01*
X44600000Y47600000D02*
X44600000Y46100000D01*
X50350000Y50100000D02*
X45850000Y50100000D01*
X51600000Y46100000D02*
X51600000Y47600000D01*
%TO.C,SW2*%
X35350000Y33100000D02*
X39850000Y33100000D01*
X34100000Y37100000D02*
X34100000Y35600000D01*
X39850000Y39600000D02*
X35350000Y39600000D01*
X41100000Y35600000D02*
X41100000Y37100000D01*
%TO.C,SW1*%
X45850000Y33100000D02*
X50350000Y33100000D01*
X44600000Y37100000D02*
X44600000Y35600000D01*
X50350000Y39600000D02*
X45850000Y39600000D01*
X51600000Y35600000D02*
X51600000Y37100000D01*
%TO.C,U1*%
X22490000Y49471000D02*
X22490000Y52131000D01*
X13540000Y49471000D02*
X12210000Y49471000D01*
X12210000Y49471000D02*
X12210000Y50801000D01*
X14810000Y49471000D02*
X22490000Y49471000D01*
X14810000Y49471000D02*
X14810000Y52131000D01*
X14810000Y52131000D02*
X22490000Y52131000D01*
X31066000Y25020000D02*
X31066000Y52198000D01*
X3634000Y30100000D02*
X31066000Y30100000D01*
X3634000Y46991000D02*
X31066000Y46991000D01*
X3634000Y25020000D02*
X3634000Y52198000D01*
X31066000Y25020000D02*
X3634000Y25020000D01*
X3634000Y52198000D02*
X31066000Y52198000D01*
%TO.C,R14*%
X20060000Y7620000D02*
X20060000Y4880000D01*
X20060000Y4880000D02*
X26600000Y4880000D01*
X26600000Y4880000D02*
X26600000Y7620000D01*
X26600000Y7620000D02*
X20060000Y7620000D01*
X19290000Y6250000D02*
X20060000Y6250000D01*
X27370000Y6250000D02*
X26600000Y6250000D01*
%TO.C,R13*%
X29070000Y19180000D02*
X29070000Y22620000D01*
X29070000Y22620000D02*
X19830000Y22620000D01*
X19830000Y22620000D02*
X19830000Y19180000D01*
X19830000Y19180000D02*
X29070000Y19180000D01*
X29760000Y20900000D02*
X29070000Y20900000D01*
X19140000Y20900000D02*
X19830000Y20900000D01*
%TO.C,R12*%
X6560000Y7620000D02*
X6560000Y4880000D01*
X6560000Y4880000D02*
X13100000Y4880000D01*
X13100000Y4880000D02*
X13100000Y7620000D01*
X13100000Y7620000D02*
X6560000Y7620000D01*
X5790000Y6250000D02*
X6560000Y6250000D01*
X13870000Y6250000D02*
X13100000Y6250000D01*
%TO.C,R11*%
X4030000Y22620000D02*
X4030000Y19180000D01*
X4030000Y19180000D02*
X13270000Y19180000D01*
X13270000Y19180000D02*
X13270000Y22620000D01*
X13270000Y22620000D02*
X4030000Y22620000D01*
X3340000Y20900000D02*
X4030000Y20900000D01*
X13960000Y20900000D02*
X13270000Y20900000D01*
%TO.C,R10*%
X52670000Y17490000D02*
X49930000Y17490000D01*
X49930000Y17490000D02*
X49930000Y10950000D01*
X49930000Y10950000D02*
X52670000Y10950000D01*
X52670000Y10950000D02*
X52670000Y17490000D01*
X51300000Y18260000D02*
X51300000Y17490000D01*
X51300000Y10180000D02*
X51300000Y10950000D01*
%TO.C,R9*%
X54780000Y43480000D02*
X58220000Y43480000D01*
X58220000Y43480000D02*
X58220000Y52720000D01*
X58220000Y52720000D02*
X54780000Y52720000D01*
X54780000Y52720000D02*
X54780000Y43480000D01*
X56500000Y42790000D02*
X56500000Y43480000D01*
X56500000Y53410000D02*
X56500000Y52720000D01*
%TO.C,R8*%
X49170000Y17490000D02*
X46430000Y17490000D01*
X46430000Y17490000D02*
X46430000Y10950000D01*
X46430000Y10950000D02*
X49170000Y10950000D01*
X49170000Y10950000D02*
X49170000Y17490000D01*
X47800000Y18260000D02*
X47800000Y17490000D01*
X47800000Y10180000D02*
X47800000Y10950000D01*
%TO.C,R7*%
X58420000Y26620000D02*
X54980000Y26620000D01*
X54980000Y26620000D02*
X54980000Y17380000D01*
X54980000Y17380000D02*
X58420000Y17380000D01*
X58420000Y17380000D02*
X58420000Y26620000D01*
X56700000Y27310000D02*
X56700000Y26620000D01*
X56700000Y16690000D02*
X56700000Y17380000D01*
%TO.C,R6*%
X41170000Y17490000D02*
X38430000Y17490000D01*
X38430000Y17490000D02*
X38430000Y10950000D01*
X38430000Y10950000D02*
X41170000Y10950000D01*
X41170000Y10950000D02*
X41170000Y17490000D01*
X39800000Y18260000D02*
X39800000Y17490000D01*
X39800000Y10180000D02*
X39800000Y10950000D01*
%TO.C,R5*%
X59780000Y43480000D02*
X63220000Y43480000D01*
X63220000Y43480000D02*
X63220000Y52720000D01*
X63220000Y52720000D02*
X59780000Y52720000D01*
X59780000Y52720000D02*
X59780000Y43480000D01*
X61500000Y42790000D02*
X61500000Y43480000D01*
X61500000Y53410000D02*
X61500000Y52720000D01*
%TO.C,R4*%
X37670000Y17490000D02*
X34930000Y17490000D01*
X34930000Y17490000D02*
X34930000Y10950000D01*
X34930000Y10950000D02*
X37670000Y10950000D01*
X37670000Y10950000D02*
X37670000Y17490000D01*
X36300000Y18260000D02*
X36300000Y17490000D01*
X36300000Y10180000D02*
X36300000Y10950000D01*
%TO.C,R3*%
X33030000Y43480000D02*
X36470000Y43480000D01*
X36470000Y43480000D02*
X36470000Y52720000D01*
X36470000Y52720000D02*
X33030000Y52720000D01*
X33030000Y52720000D02*
X33030000Y43480000D01*
X34750000Y42790000D02*
X34750000Y43480000D01*
X34750000Y53410000D02*
X34750000Y52720000D01*
%TO.C,R2*%
X44670000Y17490000D02*
X41930000Y17490000D01*
X41930000Y17490000D02*
X41930000Y10950000D01*
X41930000Y10950000D02*
X44670000Y10950000D01*
X44670000Y10950000D02*
X44670000Y17490000D01*
X43300000Y18260000D02*
X43300000Y17490000D01*
X43300000Y10180000D02*
X43300000Y10950000D01*
%TO.C,R1*%
X63420000Y26620000D02*
X59980000Y26620000D01*
X59980000Y26620000D02*
X59980000Y17380000D01*
X59980000Y17380000D02*
X63420000Y17380000D01*
X63420000Y17380000D02*
X63420000Y26620000D01*
X61700000Y27310000D02*
X61700000Y26620000D01*
X61700000Y16690000D02*
X61700000Y17380000D01*
%TO.C,R15*%
D11*
X57457142Y8647620D02*
X57123809Y9123810D01*
X56885714Y8647620D02*
X56885714Y9647620D01*
X57266666Y9647620D01*
X57361904Y9600000D01*
X57409523Y9552381D01*
X57457142Y9457143D01*
X57457142Y9314286D01*
X57409523Y9219048D01*
X57361904Y9171429D01*
X57266666Y9123810D01*
X56885714Y9123810D01*
X58409523Y8647620D02*
X57838095Y8647620D01*
X58123809Y8647620D02*
X58123809Y9647620D01*
X58028571Y9504762D01*
X57933333Y9409524D01*
X57838095Y9361905D01*
X59314285Y9647620D02*
X58838095Y9647620D01*
X58790476Y9171429D01*
X58838095Y9219048D01*
X58933333Y9266667D01*
X59171428Y9266667D01*
X59266666Y9219048D01*
X59314285Y9171429D01*
X59361904Y9076191D01*
X59361904Y8838096D01*
X59314285Y8742858D01*
X59266666Y8695239D01*
X59171428Y8647620D01*
X58933333Y8647620D01*
X58838095Y8695239D01*
X58790476Y8742858D01*
%TO.C,SW7*%
X20516666Y17845239D02*
X20659523Y17797620D01*
X20897619Y17797620D01*
X20992857Y17845239D01*
X21040476Y17892858D01*
X21088095Y17988096D01*
X21088095Y18083334D01*
X21040476Y18178572D01*
X20992857Y18226191D01*
X20897619Y18273810D01*
X20707142Y18321429D01*
X20611904Y18369048D01*
X20564285Y18416667D01*
X20516666Y18511905D01*
X20516666Y18607143D01*
X20564285Y18702381D01*
X20611904Y18750000D01*
X20707142Y18797620D01*
X20945238Y18797620D01*
X21088095Y18750000D01*
X21421428Y18797620D02*
X21659523Y17797620D01*
X21850000Y18511905D01*
X22040476Y17797620D01*
X22278571Y18797620D01*
X22564285Y18797620D02*
X23230952Y18797620D01*
X22802380Y17797620D01*
%TO.C,SW6*%
X9916666Y17845239D02*
X10059523Y17797620D01*
X10297619Y17797620D01*
X10392857Y17845239D01*
X10440476Y17892858D01*
X10488095Y17988096D01*
X10488095Y18083334D01*
X10440476Y18178572D01*
X10392857Y18226191D01*
X10297619Y18273810D01*
X10107142Y18321429D01*
X10011904Y18369048D01*
X9964285Y18416667D01*
X9916666Y18511905D01*
X9916666Y18607143D01*
X9964285Y18702381D01*
X10011904Y18750000D01*
X10107142Y18797620D01*
X10345238Y18797620D01*
X10488095Y18750000D01*
X10821428Y18797620D02*
X11059523Y17797620D01*
X11250000Y18511905D01*
X11440476Y17797620D01*
X11678571Y18797620D01*
X12488095Y18797620D02*
X12297619Y18797620D01*
X12202380Y18750000D01*
X12154761Y18702381D01*
X12059523Y18559524D01*
X12011904Y18369048D01*
X12011904Y17988096D01*
X12059523Y17892858D01*
X12107142Y17845239D01*
X12202380Y17797620D01*
X12392857Y17797620D01*
X12488095Y17845239D01*
X12535714Y17892858D01*
X12583333Y17988096D01*
X12583333Y18226191D01*
X12535714Y18321429D01*
X12488095Y18369048D01*
X12392857Y18416667D01*
X12202380Y18416667D01*
X12107142Y18369048D01*
X12059523Y18321429D01*
X12011904Y18226191D01*
%TO.C,SW5*%
X57266666Y40195239D02*
X57409523Y40147620D01*
X57647619Y40147620D01*
X57742857Y40195239D01*
X57790476Y40242858D01*
X57838095Y40338096D01*
X57838095Y40433334D01*
X57790476Y40528572D01*
X57742857Y40576191D01*
X57647619Y40623810D01*
X57457142Y40671429D01*
X57361904Y40719048D01*
X57314285Y40766667D01*
X57266666Y40861905D01*
X57266666Y40957143D01*
X57314285Y41052381D01*
X57361904Y41100000D01*
X57457142Y41147620D01*
X57695238Y41147620D01*
X57838095Y41100000D01*
X58171428Y41147620D02*
X58409523Y40147620D01*
X58600000Y40861905D01*
X58790476Y40147620D01*
X59028571Y41147620D01*
X59885714Y41147620D02*
X59409523Y41147620D01*
X59361904Y40671429D01*
X59409523Y40719048D01*
X59504761Y40766667D01*
X59742857Y40766667D01*
X59838095Y40719048D01*
X59885714Y40671429D01*
X59933333Y40576191D01*
X59933333Y40338096D01*
X59885714Y40242858D01*
X59838095Y40195239D01*
X59742857Y40147620D01*
X59504761Y40147620D01*
X59409523Y40195239D01*
X59361904Y40242858D01*
%TO.C,SW4*%
X46766666Y29695239D02*
X46909523Y29647620D01*
X47147619Y29647620D01*
X47242857Y29695239D01*
X47290476Y29742858D01*
X47338095Y29838096D01*
X47338095Y29933334D01*
X47290476Y30028572D01*
X47242857Y30076191D01*
X47147619Y30123810D01*
X46957142Y30171429D01*
X46861904Y30219048D01*
X46814285Y30266667D01*
X46766666Y30361905D01*
X46766666Y30457143D01*
X46814285Y30552381D01*
X46861904Y30600000D01*
X46957142Y30647620D01*
X47195238Y30647620D01*
X47338095Y30600000D01*
X47671428Y30647620D02*
X47909523Y29647620D01*
X48100000Y30361905D01*
X48290476Y29647620D01*
X48528571Y30647620D01*
X49338095Y30314286D02*
X49338095Y29647620D01*
X49100000Y30695239D02*
X48861904Y29980953D01*
X49480952Y29980953D01*
%TO.C,SW3*%
X46766666Y50695239D02*
X46909523Y50647620D01*
X47147619Y50647620D01*
X47242857Y50695239D01*
X47290476Y50742858D01*
X47338095Y50838096D01*
X47338095Y50933334D01*
X47290476Y51028572D01*
X47242857Y51076191D01*
X47147619Y51123810D01*
X46957142Y51171429D01*
X46861904Y51219048D01*
X46814285Y51266667D01*
X46766666Y51361905D01*
X46766666Y51457143D01*
X46814285Y51552381D01*
X46861904Y51600000D01*
X46957142Y51647620D01*
X47195238Y51647620D01*
X47338095Y51600000D01*
X47671428Y51647620D02*
X47909523Y50647620D01*
X48100000Y51361905D01*
X48290476Y50647620D01*
X48528571Y51647620D01*
X48814285Y51647620D02*
X49433333Y51647620D01*
X49100000Y51266667D01*
X49242857Y51266667D01*
X49338095Y51219048D01*
X49385714Y51171429D01*
X49433333Y51076191D01*
X49433333Y50838096D01*
X49385714Y50742858D01*
X49338095Y50695239D01*
X49242857Y50647620D01*
X48957142Y50647620D01*
X48861904Y50695239D01*
X48814285Y50742858D01*
%TO.C,SW2*%
X36266666Y40195239D02*
X36409523Y40147620D01*
X36647619Y40147620D01*
X36742857Y40195239D01*
X36790476Y40242858D01*
X36838095Y40338096D01*
X36838095Y40433334D01*
X36790476Y40528572D01*
X36742857Y40576191D01*
X36647619Y40623810D01*
X36457142Y40671429D01*
X36361904Y40719048D01*
X36314285Y40766667D01*
X36266666Y40861905D01*
X36266666Y40957143D01*
X36314285Y41052381D01*
X36361904Y41100000D01*
X36457142Y41147620D01*
X36695238Y41147620D01*
X36838095Y41100000D01*
X37171428Y41147620D02*
X37409523Y40147620D01*
X37600000Y40861905D01*
X37790476Y40147620D01*
X38028571Y41147620D01*
X38361904Y41052381D02*
X38409523Y41100000D01*
X38504761Y41147620D01*
X38742857Y41147620D01*
X38838095Y41100000D01*
X38885714Y41052381D01*
X38933333Y40957143D01*
X38933333Y40861905D01*
X38885714Y40719048D01*
X38314285Y40147620D01*
X38933333Y40147620D01*
%TO.C,SW1*%
X46766666Y40195239D02*
X46909523Y40147620D01*
X47147619Y40147620D01*
X47242857Y40195239D01*
X47290476Y40242858D01*
X47338095Y40338096D01*
X47338095Y40433334D01*
X47290476Y40528572D01*
X47242857Y40576191D01*
X47147619Y40623810D01*
X46957142Y40671429D01*
X46861904Y40719048D01*
X46814285Y40766667D01*
X46766666Y40861905D01*
X46766666Y40957143D01*
X46814285Y41052381D01*
X46861904Y41100000D01*
X46957142Y41147620D01*
X47195238Y41147620D01*
X47338095Y41100000D01*
X47671428Y41147620D02*
X47909523Y40147620D01*
X48100000Y40861905D01*
X48290476Y40147620D01*
X48528571Y41147620D01*
X49433333Y40147620D02*
X48861904Y40147620D01*
X49147619Y40147620D02*
X49147619Y41147620D01*
X49052380Y41004762D01*
X48957142Y40909524D01*
X48861904Y40861905D01*
%TO.C,U1*%
X16359495Y40477420D02*
X16359495Y39667896D01*
X16407114Y39572658D01*
X16454733Y39525039D01*
X16549971Y39477420D01*
X16740447Y39477420D01*
X16835685Y39525039D01*
X16883304Y39572658D01*
X16930923Y39667896D01*
X16930923Y40477420D01*
X17930923Y39477420D02*
X17359495Y39477420D01*
X17645209Y39477420D02*
X17645209Y40477420D01*
X17549971Y40334562D01*
X17454733Y40239324D01*
X17359495Y40191705D01*
X13006666Y49142000D02*
X12940000Y49189620D01*
X12840000Y49189620D01*
X12740000Y49142000D01*
X12673333Y49046762D01*
X12640000Y48951524D01*
X12606666Y48761048D01*
X12606666Y48618191D01*
X12640000Y48427715D01*
X12673333Y48332477D01*
X12740000Y48237239D01*
X12840000Y48189620D01*
X12906666Y48189620D01*
X13006666Y48237239D01*
X13040000Y48284858D01*
X13040000Y48618191D01*
X12906666Y48618191D01*
X13340000Y48189620D02*
X13340000Y49189620D01*
X13740000Y48189620D01*
X13740000Y49189620D01*
X14073333Y48189620D02*
X14073333Y49189620D01*
X14240000Y49189620D01*
X14340000Y49142000D01*
X14406666Y49046762D01*
X14440000Y48951524D01*
X14473333Y48761048D01*
X14473333Y48618191D01*
X14440000Y48427715D01*
X14406666Y48332477D01*
X14340000Y48237239D01*
X14240000Y48189620D01*
X14073333Y48189620D01*
X15146666Y49189620D02*
X15380000Y48189620D01*
X15613333Y49189620D01*
X15846666Y48189620D02*
X15846666Y49189620D01*
X16013333Y49189620D01*
X16113333Y49142000D01*
X16180000Y49046762D01*
X16213333Y48951524D01*
X16246666Y48761048D01*
X16246666Y48618191D01*
X16213333Y48427715D01*
X16180000Y48332477D01*
X16113333Y48237239D01*
X16013333Y48189620D01*
X15846666Y48189620D01*
X16546666Y48189620D02*
X16546666Y49189620D01*
X16713333Y49189620D01*
X16813333Y49142000D01*
X16880000Y49046762D01*
X16913333Y48951524D01*
X16946666Y48761048D01*
X16946666Y48618191D01*
X16913333Y48427715D01*
X16880000Y48332477D01*
X16813333Y48237239D01*
X16713333Y48189620D01*
X16546666Y48189620D01*
X17786666Y48237239D02*
X17886666Y48189620D01*
X18053333Y48189620D01*
X18120000Y48237239D01*
X18153333Y48284858D01*
X18186666Y48380096D01*
X18186666Y48475334D01*
X18153333Y48570572D01*
X18120000Y48618191D01*
X18053333Y48665810D01*
X17920000Y48713429D01*
X17853333Y48761048D01*
X17820000Y48808667D01*
X17786666Y48903905D01*
X17786666Y48999143D01*
X17820000Y49094381D01*
X17853333Y49142000D01*
X17920000Y49189620D01*
X18086666Y49189620D01*
X18186666Y49142000D01*
X18886666Y48284858D02*
X18853333Y48237239D01*
X18753333Y48189620D01*
X18686666Y48189620D01*
X18586666Y48237239D01*
X18520000Y48332477D01*
X18486666Y48427715D01*
X18453333Y48618191D01*
X18453333Y48761048D01*
X18486666Y48951524D01*
X18520000Y49046762D01*
X18586666Y49142000D01*
X18686666Y49189620D01*
X18753333Y49189620D01*
X18853333Y49142000D01*
X18886666Y49094381D01*
X19520000Y48189620D02*
X19186666Y48189620D01*
X19186666Y49189620D01*
X20437000Y48237239D02*
X20537000Y48189620D01*
X20703666Y48189620D01*
X20770333Y48237239D01*
X20803666Y48284858D01*
X20837000Y48380096D01*
X20837000Y48475334D01*
X20803666Y48570572D01*
X20770333Y48618191D01*
X20703666Y48665810D01*
X20570333Y48713429D01*
X20503666Y48761048D01*
X20470333Y48808667D01*
X20437000Y48903905D01*
X20437000Y48999143D01*
X20470333Y49094381D01*
X20503666Y49142000D01*
X20570333Y49189620D01*
X20737000Y49189620D01*
X20837000Y49142000D01*
X21137000Y48189620D02*
X21137000Y49189620D01*
X21303666Y49189620D01*
X21403666Y49142000D01*
X21470333Y49046762D01*
X21503666Y48951524D01*
X21537000Y48761048D01*
X21537000Y48618191D01*
X21503666Y48427715D01*
X21470333Y48332477D01*
X21403666Y48237239D01*
X21303666Y48189620D01*
X21137000Y48189620D01*
X21803666Y48475334D02*
X22137000Y48475334D01*
X21737000Y48189620D02*
X21970333Y49189620D01*
X22203666Y48189620D01*
%TO.C,R14*%
X22687142Y5797620D02*
X22353809Y6273810D01*
X22115714Y5797620D02*
X22115714Y6797620D01*
X22496666Y6797620D01*
X22591904Y6750000D01*
X22639523Y6702381D01*
X22687142Y6607143D01*
X22687142Y6464286D01*
X22639523Y6369048D01*
X22591904Y6321429D01*
X22496666Y6273810D01*
X22115714Y6273810D01*
X23639523Y5797620D02*
X23068095Y5797620D01*
X23353809Y5797620D02*
X23353809Y6797620D01*
X23258571Y6654762D01*
X23163333Y6559524D01*
X23068095Y6511905D01*
X24496666Y6464286D02*
X24496666Y5797620D01*
X24258571Y6845239D02*
X24020476Y6130953D01*
X24639523Y6130953D01*
%TO.C,R13*%
X23807142Y20447620D02*
X23473809Y20923810D01*
X23235714Y20447620D02*
X23235714Y21447620D01*
X23616666Y21447620D01*
X23711904Y21400000D01*
X23759523Y21352381D01*
X23807142Y21257143D01*
X23807142Y21114286D01*
X23759523Y21019048D01*
X23711904Y20971429D01*
X23616666Y20923810D01*
X23235714Y20923810D01*
X24759523Y20447620D02*
X24188095Y20447620D01*
X24473809Y20447620D02*
X24473809Y21447620D01*
X24378571Y21304762D01*
X24283333Y21209524D01*
X24188095Y21161905D01*
X25092857Y21447620D02*
X25711904Y21447620D01*
X25378571Y21066667D01*
X25521428Y21066667D01*
X25616666Y21019048D01*
X25664285Y20971429D01*
X25711904Y20876191D01*
X25711904Y20638096D01*
X25664285Y20542858D01*
X25616666Y20495239D01*
X25521428Y20447620D01*
X25235714Y20447620D01*
X25140476Y20495239D01*
X25092857Y20542858D01*
%TO.C,R12*%
X9157142Y5797620D02*
X8823809Y6273810D01*
X8585714Y5797620D02*
X8585714Y6797620D01*
X8966666Y6797620D01*
X9061904Y6750000D01*
X9109523Y6702381D01*
X9157142Y6607143D01*
X9157142Y6464286D01*
X9109523Y6369048D01*
X9061904Y6321429D01*
X8966666Y6273810D01*
X8585714Y6273810D01*
X10109523Y5797620D02*
X9538095Y5797620D01*
X9823809Y5797620D02*
X9823809Y6797620D01*
X9728571Y6654762D01*
X9633333Y6559524D01*
X9538095Y6511905D01*
X10490476Y6702381D02*
X10538095Y6750000D01*
X10633333Y6797620D01*
X10871428Y6797620D01*
X10966666Y6750000D01*
X11014285Y6702381D01*
X11061904Y6607143D01*
X11061904Y6511905D01*
X11014285Y6369048D01*
X10442857Y5797620D01*
X11061904Y5797620D01*
%TO.C,R11*%
X8007142Y20447620D02*
X7673809Y20923810D01*
X7435714Y20447620D02*
X7435714Y21447620D01*
X7816666Y21447620D01*
X7911904Y21400000D01*
X7959523Y21352381D01*
X8007142Y21257143D01*
X8007142Y21114286D01*
X7959523Y21019048D01*
X7911904Y20971429D01*
X7816666Y20923810D01*
X7435714Y20923810D01*
X8959523Y20447620D02*
X8388095Y20447620D01*
X8673809Y20447620D02*
X8673809Y21447620D01*
X8578571Y21304762D01*
X8483333Y21209524D01*
X8388095Y21161905D01*
X9911904Y20447620D02*
X9340476Y20447620D01*
X9626190Y20447620D02*
X9626190Y21447620D01*
X9530952Y21304762D01*
X9435714Y21209524D01*
X9340476Y21161905D01*
%TO.C,R10*%
X51752380Y13567143D02*
X51276190Y13233810D01*
X51752380Y12995715D02*
X50752380Y12995715D01*
X50752380Y13376667D01*
X50800000Y13471905D01*
X50847619Y13519524D01*
X50942857Y13567143D01*
X51085714Y13567143D01*
X51180952Y13519524D01*
X51228571Y13471905D01*
X51276190Y13376667D01*
X51276190Y12995715D01*
X51752380Y14519524D02*
X51752380Y13948096D01*
X51752380Y14233810D02*
X50752380Y14233810D01*
X50895238Y14138572D01*
X50990476Y14043334D01*
X51038095Y13948096D01*
X50752380Y15138572D02*
X50752380Y15233810D01*
X50800000Y15329048D01*
X50847619Y15376667D01*
X50942857Y15424286D01*
X51133333Y15471905D01*
X51371428Y15471905D01*
X51561904Y15424286D01*
X51657142Y15376667D01*
X51704761Y15329048D01*
X51752380Y15233810D01*
X51752380Y15138572D01*
X51704761Y15043334D01*
X51657142Y14995715D01*
X51561904Y14948096D01*
X51371428Y14900477D01*
X51133333Y14900477D01*
X50942857Y14948096D01*
X50847619Y14995715D01*
X50800000Y15043334D01*
X50752380Y15138572D01*
%TO.C,R9*%
X56952380Y47933334D02*
X56476190Y47600000D01*
X56952380Y47361905D02*
X55952380Y47361905D01*
X55952380Y47742858D01*
X56000000Y47838096D01*
X56047619Y47885715D01*
X56142857Y47933334D01*
X56285714Y47933334D01*
X56380952Y47885715D01*
X56428571Y47838096D01*
X56476190Y47742858D01*
X56476190Y47361905D01*
X56952380Y48409524D02*
X56952380Y48600000D01*
X56904761Y48695239D01*
X56857142Y48742858D01*
X56714285Y48838096D01*
X56523809Y48885715D01*
X56142857Y48885715D01*
X56047619Y48838096D01*
X56000000Y48790477D01*
X55952380Y48695239D01*
X55952380Y48504762D01*
X56000000Y48409524D01*
X56047619Y48361905D01*
X56142857Y48314286D01*
X56380952Y48314286D01*
X56476190Y48361905D01*
X56523809Y48409524D01*
X56571428Y48504762D01*
X56571428Y48695239D01*
X56523809Y48790477D01*
X56476190Y48838096D01*
X56380952Y48885715D01*
%TO.C,R8*%
X48262380Y14043334D02*
X47786190Y13710000D01*
X48262380Y13471905D02*
X47262380Y13471905D01*
X47262380Y13852858D01*
X47310000Y13948096D01*
X47357619Y13995715D01*
X47452857Y14043334D01*
X47595714Y14043334D01*
X47690952Y13995715D01*
X47738571Y13948096D01*
X47786190Y13852858D01*
X47786190Y13471905D01*
X47690952Y14614762D02*
X47643333Y14519524D01*
X47595714Y14471905D01*
X47500476Y14424286D01*
X47452857Y14424286D01*
X47357619Y14471905D01*
X47310000Y14519524D01*
X47262380Y14614762D01*
X47262380Y14805239D01*
X47310000Y14900477D01*
X47357619Y14948096D01*
X47452857Y14995715D01*
X47500476Y14995715D01*
X47595714Y14948096D01*
X47643333Y14900477D01*
X47690952Y14805239D01*
X47690952Y14614762D01*
X47738571Y14519524D01*
X47786190Y14471905D01*
X47881428Y14424286D01*
X48071904Y14424286D01*
X48167142Y14471905D01*
X48214761Y14519524D01*
X48262380Y14614762D01*
X48262380Y14805239D01*
X48214761Y14900477D01*
X48167142Y14948096D01*
X48071904Y14995715D01*
X47881428Y14995715D01*
X47786190Y14948096D01*
X47738571Y14900477D01*
X47690952Y14805239D01*
%TO.C,R7*%
X57162380Y21843334D02*
X56686190Y21510000D01*
X57162380Y21271905D02*
X56162380Y21271905D01*
X56162380Y21652858D01*
X56210000Y21748096D01*
X56257619Y21795715D01*
X56352857Y21843334D01*
X56495714Y21843334D01*
X56590952Y21795715D01*
X56638571Y21748096D01*
X56686190Y21652858D01*
X56686190Y21271905D01*
X56162380Y22176667D02*
X56162380Y22843334D01*
X57162380Y22414762D01*
%TO.C,R6*%
X40252380Y14053334D02*
X39776190Y13720000D01*
X40252380Y13481905D02*
X39252380Y13481905D01*
X39252380Y13862858D01*
X39300000Y13958096D01*
X39347619Y14005715D01*
X39442857Y14053334D01*
X39585714Y14053334D01*
X39680952Y14005715D01*
X39728571Y13958096D01*
X39776190Y13862858D01*
X39776190Y13481905D01*
X39252380Y14910477D02*
X39252380Y14720000D01*
X39300000Y14624762D01*
X39347619Y14577143D01*
X39490476Y14481905D01*
X39680952Y14434286D01*
X40061904Y14434286D01*
X40157142Y14481905D01*
X40204761Y14529524D01*
X40252380Y14624762D01*
X40252380Y14815239D01*
X40204761Y14910477D01*
X40157142Y14958096D01*
X40061904Y15005715D01*
X39823809Y15005715D01*
X39728571Y14958096D01*
X39680952Y14910477D01*
X39633333Y14815239D01*
X39633333Y14624762D01*
X39680952Y14529524D01*
X39728571Y14481905D01*
X39823809Y14434286D01*
%TO.C,R5*%
X61952380Y47923334D02*
X61476190Y47590000D01*
X61952380Y47351905D02*
X60952380Y47351905D01*
X60952380Y47732858D01*
X61000000Y47828096D01*
X61047619Y47875715D01*
X61142857Y47923334D01*
X61285714Y47923334D01*
X61380952Y47875715D01*
X61428571Y47828096D01*
X61476190Y47732858D01*
X61476190Y47351905D01*
X60952380Y48828096D02*
X60952380Y48351905D01*
X61428571Y48304286D01*
X61380952Y48351905D01*
X61333333Y48447143D01*
X61333333Y48685239D01*
X61380952Y48780477D01*
X61428571Y48828096D01*
X61523809Y48875715D01*
X61761904Y48875715D01*
X61857142Y48828096D01*
X61904761Y48780477D01*
X61952380Y48685239D01*
X61952380Y48447143D01*
X61904761Y48351905D01*
X61857142Y48304286D01*
%TO.C,R4*%
X36752380Y14053334D02*
X36276190Y13720000D01*
X36752380Y13481905D02*
X35752380Y13481905D01*
X35752380Y13862858D01*
X35800000Y13958096D01*
X35847619Y14005715D01*
X35942857Y14053334D01*
X36085714Y14053334D01*
X36180952Y14005715D01*
X36228571Y13958096D01*
X36276190Y13862858D01*
X36276190Y13481905D01*
X36085714Y14910477D02*
X36752380Y14910477D01*
X35704761Y14672381D02*
X36419047Y14434286D01*
X36419047Y15053334D01*
%TO.C,R3*%
X35202380Y47923334D02*
X34726190Y47590000D01*
X35202380Y47351905D02*
X34202380Y47351905D01*
X34202380Y47732858D01*
X34250000Y47828096D01*
X34297619Y47875715D01*
X34392857Y47923334D01*
X34535714Y47923334D01*
X34630952Y47875715D01*
X34678571Y47828096D01*
X34726190Y47732858D01*
X34726190Y47351905D01*
X34202380Y48256667D02*
X34202380Y48875715D01*
X34583333Y48542381D01*
X34583333Y48685239D01*
X34630952Y48780477D01*
X34678571Y48828096D01*
X34773809Y48875715D01*
X35011904Y48875715D01*
X35107142Y48828096D01*
X35154761Y48780477D01*
X35202380Y48685239D01*
X35202380Y48399524D01*
X35154761Y48304286D01*
X35107142Y48256667D01*
%TO.C,R2*%
X43762380Y14043334D02*
X43286190Y13710000D01*
X43762380Y13471905D02*
X42762380Y13471905D01*
X42762380Y13852858D01*
X42810000Y13948096D01*
X42857619Y13995715D01*
X42952857Y14043334D01*
X43095714Y14043334D01*
X43190952Y13995715D01*
X43238571Y13948096D01*
X43286190Y13852858D01*
X43286190Y13471905D01*
X42857619Y14424286D02*
X42810000Y14471905D01*
X42762380Y14567143D01*
X42762380Y14805239D01*
X42810000Y14900477D01*
X42857619Y14948096D01*
X42952857Y14995715D01*
X43048095Y14995715D01*
X43190952Y14948096D01*
X43762380Y14376667D01*
X43762380Y14995715D01*
%TO.C,R1*%
X62152380Y21833334D02*
X61676190Y21500000D01*
X62152380Y21261905D02*
X61152380Y21261905D01*
X61152380Y21642858D01*
X61200000Y21738096D01*
X61247619Y21785715D01*
X61342857Y21833334D01*
X61485714Y21833334D01*
X61580952Y21785715D01*
X61628571Y21738096D01*
X61676190Y21642858D01*
X61676190Y21261905D01*
X62152380Y22785715D02*
X62152380Y22214286D01*
X62152380Y22500000D02*
X61152380Y22500000D01*
X61295238Y22404762D01*
X61390476Y22309524D01*
X61438095Y22214286D01*
%TD*%
M02*
