%TF.GenerationSoftware,KiCad,Pcbnew,(5.1.10)-1*%
%TF.CreationDate,2021-10-30T19:23:44+02:00*%
%TF.ProjectId,Pi-Radio,50692d52-6164-4696-9f2e-6b696361645f,rev?*%
%TF.SameCoordinates,PX602aa70PY947d2f0*%
%TF.FileFunction,Copper,L2,Bot*%
%TF.FilePolarity,Positive*%
%FSLAX46Y46*%
G04 Gerber Fmt 4.6, Leading zero omitted, Abs format (unit mm)*
G04 Created by KiCad (PCBNEW (5.1.10)-1) date 2021-10-30 19:23:44*
%MOMM*%
%LPD*%
G01*
G04 APERTURE LIST*
%TA.AperFunction,ComponentPad*%
%ADD10O,1.700000X1.700000*%
%TD*%
%TA.AperFunction,ComponentPad*%
%ADD11R,1.700000X1.700000*%
%TD*%
%TA.AperFunction,ComponentPad*%
%ADD12C,2.000000*%
%TD*%
%TA.AperFunction,ComponentPad*%
%ADD13O,1.600000X1.600000*%
%TD*%
%TA.AperFunction,ComponentPad*%
%ADD14C,1.600000*%
%TD*%
%TA.AperFunction,Conductor*%
%ADD15C,0.250000*%
%TD*%
%TA.AperFunction,Conductor*%
%ADD16C,0.300000*%
%TD*%
%TA.AperFunction,Conductor*%
%ADD17C,0.254000*%
%TD*%
%TA.AperFunction,Conductor*%
%ADD18C,0.100000*%
%TD*%
G04 APERTURE END LIST*
D10*
%TO.P,J1,7*%
%TO.N,Pin16*%
X4926000Y25092000D03*
%TO.P,J1,6*%
%TO.N,Pin18*%
X4926000Y27632000D03*
%TO.P,J1,5*%
%TO.N,Pin8*%
X4926000Y30172000D03*
%TO.P,J1,4*%
%TO.N,Pin13*%
X4926000Y32712000D03*
%TO.P,J1,3*%
%TO.N,Pin15*%
X4926000Y35252000D03*
%TO.P,J1,2*%
%TO.N,Pin10*%
X4926000Y37792000D03*
D11*
%TO.P,J1,1*%
%TO.N,Pin11*%
X4926000Y40332000D03*
%TD*%
D12*
%TO.P,SW2,1*%
%TO.N,Net-(R3-Pad1)*%
X13458000Y16456000D03*
%TO.P,SW2,2*%
%TO.N,GND*%
X13458000Y11956000D03*
%TO.P,SW2,1*%
%TO.N,Net-(R3-Pad1)*%
X6958000Y16456000D03*
%TO.P,SW2,2*%
%TO.N,GND*%
X6958000Y11956000D03*
%TD*%
D13*
%TO.P,R8,2*%
%TO.N,Pin18*%
X11869354Y28906457D03*
D14*
%TO.P,R8,1*%
%TO.N,Net-(R7-Pad1)*%
X22029354Y28906457D03*
%TD*%
D13*
%TO.P,R2,2*%
%TO.N,Pin10*%
X11869354Y44146457D03*
D14*
%TO.P,R2,1*%
%TO.N,Net-(R1-Pad1)*%
X22029354Y44146457D03*
%TD*%
D13*
%TO.P,R3,2*%
%TO.N,+3V3*%
X30919354Y8548357D03*
D14*
%TO.P,R3,1*%
%TO.N,Net-(R3-Pad1)*%
X30919354Y21248357D03*
%TD*%
D13*
%TO.P,R4,2*%
%TO.N,Pin16*%
X11869354Y25096457D03*
D14*
%TO.P,R4,1*%
%TO.N,Net-(R3-Pad1)*%
X22029354Y25096457D03*
%TD*%
D13*
%TO.P,R5,2*%
%TO.N,+3V3*%
X34898000Y48968000D03*
D14*
%TO.P,R5,1*%
%TO.N,Net-(R5-Pad1)*%
X34898000Y36268000D03*
%TD*%
D13*
%TO.P,R11,2*%
%TO.N,+3V3*%
X54460457Y8496646D03*
D14*
%TO.P,R11,1*%
%TO.N,Net-(R11-Pad1)*%
X54460457Y21196646D03*
%TD*%
D13*
%TO.P,R9,2*%
%TO.N,+3V3*%
X58270457Y8496646D03*
D14*
%TO.P,R9,1*%
%TO.N,Net-(R10-Pad1)*%
X58270457Y21196646D03*
%TD*%
D12*
%TO.P,SW4,1*%
%TO.N,Net-(R7-Pad1)*%
X24634000Y16456000D03*
%TO.P,SW4,2*%
%TO.N,GND*%
X24634000Y11956000D03*
%TO.P,SW4,1*%
%TO.N,Net-(R7-Pad1)*%
X18134000Y16456000D03*
%TO.P,SW4,2*%
%TO.N,GND*%
X18134000Y11956000D03*
%TD*%
D13*
%TO.P,R10,2*%
%TO.N,Pin8*%
X11869354Y32716457D03*
D14*
%TO.P,R10,1*%
%TO.N,Net-(R10-Pad1)*%
X22029354Y32716457D03*
%TD*%
D13*
%TO.P,R1,2*%
%TO.N,+3V3*%
X30834000Y48968000D03*
D14*
%TO.P,R1,1*%
%TO.N,Net-(R1-Pad1)*%
X30834000Y36268000D03*
%TD*%
D12*
%TO.P,SW6,1*%
%TO.N,Net-(R11-Pad1)*%
X48125454Y20765757D03*
%TO.P,SW6,2*%
%TO.N,GND*%
X48125454Y16265757D03*
%TO.P,SW6,1*%
%TO.N,Net-(R11-Pad1)*%
X41625454Y20765757D03*
%TO.P,SW6,2*%
%TO.N,GND*%
X41625454Y16265757D03*
%TD*%
D13*
%TO.P,R12,2*%
%TO.N,Pin13*%
X11869354Y36526457D03*
D14*
%TO.P,R12,1*%
%TO.N,Net-(R11-Pad1)*%
X22029354Y36526457D03*
%TD*%
D12*
%TO.P,SW3,1*%
%TO.N,Net-(R5-Pad1)*%
X48125454Y41085757D03*
%TO.P,SW3,2*%
%TO.N,GND*%
X48125454Y36585757D03*
%TO.P,SW3,1*%
%TO.N,Net-(R5-Pad1)*%
X41625454Y41085757D03*
%TO.P,SW3,2*%
%TO.N,GND*%
X41625454Y36585757D03*
%TD*%
D13*
%TO.P,R7,2*%
%TO.N,+3V3*%
X34729354Y8548357D03*
D14*
%TO.P,R7,1*%
%TO.N,Net-(R7-Pad1)*%
X34729354Y21248357D03*
%TD*%
D10*
%TO.P,J8,2*%
%TO.N,GND*%
X4926000Y44142000D03*
D11*
%TO.P,J8,1*%
%TO.N,+3V3*%
X4926000Y46682000D03*
%TD*%
D13*
%TO.P,R6,2*%
%TO.N,Pin11*%
X11869354Y47956457D03*
D14*
%TO.P,R6,1*%
%TO.N,Net-(R5-Pad1)*%
X22029354Y47956457D03*
%TD*%
D13*
%TO.P,R13,2*%
%TO.N,+3V3*%
X56488000Y48968000D03*
D14*
%TO.P,R13,1*%
%TO.N,Net-(R13-Pad1)*%
X56488000Y36268000D03*
%TD*%
D12*
%TO.P,SW1,1*%
%TO.N,Net-(R1-Pad1)*%
X36695454Y30925757D03*
%TO.P,SW1,2*%
%TO.N,GND*%
X36695454Y26425757D03*
%TO.P,SW1,1*%
%TO.N,Net-(R1-Pad1)*%
X30195454Y30925757D03*
%TO.P,SW1,2*%
%TO.N,GND*%
X30195454Y26425757D03*
%TD*%
%TO.P,SW7,1*%
%TO.N,Net-(R13-Pad1)*%
X59555454Y30925757D03*
%TO.P,SW7,2*%
%TO.N,GND*%
X59555454Y26425757D03*
%TO.P,SW7,1*%
%TO.N,Net-(R13-Pad1)*%
X53055454Y30925757D03*
%TO.P,SW7,2*%
%TO.N,GND*%
X53055454Y26425757D03*
%TD*%
%TO.P,SW5,1*%
%TO.N,Net-(R10-Pad1)*%
X48125454Y30925757D03*
%TO.P,SW5,2*%
%TO.N,GND*%
X48125454Y26425757D03*
%TO.P,SW5,1*%
%TO.N,Net-(R10-Pad1)*%
X41625454Y30925757D03*
%TO.P,SW5,2*%
%TO.N,GND*%
X41625454Y26425757D03*
%TD*%
D13*
%TO.P,R14,2*%
%TO.N,Pin15*%
X11869354Y40336457D03*
D14*
%TO.P,R14,1*%
%TO.N,Net-(R13-Pad1)*%
X22029354Y40336457D03*
%TD*%
D15*
%TO.N,Pin8*%
X9324897Y30172000D02*
X11869354Y32716457D01*
X4926000Y30172000D02*
X9324897Y30172000D01*
%TO.N,Pin10*%
X4926000Y37792000D02*
X6450000Y37792000D01*
X6450000Y37792000D02*
X9752000Y41094000D01*
X9752000Y42029103D02*
X11869354Y44146457D01*
X9752000Y41094000D02*
X9752000Y42029103D01*
%TO.N,Pin11*%
X4926000Y40332000D02*
X5688000Y40332000D01*
X4926000Y40332000D02*
X6450000Y40332000D01*
X6450000Y40332000D02*
X9752000Y43634000D01*
X11869354Y47956457D02*
X9752000Y45839103D01*
X9752000Y45839103D02*
X9752000Y43634000D01*
%TO.N,Pin13*%
X8054897Y32712000D02*
X11869354Y36526457D01*
X4926000Y32712000D02*
X8054897Y32712000D01*
%TO.N,Pin15*%
X6784897Y35252000D02*
X11869354Y40336457D01*
X4926000Y35252000D02*
X6784897Y35252000D01*
%TO.N,Pin16*%
X11864897Y25092000D02*
X11869354Y25096457D01*
X4926000Y25092000D02*
X11864897Y25092000D01*
%TO.N,Pin18*%
X11610897Y28648000D02*
X11869354Y28906457D01*
X10594897Y27632000D02*
X11869354Y28906457D01*
X4926000Y27632000D02*
X10594897Y27632000D01*
D16*
%TO.N,+3V3*%
X30885711Y8582000D02*
X30919354Y8548357D01*
X30919354Y8548357D02*
X34729354Y8548357D01*
X54408746Y8548357D02*
X54460457Y8496646D01*
X34729354Y8548357D02*
X54408746Y8548357D01*
X54460457Y8496646D02*
X58270457Y8496646D01*
X56488000Y48968000D02*
X34898000Y48968000D01*
X34898000Y48968000D02*
X30834000Y48968000D01*
X58270457Y8496646D02*
X59958646Y8496646D01*
X59958646Y8496646D02*
X62584000Y11122000D01*
X62584000Y42872000D02*
X56488000Y48968000D01*
X62584000Y11122000D02*
X62584000Y42872000D01*
D15*
X30834000Y48968000D02*
X28294000Y51508000D01*
X9752000Y51508000D02*
X4926000Y46682000D01*
X28294000Y51508000D02*
X9752000Y51508000D01*
D16*
%TO.N,Net-(R1-Pad1)*%
X30195454Y30925757D02*
X36695454Y30925757D01*
X30195454Y30925757D02*
X30195454Y33089454D01*
X30834000Y33728000D02*
X30834000Y36268000D01*
X30195454Y33089454D02*
X30834000Y33728000D01*
X22029354Y44146457D02*
X25749543Y44146457D01*
X30834000Y39062000D02*
X30834000Y36268000D01*
X25749543Y44146457D02*
X30834000Y39062000D01*
%TO.N,Net-(R3-Pad1)*%
X30919354Y21248357D02*
X25787643Y21248357D01*
X22029354Y25006646D02*
X22029354Y25096457D01*
X25787643Y21248357D02*
X22029354Y25006646D01*
D15*
X6958000Y16456000D02*
X13458000Y16456000D01*
X13458000Y16456000D02*
X13458000Y20924000D01*
X17630457Y25096457D02*
X22029354Y25096457D01*
X13458000Y20924000D02*
X17630457Y25096457D01*
D16*
%TO.N,Net-(R5-Pad1)*%
X41625454Y41085757D02*
X48125454Y41085757D01*
X41617211Y41094000D02*
X41625454Y41085757D01*
X22029354Y47956457D02*
X25407543Y47956457D01*
X34898000Y38466000D02*
X34898000Y36268000D01*
X25407543Y47956457D02*
X34898000Y38466000D01*
X37517757Y41085757D02*
X34898000Y38466000D01*
X41625454Y41085757D02*
X37517757Y41085757D01*
%TO.N,Net-(R7-Pad1)*%
X27024000Y22552000D02*
X22029354Y27546646D01*
X33425711Y22552000D02*
X27024000Y22552000D01*
X22029354Y27546646D02*
X22029354Y28906457D01*
X34729354Y21248357D02*
X33425711Y22552000D01*
D15*
X18134000Y16456000D02*
X24634000Y16456000D01*
X29936997Y16456000D02*
X34729354Y21248357D01*
X24634000Y16456000D02*
X29936997Y16456000D01*
D16*
%TO.N,Net-(R10-Pad1)*%
X41625454Y30925757D02*
X48125454Y30925757D01*
X58270457Y21196646D02*
X61314000Y24240189D01*
X48125454Y30925757D02*
X50900000Y33700303D01*
X50900000Y33700303D02*
X50900000Y38554000D01*
X50900000Y38554000D02*
X50900000Y42872000D01*
X50900000Y42872000D02*
X57758000Y42872000D01*
X61314000Y39316000D02*
X61314000Y35760000D01*
X57758000Y42872000D02*
X61314000Y39316000D01*
X61314000Y35760000D02*
X61314000Y24240189D01*
X61314000Y36268000D02*
X61314000Y35760000D01*
X19404000Y47952000D02*
X19404000Y35341811D01*
X21154000Y49702000D02*
X19404000Y47952000D01*
X26162000Y49702000D02*
X21154000Y49702000D01*
X29162000Y46702000D02*
X26162000Y49702000D01*
X50900000Y42964000D02*
X47162000Y46702000D01*
X19404000Y35341811D02*
X22029354Y32716457D01*
X47162000Y46702000D02*
X29162000Y46702000D01*
X50900000Y42872000D02*
X50900000Y42964000D01*
%TO.N,Net-(R11-Pad1)*%
X41625454Y20765757D02*
X48125454Y20765757D01*
X48556343Y21196646D02*
X48125454Y20765757D01*
X25500000Y33055811D02*
X22029354Y36526457D01*
X25500000Y33055811D02*
X25500000Y26362000D01*
X25500000Y26362000D02*
X28040000Y23822000D01*
X38569211Y23822000D02*
X41625454Y20765757D01*
X28040000Y23822000D02*
X38569211Y23822000D01*
X48125454Y20765757D02*
X51145757Y20765757D01*
X51576646Y21196646D02*
X54460457Y21196646D01*
X51145757Y20765757D02*
X51576646Y21196646D01*
%TO.N,Net-(R13-Pad1)*%
X53055454Y30925757D02*
X59555454Y30925757D01*
X59555454Y33200546D02*
X56488000Y36268000D01*
X59555454Y30925757D02*
X59555454Y33200546D01*
X28162000Y28702000D02*
X50831697Y28702000D01*
X27662000Y29202000D02*
X28162000Y28702000D01*
X50831697Y28702000D02*
X53055454Y30925757D01*
X27662000Y34703811D02*
X27662000Y29202000D01*
X22029354Y40336457D02*
X27662000Y34703811D01*
%TD*%
D17*
%TO.N,GND*%
X62507255Y55474406D02*
X62929781Y55346838D01*
X63319482Y55139631D01*
X63661513Y54860676D01*
X63942849Y54520601D01*
X64152771Y54132356D01*
X64283285Y53710735D01*
X64333000Y53237726D01*
X64333001Y3291957D01*
X64286406Y2816745D01*
X64158838Y2394219D01*
X63951631Y2004518D01*
X63672676Y1662487D01*
X63332601Y1381151D01*
X62944356Y1171229D01*
X62522737Y1040715D01*
X62049726Y991000D01*
X3103947Y991000D01*
X2628745Y1037594D01*
X2206219Y1165162D01*
X1816518Y1372369D01*
X1474487Y1651324D01*
X1193151Y1991399D01*
X983229Y2379644D01*
X852715Y2801263D01*
X803000Y3274274D01*
X803000Y3977029D01*
X1323858Y3977029D01*
X1323858Y3534971D01*
X1410100Y3101408D01*
X1579268Y2693000D01*
X1824861Y2325443D01*
X2137443Y2012861D01*
X2505000Y1767268D01*
X2913408Y1598100D01*
X3346971Y1511858D01*
X3789029Y1511858D01*
X4222592Y1598100D01*
X4631000Y1767268D01*
X4998557Y2012861D01*
X5311139Y2325443D01*
X5556732Y2693000D01*
X5725900Y3101408D01*
X5812142Y3534971D01*
X5812142Y3977029D01*
X59323858Y3977029D01*
X59323858Y3534971D01*
X59410100Y3101408D01*
X59579268Y2693000D01*
X59824861Y2325443D01*
X60137443Y2012861D01*
X60505000Y1767268D01*
X60913408Y1598100D01*
X61346971Y1511858D01*
X61789029Y1511858D01*
X62222592Y1598100D01*
X62631000Y1767268D01*
X62998557Y2012861D01*
X63311139Y2325443D01*
X63556732Y2693000D01*
X63725900Y3101408D01*
X63812142Y3534971D01*
X63812142Y3977029D01*
X63725900Y4410592D01*
X63556732Y4819000D01*
X63311139Y5186557D01*
X62998557Y5499139D01*
X62631000Y5744732D01*
X62222592Y5913900D01*
X61789029Y6000142D01*
X61346971Y6000142D01*
X60913408Y5913900D01*
X60505000Y5744732D01*
X60137443Y5499139D01*
X59824861Y5186557D01*
X59579268Y4819000D01*
X59410100Y4410592D01*
X59323858Y3977029D01*
X5812142Y3977029D01*
X5725900Y4410592D01*
X5556732Y4819000D01*
X5311139Y5186557D01*
X4998557Y5499139D01*
X4631000Y5744732D01*
X4222592Y5913900D01*
X3789029Y6000142D01*
X3346971Y6000142D01*
X2913408Y5913900D01*
X2505000Y5744732D01*
X2137443Y5499139D01*
X1824861Y5186557D01*
X1579268Y4819000D01*
X1410100Y4410592D01*
X1323858Y3977029D01*
X803000Y3977029D01*
X803000Y10820587D01*
X6002192Y10820587D01*
X6097956Y10556186D01*
X6387571Y10415296D01*
X6699108Y10333616D01*
X7020595Y10314282D01*
X7339675Y10358039D01*
X7644088Y10463205D01*
X7818044Y10556186D01*
X7913808Y10820587D01*
X12502192Y10820587D01*
X12597956Y10556186D01*
X12887571Y10415296D01*
X13199108Y10333616D01*
X13520595Y10314282D01*
X13839675Y10358039D01*
X14144088Y10463205D01*
X14318044Y10556186D01*
X14413808Y10820587D01*
X17178192Y10820587D01*
X17273956Y10556186D01*
X17563571Y10415296D01*
X17875108Y10333616D01*
X18196595Y10314282D01*
X18515675Y10358039D01*
X18820088Y10463205D01*
X18994044Y10556186D01*
X19089808Y10820587D01*
X23678192Y10820587D01*
X23773956Y10556186D01*
X24063571Y10415296D01*
X24375108Y10333616D01*
X24696595Y10314282D01*
X25015675Y10358039D01*
X25320088Y10463205D01*
X25494044Y10556186D01*
X25589808Y10820587D01*
X24634000Y11776395D01*
X23678192Y10820587D01*
X19089808Y10820587D01*
X18134000Y11776395D01*
X17178192Y10820587D01*
X14413808Y10820587D01*
X13458000Y11776395D01*
X12502192Y10820587D01*
X7913808Y10820587D01*
X6958000Y11776395D01*
X6002192Y10820587D01*
X803000Y10820587D01*
X803000Y11893405D01*
X5316282Y11893405D01*
X5360039Y11574325D01*
X5465205Y11269912D01*
X5558186Y11095956D01*
X5822587Y11000192D01*
X6778395Y11956000D01*
X7137605Y11956000D01*
X8093413Y11000192D01*
X8357814Y11095956D01*
X8498704Y11385571D01*
X8580384Y11697108D01*
X8592189Y11893405D01*
X11816282Y11893405D01*
X11860039Y11574325D01*
X11965205Y11269912D01*
X12058186Y11095956D01*
X12322587Y11000192D01*
X13278395Y11956000D01*
X13637605Y11956000D01*
X14593413Y11000192D01*
X14857814Y11095956D01*
X14998704Y11385571D01*
X15080384Y11697108D01*
X15092189Y11893405D01*
X16492282Y11893405D01*
X16536039Y11574325D01*
X16641205Y11269912D01*
X16734186Y11095956D01*
X16998587Y11000192D01*
X17954395Y11956000D01*
X18313605Y11956000D01*
X19269413Y11000192D01*
X19533814Y11095956D01*
X19674704Y11385571D01*
X19756384Y11697108D01*
X19768189Y11893405D01*
X22992282Y11893405D01*
X23036039Y11574325D01*
X23141205Y11269912D01*
X23234186Y11095956D01*
X23498587Y11000192D01*
X24454395Y11956000D01*
X24813605Y11956000D01*
X25769413Y11000192D01*
X26033814Y11095956D01*
X26174704Y11385571D01*
X26256384Y11697108D01*
X26275718Y12018595D01*
X26231961Y12337675D01*
X26126795Y12642088D01*
X26033814Y12816044D01*
X25769413Y12911808D01*
X24813605Y11956000D01*
X24454395Y11956000D01*
X23498587Y12911808D01*
X23234186Y12816044D01*
X23093296Y12526429D01*
X23011616Y12214892D01*
X22992282Y11893405D01*
X19768189Y11893405D01*
X19775718Y12018595D01*
X19731961Y12337675D01*
X19626795Y12642088D01*
X19533814Y12816044D01*
X19269413Y12911808D01*
X18313605Y11956000D01*
X17954395Y11956000D01*
X16998587Y12911808D01*
X16734186Y12816044D01*
X16593296Y12526429D01*
X16511616Y12214892D01*
X16492282Y11893405D01*
X15092189Y11893405D01*
X15099718Y12018595D01*
X15055961Y12337675D01*
X14950795Y12642088D01*
X14857814Y12816044D01*
X14593413Y12911808D01*
X13637605Y11956000D01*
X13278395Y11956000D01*
X12322587Y12911808D01*
X12058186Y12816044D01*
X11917296Y12526429D01*
X11835616Y12214892D01*
X11816282Y11893405D01*
X8592189Y11893405D01*
X8599718Y12018595D01*
X8555961Y12337675D01*
X8450795Y12642088D01*
X8357814Y12816044D01*
X8093413Y12911808D01*
X7137605Y11956000D01*
X6778395Y11956000D01*
X5822587Y12911808D01*
X5558186Y12816044D01*
X5417296Y12526429D01*
X5335616Y12214892D01*
X5316282Y11893405D01*
X803000Y11893405D01*
X803000Y13091413D01*
X6002192Y13091413D01*
X6958000Y12135605D01*
X7913808Y13091413D01*
X12502192Y13091413D01*
X13458000Y12135605D01*
X14413808Y13091413D01*
X17178192Y13091413D01*
X18134000Y12135605D01*
X19089808Y13091413D01*
X23678192Y13091413D01*
X24634000Y12135605D01*
X25589808Y13091413D01*
X25494044Y13355814D01*
X25204429Y13496704D01*
X24892892Y13578384D01*
X24571405Y13597718D01*
X24252325Y13553961D01*
X23947912Y13448795D01*
X23773956Y13355814D01*
X23678192Y13091413D01*
X19089808Y13091413D01*
X18994044Y13355814D01*
X18704429Y13496704D01*
X18392892Y13578384D01*
X18071405Y13597718D01*
X17752325Y13553961D01*
X17447912Y13448795D01*
X17273956Y13355814D01*
X17178192Y13091413D01*
X14413808Y13091413D01*
X14318044Y13355814D01*
X14028429Y13496704D01*
X13716892Y13578384D01*
X13395405Y13597718D01*
X13076325Y13553961D01*
X12771912Y13448795D01*
X12597956Y13355814D01*
X12502192Y13091413D01*
X7913808Y13091413D01*
X7818044Y13355814D01*
X7528429Y13496704D01*
X7216892Y13578384D01*
X6895405Y13597718D01*
X6576325Y13553961D01*
X6271912Y13448795D01*
X6097956Y13355814D01*
X6002192Y13091413D01*
X803000Y13091413D01*
X803000Y16617033D01*
X5323000Y16617033D01*
X5323000Y16294967D01*
X5385832Y15979088D01*
X5509082Y15681537D01*
X5688013Y15413748D01*
X5915748Y15186013D01*
X6183537Y15007082D01*
X6481088Y14883832D01*
X6796967Y14821000D01*
X7119033Y14821000D01*
X7434912Y14883832D01*
X7732463Y15007082D01*
X8000252Y15186013D01*
X8227987Y15413748D01*
X8406918Y15681537D01*
X8412909Y15696000D01*
X12003091Y15696000D01*
X12009082Y15681537D01*
X12188013Y15413748D01*
X12415748Y15186013D01*
X12683537Y15007082D01*
X12981088Y14883832D01*
X13296967Y14821000D01*
X13619033Y14821000D01*
X13934912Y14883832D01*
X14232463Y15007082D01*
X14500252Y15186013D01*
X14727987Y15413748D01*
X14906918Y15681537D01*
X15030168Y15979088D01*
X15093000Y16294967D01*
X15093000Y16617033D01*
X15030168Y16932912D01*
X14906918Y17230463D01*
X14727987Y17498252D01*
X14500252Y17725987D01*
X14232463Y17904918D01*
X14218000Y17910909D01*
X14218000Y20609199D01*
X17945259Y24336457D01*
X20811311Y24336457D01*
X20914717Y24181698D01*
X21114595Y23981820D01*
X21349627Y23824777D01*
X21610780Y23716604D01*
X21888019Y23661457D01*
X22170689Y23661457D01*
X22248840Y23677002D01*
X25205301Y20720541D01*
X25229879Y20690593D01*
X25259827Y20666015D01*
X25259830Y20666012D01*
X25289202Y20641907D01*
X25349410Y20592495D01*
X25485783Y20519603D01*
X25599315Y20485163D01*
X25633755Y20474716D01*
X25648133Y20473300D01*
X25749082Y20463357D01*
X25749089Y20463357D01*
X25787642Y20459560D01*
X25826195Y20463357D01*
X29718015Y20463357D01*
X29804717Y20333598D01*
X30004595Y20133720D01*
X30239627Y19976677D01*
X30500780Y19868504D01*
X30778019Y19813357D01*
X31060689Y19813357D01*
X31337928Y19868504D01*
X31599081Y19976677D01*
X31834113Y20133720D01*
X32033991Y20333598D01*
X32191034Y20568630D01*
X32299207Y20829783D01*
X32354354Y21107022D01*
X32354354Y21389692D01*
X32299207Y21666931D01*
X32257757Y21767000D01*
X33100554Y21767000D01*
X33324800Y21542754D01*
X33294354Y21389692D01*
X33294354Y21107022D01*
X33330666Y20924471D01*
X29622196Y17216000D01*
X26088909Y17216000D01*
X26082918Y17230463D01*
X25903987Y17498252D01*
X25676252Y17725987D01*
X25408463Y17904918D01*
X25110912Y18028168D01*
X24795033Y18091000D01*
X24472967Y18091000D01*
X24157088Y18028168D01*
X23859537Y17904918D01*
X23591748Y17725987D01*
X23364013Y17498252D01*
X23185082Y17230463D01*
X23179091Y17216000D01*
X19588909Y17216000D01*
X19582918Y17230463D01*
X19403987Y17498252D01*
X19176252Y17725987D01*
X18908463Y17904918D01*
X18610912Y18028168D01*
X18295033Y18091000D01*
X17972967Y18091000D01*
X17657088Y18028168D01*
X17359537Y17904918D01*
X17091748Y17725987D01*
X16864013Y17498252D01*
X16685082Y17230463D01*
X16561832Y16932912D01*
X16499000Y16617033D01*
X16499000Y16294967D01*
X16561832Y15979088D01*
X16685082Y15681537D01*
X16864013Y15413748D01*
X17091748Y15186013D01*
X17359537Y15007082D01*
X17657088Y14883832D01*
X17972967Y14821000D01*
X18295033Y14821000D01*
X18610912Y14883832D01*
X18908463Y15007082D01*
X19176252Y15186013D01*
X19403987Y15413748D01*
X19582918Y15681537D01*
X19588909Y15696000D01*
X23179091Y15696000D01*
X23185082Y15681537D01*
X23364013Y15413748D01*
X23591748Y15186013D01*
X23859537Y15007082D01*
X24157088Y14883832D01*
X24472967Y14821000D01*
X24795033Y14821000D01*
X25110912Y14883832D01*
X25408463Y15007082D01*
X25592937Y15130344D01*
X40669646Y15130344D01*
X40765410Y14865943D01*
X41055025Y14725053D01*
X41366562Y14643373D01*
X41688049Y14624039D01*
X42007129Y14667796D01*
X42311542Y14772962D01*
X42485498Y14865943D01*
X42581262Y15130344D01*
X47169646Y15130344D01*
X47265410Y14865943D01*
X47555025Y14725053D01*
X47866562Y14643373D01*
X48188049Y14624039D01*
X48507129Y14667796D01*
X48811542Y14772962D01*
X48985498Y14865943D01*
X49081262Y15130344D01*
X48125454Y16086152D01*
X47169646Y15130344D01*
X42581262Y15130344D01*
X41625454Y16086152D01*
X40669646Y15130344D01*
X25592937Y15130344D01*
X25676252Y15186013D01*
X25903987Y15413748D01*
X26082918Y15681537D01*
X26088909Y15696000D01*
X29899675Y15696000D01*
X29936997Y15692324D01*
X29974319Y15696000D01*
X29974330Y15696000D01*
X30085983Y15706997D01*
X30229244Y15750454D01*
X30361273Y15821026D01*
X30476998Y15915999D01*
X30500801Y15945003D01*
X30758960Y16203162D01*
X39983736Y16203162D01*
X40027493Y15884082D01*
X40132659Y15579669D01*
X40225640Y15405713D01*
X40490041Y15309949D01*
X41445849Y16265757D01*
X41805059Y16265757D01*
X42760867Y15309949D01*
X43025268Y15405713D01*
X43166158Y15695328D01*
X43247838Y16006865D01*
X43259643Y16203162D01*
X46483736Y16203162D01*
X46527493Y15884082D01*
X46632659Y15579669D01*
X46725640Y15405713D01*
X46990041Y15309949D01*
X47945849Y16265757D01*
X48305059Y16265757D01*
X49260867Y15309949D01*
X49525268Y15405713D01*
X49666158Y15695328D01*
X49747838Y16006865D01*
X49767172Y16328352D01*
X49723415Y16647432D01*
X49618249Y16951845D01*
X49525268Y17125801D01*
X49260867Y17221565D01*
X48305059Y16265757D01*
X47945849Y16265757D01*
X46990041Y17221565D01*
X46725640Y17125801D01*
X46584750Y16836186D01*
X46503070Y16524649D01*
X46483736Y16203162D01*
X43259643Y16203162D01*
X43267172Y16328352D01*
X43223415Y16647432D01*
X43118249Y16951845D01*
X43025268Y17125801D01*
X42760867Y17221565D01*
X41805059Y16265757D01*
X41445849Y16265757D01*
X40490041Y17221565D01*
X40225640Y17125801D01*
X40084750Y16836186D01*
X40003070Y16524649D01*
X39983736Y16203162D01*
X30758960Y16203162D01*
X31956968Y17401170D01*
X40669646Y17401170D01*
X41625454Y16445362D01*
X42581262Y17401170D01*
X47169646Y17401170D01*
X48125454Y16445362D01*
X49081262Y17401170D01*
X48985498Y17665571D01*
X48695883Y17806461D01*
X48384346Y17888141D01*
X48062859Y17907475D01*
X47743779Y17863718D01*
X47439366Y17758552D01*
X47265410Y17665571D01*
X47169646Y17401170D01*
X42581262Y17401170D01*
X42485498Y17665571D01*
X42195883Y17806461D01*
X41884346Y17888141D01*
X41562859Y17907475D01*
X41243779Y17863718D01*
X40939366Y17758552D01*
X40765410Y17665571D01*
X40669646Y17401170D01*
X31956968Y17401170D01*
X34405468Y19849669D01*
X34588019Y19813357D01*
X34870689Y19813357D01*
X35147928Y19868504D01*
X35409081Y19976677D01*
X35644113Y20133720D01*
X35843991Y20333598D01*
X36001034Y20568630D01*
X36109207Y20829783D01*
X36164354Y21107022D01*
X36164354Y21389692D01*
X36109207Y21666931D01*
X36001034Y21928084D01*
X35843991Y22163116D01*
X35644113Y22362994D01*
X35409081Y22520037D01*
X35147928Y22628210D01*
X34870689Y22683357D01*
X34588019Y22683357D01*
X34434957Y22652911D01*
X34050868Y23037000D01*
X38244054Y23037000D01*
X40050814Y21230240D01*
X39990454Y20926790D01*
X39990454Y20604724D01*
X40053286Y20288845D01*
X40176536Y19991294D01*
X40355467Y19723505D01*
X40583202Y19495770D01*
X40850991Y19316839D01*
X41148542Y19193589D01*
X41464421Y19130757D01*
X41786487Y19130757D01*
X42102366Y19193589D01*
X42399917Y19316839D01*
X42667706Y19495770D01*
X42895441Y19723505D01*
X43067331Y19980757D01*
X46683577Y19980757D01*
X46855467Y19723505D01*
X47083202Y19495770D01*
X47350991Y19316839D01*
X47648542Y19193589D01*
X47964421Y19130757D01*
X48286487Y19130757D01*
X48602366Y19193589D01*
X48899917Y19316839D01*
X49167706Y19495770D01*
X49395441Y19723505D01*
X49567331Y19980757D01*
X51107204Y19980757D01*
X51145757Y19976960D01*
X51184310Y19980757D01*
X51184318Y19980757D01*
X51299644Y19992116D01*
X51447617Y20037003D01*
X51583990Y20109895D01*
X51703521Y20207993D01*
X51728104Y20237947D01*
X51901803Y20411646D01*
X53259118Y20411646D01*
X53345820Y20281887D01*
X53545698Y20082009D01*
X53780730Y19924966D01*
X54041883Y19816793D01*
X54319122Y19761646D01*
X54601792Y19761646D01*
X54879031Y19816793D01*
X55140184Y19924966D01*
X55375216Y20082009D01*
X55575094Y20281887D01*
X55732137Y20516919D01*
X55840310Y20778072D01*
X55895457Y21055311D01*
X55895457Y21337981D01*
X55840310Y21615220D01*
X55732137Y21876373D01*
X55575094Y22111405D01*
X55375216Y22311283D01*
X55140184Y22468326D01*
X54879031Y22576499D01*
X54601792Y22631646D01*
X54319122Y22631646D01*
X54041883Y22576499D01*
X53780730Y22468326D01*
X53545698Y22311283D01*
X53345820Y22111405D01*
X53259118Y21981646D01*
X51615198Y21981646D01*
X51576645Y21985443D01*
X51538092Y21981646D01*
X51538085Y21981646D01*
X51422759Y21970287D01*
X51274786Y21925400D01*
X51138413Y21852508D01*
X51018882Y21754410D01*
X50994301Y21724458D01*
X50820600Y21550757D01*
X49567331Y21550757D01*
X49395441Y21808009D01*
X49167706Y22035744D01*
X48899917Y22214675D01*
X48602366Y22337925D01*
X48286487Y22400757D01*
X47964421Y22400757D01*
X47648542Y22337925D01*
X47350991Y22214675D01*
X47083202Y22035744D01*
X46855467Y21808009D01*
X46683577Y21550757D01*
X43067331Y21550757D01*
X42895441Y21808009D01*
X42667706Y22035744D01*
X42399917Y22214675D01*
X42102366Y22337925D01*
X41786487Y22400757D01*
X41464421Y22400757D01*
X41160971Y22340397D01*
X39151558Y24349810D01*
X39126975Y24379764D01*
X39007444Y24477862D01*
X38871071Y24550754D01*
X38723098Y24595641D01*
X38607772Y24607000D01*
X38607764Y24607000D01*
X38569211Y24610797D01*
X38530658Y24607000D01*
X28365158Y24607000D01*
X27681814Y25290344D01*
X29239646Y25290344D01*
X29335410Y25025943D01*
X29625025Y24885053D01*
X29936562Y24803373D01*
X30258049Y24784039D01*
X30577129Y24827796D01*
X30881542Y24932962D01*
X31055498Y25025943D01*
X31151262Y25290344D01*
X35739646Y25290344D01*
X35835410Y25025943D01*
X36125025Y24885053D01*
X36436562Y24803373D01*
X36758049Y24784039D01*
X37077129Y24827796D01*
X37381542Y24932962D01*
X37555498Y25025943D01*
X37651262Y25290344D01*
X40669646Y25290344D01*
X40765410Y25025943D01*
X41055025Y24885053D01*
X41366562Y24803373D01*
X41688049Y24784039D01*
X42007129Y24827796D01*
X42311542Y24932962D01*
X42485498Y25025943D01*
X42581262Y25290344D01*
X47169646Y25290344D01*
X47265410Y25025943D01*
X47555025Y24885053D01*
X47866562Y24803373D01*
X48188049Y24784039D01*
X48507129Y24827796D01*
X48811542Y24932962D01*
X48985498Y25025943D01*
X49081262Y25290344D01*
X52099646Y25290344D01*
X52195410Y25025943D01*
X52485025Y24885053D01*
X52796562Y24803373D01*
X53118049Y24784039D01*
X53437129Y24827796D01*
X53741542Y24932962D01*
X53915498Y25025943D01*
X54011262Y25290344D01*
X53055454Y26246152D01*
X52099646Y25290344D01*
X49081262Y25290344D01*
X48125454Y26246152D01*
X47169646Y25290344D01*
X42581262Y25290344D01*
X41625454Y26246152D01*
X40669646Y25290344D01*
X37651262Y25290344D01*
X36695454Y26246152D01*
X35739646Y25290344D01*
X31151262Y25290344D01*
X30195454Y26246152D01*
X29239646Y25290344D01*
X27681814Y25290344D01*
X26608996Y26363162D01*
X28553736Y26363162D01*
X28597493Y26044082D01*
X28702659Y25739669D01*
X28795640Y25565713D01*
X29060041Y25469949D01*
X30015849Y26425757D01*
X30375059Y26425757D01*
X31330867Y25469949D01*
X31595268Y25565713D01*
X31736158Y25855328D01*
X31817838Y26166865D01*
X31829643Y26363162D01*
X35053736Y26363162D01*
X35097493Y26044082D01*
X35202659Y25739669D01*
X35295640Y25565713D01*
X35560041Y25469949D01*
X36515849Y26425757D01*
X36875059Y26425757D01*
X37830867Y25469949D01*
X38095268Y25565713D01*
X38236158Y25855328D01*
X38317838Y26166865D01*
X38329643Y26363162D01*
X39983736Y26363162D01*
X40027493Y26044082D01*
X40132659Y25739669D01*
X40225640Y25565713D01*
X40490041Y25469949D01*
X41445849Y26425757D01*
X41805059Y26425757D01*
X42760867Y25469949D01*
X43025268Y25565713D01*
X43166158Y25855328D01*
X43247838Y26166865D01*
X43259643Y26363162D01*
X46483736Y26363162D01*
X46527493Y26044082D01*
X46632659Y25739669D01*
X46725640Y25565713D01*
X46990041Y25469949D01*
X47945849Y26425757D01*
X48305059Y26425757D01*
X49260867Y25469949D01*
X49525268Y25565713D01*
X49666158Y25855328D01*
X49747838Y26166865D01*
X49759643Y26363162D01*
X51413736Y26363162D01*
X51457493Y26044082D01*
X51562659Y25739669D01*
X51655640Y25565713D01*
X51920041Y25469949D01*
X52875849Y26425757D01*
X53235059Y26425757D01*
X54190867Y25469949D01*
X54455268Y25565713D01*
X54596158Y25855328D01*
X54677838Y26166865D01*
X54689643Y26363162D01*
X57913736Y26363162D01*
X57957493Y26044082D01*
X58062659Y25739669D01*
X58155640Y25565713D01*
X58420041Y25469949D01*
X59375849Y26425757D01*
X58420041Y27381565D01*
X58155640Y27285801D01*
X58014750Y26996186D01*
X57933070Y26684649D01*
X57913736Y26363162D01*
X54689643Y26363162D01*
X54697172Y26488352D01*
X54653415Y26807432D01*
X54548249Y27111845D01*
X54455268Y27285801D01*
X54190867Y27381565D01*
X53235059Y26425757D01*
X52875849Y26425757D01*
X51920041Y27381565D01*
X51655640Y27285801D01*
X51514750Y26996186D01*
X51433070Y26684649D01*
X51413736Y26363162D01*
X49759643Y26363162D01*
X49767172Y26488352D01*
X49723415Y26807432D01*
X49618249Y27111845D01*
X49525268Y27285801D01*
X49260867Y27381565D01*
X48305059Y26425757D01*
X47945849Y26425757D01*
X46990041Y27381565D01*
X46725640Y27285801D01*
X46584750Y26996186D01*
X46503070Y26684649D01*
X46483736Y26363162D01*
X43259643Y26363162D01*
X43267172Y26488352D01*
X43223415Y26807432D01*
X43118249Y27111845D01*
X43025268Y27285801D01*
X42760867Y27381565D01*
X41805059Y26425757D01*
X41445849Y26425757D01*
X40490041Y27381565D01*
X40225640Y27285801D01*
X40084750Y26996186D01*
X40003070Y26684649D01*
X39983736Y26363162D01*
X38329643Y26363162D01*
X38337172Y26488352D01*
X38293415Y26807432D01*
X38188249Y27111845D01*
X38095268Y27285801D01*
X37830867Y27381565D01*
X36875059Y26425757D01*
X36515849Y26425757D01*
X35560041Y27381565D01*
X35295640Y27285801D01*
X35154750Y26996186D01*
X35073070Y26684649D01*
X35053736Y26363162D01*
X31829643Y26363162D01*
X31837172Y26488352D01*
X31793415Y26807432D01*
X31688249Y27111845D01*
X31595268Y27285801D01*
X31330867Y27381565D01*
X30375059Y26425757D01*
X30015849Y26425757D01*
X29060041Y27381565D01*
X28795640Y27285801D01*
X28654750Y26996186D01*
X28573070Y26684649D01*
X28553736Y26363162D01*
X26608996Y26363162D01*
X26285000Y26687157D01*
X26285000Y33017255D01*
X26288797Y33055811D01*
X26285000Y33094371D01*
X26285000Y33094372D01*
X26277306Y33172491D01*
X26273642Y33209698D01*
X26228754Y33357671D01*
X26210772Y33391313D01*
X26155862Y33494044D01*
X26057764Y33613575D01*
X26027811Y33638157D01*
X23433908Y36232060D01*
X23464354Y36385122D01*
X23464354Y36667792D01*
X23409207Y36945031D01*
X23301034Y37206184D01*
X23143991Y37441216D01*
X22944113Y37641094D01*
X22709081Y37798137D01*
X22447928Y37906310D01*
X22170689Y37961457D01*
X21888019Y37961457D01*
X21610780Y37906310D01*
X21349627Y37798137D01*
X21114595Y37641094D01*
X20914717Y37441216D01*
X20757674Y37206184D01*
X20649501Y36945031D01*
X20594354Y36667792D01*
X20594354Y36385122D01*
X20649501Y36107883D01*
X20757674Y35846730D01*
X20914717Y35611698D01*
X21114595Y35411820D01*
X21349627Y35254777D01*
X21610780Y35146604D01*
X21888019Y35091457D01*
X22170689Y35091457D01*
X22323751Y35121903D01*
X24715000Y32730654D01*
X24715001Y26400563D01*
X24711203Y26362000D01*
X24726359Y26208114D01*
X24771246Y26060141D01*
X24771247Y26060140D01*
X24844139Y25923767D01*
X24884690Y25874356D01*
X24917655Y25834188D01*
X24917659Y25834184D01*
X24942237Y25804236D01*
X24972185Y25779658D01*
X27414842Y23337000D01*
X27349158Y23337000D01*
X22914274Y27771883D01*
X22944113Y27791820D01*
X23143991Y27991698D01*
X23301034Y28226730D01*
X23409207Y28487883D01*
X23464354Y28765122D01*
X23464354Y29047792D01*
X23409207Y29325031D01*
X23301034Y29586184D01*
X23143991Y29821216D01*
X22944113Y30021094D01*
X22709081Y30178137D01*
X22447928Y30286310D01*
X22170689Y30341457D01*
X21888019Y30341457D01*
X21610780Y30286310D01*
X21349627Y30178137D01*
X21114595Y30021094D01*
X20914717Y29821216D01*
X20757674Y29586184D01*
X20649501Y29325031D01*
X20594354Y29047792D01*
X20594354Y28765122D01*
X20649501Y28487883D01*
X20757674Y28226730D01*
X20914717Y27991698D01*
X21114595Y27791820D01*
X21244354Y27705118D01*
X21244354Y27585199D01*
X21240557Y27546646D01*
X21244354Y27508093D01*
X21244354Y27508086D01*
X21255713Y27392760D01*
X21300600Y27244787D01*
X21373492Y27108414D01*
X21471590Y26988882D01*
X21501544Y26964299D01*
X21934386Y26531457D01*
X21888019Y26531457D01*
X21610780Y26476310D01*
X21349627Y26368137D01*
X21114595Y26211094D01*
X20914717Y26011216D01*
X20811311Y25856457D01*
X17667779Y25856457D01*
X17630456Y25860133D01*
X17593133Y25856457D01*
X17593124Y25856457D01*
X17481471Y25845460D01*
X17338210Y25802003D01*
X17206181Y25731431D01*
X17090456Y25636458D01*
X17066658Y25607460D01*
X12946998Y21487799D01*
X12918000Y21464001D01*
X12894202Y21435003D01*
X12894201Y21435002D01*
X12823026Y21348276D01*
X12752454Y21216246D01*
X12708998Y21072985D01*
X12694324Y20924000D01*
X12698001Y20886668D01*
X12698000Y17910909D01*
X12683537Y17904918D01*
X12415748Y17725987D01*
X12188013Y17498252D01*
X12009082Y17230463D01*
X12003091Y17216000D01*
X8412909Y17216000D01*
X8406918Y17230463D01*
X8227987Y17498252D01*
X8000252Y17725987D01*
X7732463Y17904918D01*
X7434912Y18028168D01*
X7119033Y18091000D01*
X6796967Y18091000D01*
X6481088Y18028168D01*
X6183537Y17904918D01*
X5915748Y17725987D01*
X5688013Y17498252D01*
X5509082Y17230463D01*
X5385832Y16932912D01*
X5323000Y16617033D01*
X803000Y16617033D01*
X803000Y41182000D01*
X3437928Y41182000D01*
X3437928Y39482000D01*
X3450188Y39357518D01*
X3486498Y39237820D01*
X3545463Y39127506D01*
X3624815Y39030815D01*
X3721506Y38951463D01*
X3831820Y38892498D01*
X3904380Y38870487D01*
X3772525Y38738632D01*
X3610010Y38495411D01*
X3498068Y38225158D01*
X3441000Y37938260D01*
X3441000Y37645740D01*
X3498068Y37358842D01*
X3610010Y37088589D01*
X3772525Y36845368D01*
X3979368Y36638525D01*
X4153760Y36522000D01*
X3979368Y36405475D01*
X3772525Y36198632D01*
X3610010Y35955411D01*
X3498068Y35685158D01*
X3441000Y35398260D01*
X3441000Y35105740D01*
X3498068Y34818842D01*
X3610010Y34548589D01*
X3772525Y34305368D01*
X3979368Y34098525D01*
X4153760Y33982000D01*
X3979368Y33865475D01*
X3772525Y33658632D01*
X3610010Y33415411D01*
X3498068Y33145158D01*
X3441000Y32858260D01*
X3441000Y32565740D01*
X3498068Y32278842D01*
X3610010Y32008589D01*
X3772525Y31765368D01*
X3979368Y31558525D01*
X4153760Y31442000D01*
X3979368Y31325475D01*
X3772525Y31118632D01*
X3610010Y30875411D01*
X3498068Y30605158D01*
X3441000Y30318260D01*
X3441000Y30025740D01*
X3498068Y29738842D01*
X3610010Y29468589D01*
X3772525Y29225368D01*
X3979368Y29018525D01*
X4153760Y28902000D01*
X3979368Y28785475D01*
X3772525Y28578632D01*
X3610010Y28335411D01*
X3498068Y28065158D01*
X3441000Y27778260D01*
X3441000Y27485740D01*
X3498068Y27198842D01*
X3610010Y26928589D01*
X3772525Y26685368D01*
X3979368Y26478525D01*
X4153760Y26362000D01*
X3979368Y26245475D01*
X3772525Y26038632D01*
X3610010Y25795411D01*
X3498068Y25525158D01*
X3441000Y25238260D01*
X3441000Y24945740D01*
X3498068Y24658842D01*
X3610010Y24388589D01*
X3772525Y24145368D01*
X3979368Y23938525D01*
X4222589Y23776010D01*
X4492842Y23664068D01*
X4779740Y23607000D01*
X5072260Y23607000D01*
X5359158Y23664068D01*
X5629411Y23776010D01*
X5872632Y23938525D01*
X6079475Y24145368D01*
X6204178Y24332000D01*
X10654289Y24332000D01*
X10754717Y24181698D01*
X10954595Y23981820D01*
X11189627Y23824777D01*
X11450780Y23716604D01*
X11728019Y23661457D01*
X12010689Y23661457D01*
X12287928Y23716604D01*
X12549081Y23824777D01*
X12784113Y23981820D01*
X12983991Y24181698D01*
X13141034Y24416730D01*
X13249207Y24677883D01*
X13304354Y24955122D01*
X13304354Y25237792D01*
X13249207Y25515031D01*
X13141034Y25776184D01*
X12983991Y26011216D01*
X12784113Y26211094D01*
X12549081Y26368137D01*
X12287928Y26476310D01*
X12010689Y26531457D01*
X11728019Y26531457D01*
X11450780Y26476310D01*
X11189627Y26368137D01*
X10954595Y26211094D01*
X10754717Y26011216D01*
X10648333Y25852000D01*
X6204178Y25852000D01*
X6079475Y26038632D01*
X5872632Y26245475D01*
X5698240Y26362000D01*
X5872632Y26478525D01*
X6079475Y26685368D01*
X6204178Y26872000D01*
X10557575Y26872000D01*
X10594897Y26868324D01*
X10632219Y26872000D01*
X10632230Y26872000D01*
X10743883Y26882997D01*
X10887144Y26926454D01*
X11019173Y26997026D01*
X11134898Y27091999D01*
X11158700Y27121002D01*
X11545468Y27507769D01*
X11728019Y27471457D01*
X12010689Y27471457D01*
X12287928Y27526604D01*
X12549081Y27634777D01*
X12784113Y27791820D01*
X12983991Y27991698D01*
X13141034Y28226730D01*
X13249207Y28487883D01*
X13304354Y28765122D01*
X13304354Y29047792D01*
X13249207Y29325031D01*
X13141034Y29586184D01*
X12983991Y29821216D01*
X12784113Y30021094D01*
X12549081Y30178137D01*
X12287928Y30286310D01*
X12010689Y30341457D01*
X11728019Y30341457D01*
X11450780Y30286310D01*
X11189627Y30178137D01*
X10954595Y30021094D01*
X10754717Y29821216D01*
X10597674Y29586184D01*
X10489501Y29325031D01*
X10434354Y29047792D01*
X10434354Y28765122D01*
X10470666Y28582571D01*
X10280096Y28392000D01*
X6204178Y28392000D01*
X6079475Y28578632D01*
X5872632Y28785475D01*
X5698240Y28902000D01*
X5872632Y29018525D01*
X6079475Y29225368D01*
X6204178Y29412000D01*
X9287575Y29412000D01*
X9324897Y29408324D01*
X9362219Y29412000D01*
X9362230Y29412000D01*
X9473883Y29422997D01*
X9617144Y29466454D01*
X9749173Y29537026D01*
X9864898Y29631999D01*
X9888701Y29661003D01*
X11545468Y31317769D01*
X11728019Y31281457D01*
X12010689Y31281457D01*
X12287928Y31336604D01*
X12549081Y31444777D01*
X12784113Y31601820D01*
X12983991Y31801698D01*
X13141034Y32036730D01*
X13249207Y32297883D01*
X13304354Y32575122D01*
X13304354Y32857792D01*
X13249207Y33135031D01*
X13141034Y33396184D01*
X12983991Y33631216D01*
X12784113Y33831094D01*
X12549081Y33988137D01*
X12287928Y34096310D01*
X12010689Y34151457D01*
X11728019Y34151457D01*
X11450780Y34096310D01*
X11189627Y33988137D01*
X10954595Y33831094D01*
X10754717Y33631216D01*
X10597674Y33396184D01*
X10489501Y33135031D01*
X10434354Y32857792D01*
X10434354Y32575122D01*
X10470666Y32392571D01*
X9010096Y30932000D01*
X6204178Y30932000D01*
X6079475Y31118632D01*
X5872632Y31325475D01*
X5698240Y31442000D01*
X5872632Y31558525D01*
X6079475Y31765368D01*
X6204178Y31952000D01*
X8017575Y31952000D01*
X8054897Y31948324D01*
X8092219Y31952000D01*
X8092230Y31952000D01*
X8203883Y31962997D01*
X8347144Y32006454D01*
X8479173Y32077026D01*
X8594898Y32171999D01*
X8618701Y32201003D01*
X11545468Y35127769D01*
X11728019Y35091457D01*
X12010689Y35091457D01*
X12287928Y35146604D01*
X12549081Y35254777D01*
X12784113Y35411820D01*
X12983991Y35611698D01*
X13141034Y35846730D01*
X13249207Y36107883D01*
X13304354Y36385122D01*
X13304354Y36667792D01*
X13249207Y36945031D01*
X13141034Y37206184D01*
X12983991Y37441216D01*
X12784113Y37641094D01*
X12549081Y37798137D01*
X12287928Y37906310D01*
X12010689Y37961457D01*
X11728019Y37961457D01*
X11450780Y37906310D01*
X11189627Y37798137D01*
X10954595Y37641094D01*
X10754717Y37441216D01*
X10597674Y37206184D01*
X10489501Y36945031D01*
X10434354Y36667792D01*
X10434354Y36385122D01*
X10470666Y36202571D01*
X7740096Y33472000D01*
X6204178Y33472000D01*
X6079475Y33658632D01*
X5872632Y33865475D01*
X5698240Y33982000D01*
X5872632Y34098525D01*
X6079475Y34305368D01*
X6204178Y34492000D01*
X6747575Y34492000D01*
X6784897Y34488324D01*
X6822219Y34492000D01*
X6822230Y34492000D01*
X6933883Y34502997D01*
X7077144Y34546454D01*
X7209173Y34617026D01*
X7324898Y34711999D01*
X7348701Y34741003D01*
X11545468Y38937769D01*
X11728019Y38901457D01*
X12010689Y38901457D01*
X12287928Y38956604D01*
X12549081Y39064777D01*
X12784113Y39221820D01*
X12983991Y39421698D01*
X13141034Y39656730D01*
X13249207Y39917883D01*
X13304354Y40195122D01*
X13304354Y40477792D01*
X13249207Y40755031D01*
X13141034Y41016184D01*
X12983991Y41251216D01*
X12784113Y41451094D01*
X12549081Y41608137D01*
X12287928Y41716310D01*
X12010689Y41771457D01*
X11728019Y41771457D01*
X11450780Y41716310D01*
X11189627Y41608137D01*
X10954595Y41451094D01*
X10754717Y41251216D01*
X10597674Y41016184D01*
X10489501Y40755031D01*
X10434354Y40477792D01*
X10434354Y40195122D01*
X10470666Y40012571D01*
X6470096Y36012000D01*
X6204178Y36012000D01*
X6079475Y36198632D01*
X5872632Y36405475D01*
X5698240Y36522000D01*
X5872632Y36638525D01*
X6079475Y36845368D01*
X6204178Y37032000D01*
X6412678Y37032000D01*
X6450000Y37028324D01*
X6487322Y37032000D01*
X6487333Y37032000D01*
X6598986Y37042997D01*
X6742247Y37086454D01*
X6874276Y37157026D01*
X6990001Y37251999D01*
X7013804Y37281003D01*
X10263004Y40530202D01*
X10292001Y40553999D01*
X10386974Y40669724D01*
X10457546Y40801753D01*
X10501003Y40945014D01*
X10512000Y41056667D01*
X10512000Y41056676D01*
X10515676Y41093999D01*
X10512000Y41131322D01*
X10512000Y41714302D01*
X11545468Y42747769D01*
X11728019Y42711457D01*
X12010689Y42711457D01*
X12287928Y42766604D01*
X12549081Y42874777D01*
X12784113Y43031820D01*
X12983991Y43231698D01*
X13141034Y43466730D01*
X13249207Y43727883D01*
X13304354Y44005122D01*
X13304354Y44287792D01*
X13249207Y44565031D01*
X13141034Y44826184D01*
X12983991Y45061216D01*
X12784113Y45261094D01*
X12549081Y45418137D01*
X12287928Y45526310D01*
X12010689Y45581457D01*
X11728019Y45581457D01*
X11450780Y45526310D01*
X11189627Y45418137D01*
X10954595Y45261094D01*
X10754717Y45061216D01*
X10597674Y44826184D01*
X10512000Y44619348D01*
X10512000Y45524302D01*
X11545468Y46557769D01*
X11728019Y46521457D01*
X12010689Y46521457D01*
X12287928Y46576604D01*
X12549081Y46684777D01*
X12784113Y46841820D01*
X12983991Y47041698D01*
X13141034Y47276730D01*
X13249207Y47537883D01*
X13304354Y47815122D01*
X13304354Y48097792D01*
X13249207Y48375031D01*
X13141034Y48636184D01*
X12983991Y48871216D01*
X12784113Y49071094D01*
X12549081Y49228137D01*
X12287928Y49336310D01*
X12010689Y49391457D01*
X11728019Y49391457D01*
X11450780Y49336310D01*
X11189627Y49228137D01*
X10954595Y49071094D01*
X10754717Y48871216D01*
X10597674Y48636184D01*
X10489501Y48375031D01*
X10434354Y48097792D01*
X10434354Y47815122D01*
X10470666Y47632571D01*
X9241003Y46402907D01*
X9211999Y46379104D01*
X9156871Y46311929D01*
X9117026Y46263379D01*
X9069352Y46174188D01*
X9046454Y46131349D01*
X9002997Y45988088D01*
X8992000Y45876435D01*
X8992000Y45876425D01*
X8988324Y45839103D01*
X8992000Y45801780D01*
X8992001Y43948803D01*
X6389679Y41346480D01*
X6365502Y41426180D01*
X6306537Y41536494D01*
X6227185Y41633185D01*
X6130494Y41712537D01*
X6020180Y41771502D01*
X5900482Y41807812D01*
X5776000Y41820072D01*
X4076000Y41820072D01*
X3951518Y41807812D01*
X3831820Y41771502D01*
X3721506Y41712537D01*
X3624815Y41633185D01*
X3545463Y41536494D01*
X3486498Y41426180D01*
X3450188Y41306482D01*
X3437928Y41182000D01*
X803000Y41182000D01*
X803000Y43785110D01*
X3484524Y43785110D01*
X3529175Y43637901D01*
X3654359Y43375080D01*
X3828412Y43141731D01*
X4044645Y42946822D01*
X4294748Y42797843D01*
X4569109Y42700519D01*
X4799000Y42821186D01*
X4799000Y44015000D01*
X5053000Y44015000D01*
X5053000Y42821186D01*
X5282891Y42700519D01*
X5557252Y42797843D01*
X5807355Y42946822D01*
X6023588Y43141731D01*
X6197641Y43375080D01*
X6322825Y43637901D01*
X6367476Y43785110D01*
X6246155Y44015000D01*
X5053000Y44015000D01*
X4799000Y44015000D01*
X3605845Y44015000D01*
X3484524Y43785110D01*
X803000Y43785110D01*
X803000Y47532000D01*
X3437928Y47532000D01*
X3437928Y45832000D01*
X3450188Y45707518D01*
X3486498Y45587820D01*
X3545463Y45477506D01*
X3624815Y45380815D01*
X3721506Y45301463D01*
X3831820Y45242498D01*
X3912466Y45218034D01*
X3828412Y45142269D01*
X3654359Y44908920D01*
X3529175Y44646099D01*
X3484524Y44498890D01*
X3605845Y44269000D01*
X4799000Y44269000D01*
X4799000Y44289000D01*
X5053000Y44289000D01*
X5053000Y44269000D01*
X6246155Y44269000D01*
X6367476Y44498890D01*
X6322825Y44646099D01*
X6197641Y44908920D01*
X6023588Y45142269D01*
X5939534Y45218034D01*
X6020180Y45242498D01*
X6130494Y45301463D01*
X6227185Y45380815D01*
X6306537Y45477506D01*
X6365502Y45587820D01*
X6401812Y45707518D01*
X6414072Y45832000D01*
X6414072Y47095271D01*
X10066802Y50748000D01*
X27979199Y50748000D01*
X29435312Y49291886D01*
X29399000Y49109335D01*
X29399000Y48826665D01*
X29454147Y48549426D01*
X29562320Y48288273D01*
X29719363Y48053241D01*
X29919241Y47853363D01*
X30154273Y47696320D01*
X30415426Y47588147D01*
X30692665Y47533000D01*
X30975335Y47533000D01*
X31252574Y47588147D01*
X31513727Y47696320D01*
X31748759Y47853363D01*
X31948637Y48053241D01*
X32035339Y48183000D01*
X33696661Y48183000D01*
X33783363Y48053241D01*
X33983241Y47853363D01*
X34218273Y47696320D01*
X34479426Y47588147D01*
X34756665Y47533000D01*
X35039335Y47533000D01*
X35316574Y47588147D01*
X35577727Y47696320D01*
X35812759Y47853363D01*
X36012637Y48053241D01*
X36099339Y48183000D01*
X55286661Y48183000D01*
X55373363Y48053241D01*
X55573241Y47853363D01*
X55808273Y47696320D01*
X56069426Y47588147D01*
X56346665Y47533000D01*
X56629335Y47533000D01*
X56782397Y47563446D01*
X61799001Y42546842D01*
X61799001Y39941157D01*
X58340345Y43399812D01*
X58315764Y43429764D01*
X58196233Y43527862D01*
X58059860Y43600754D01*
X57911887Y43645641D01*
X57796561Y43657000D01*
X57796553Y43657000D01*
X57758000Y43660797D01*
X57719447Y43657000D01*
X51317158Y43657000D01*
X47744345Y47229812D01*
X47719764Y47259764D01*
X47600233Y47357862D01*
X47463860Y47430754D01*
X47315887Y47475641D01*
X47200561Y47487000D01*
X47200553Y47487000D01*
X47162000Y47490797D01*
X47123447Y47487000D01*
X29487157Y47487000D01*
X26744347Y50229810D01*
X26719764Y50259764D01*
X26600233Y50357862D01*
X26463860Y50430754D01*
X26315887Y50475641D01*
X26200561Y50487000D01*
X26200553Y50487000D01*
X26162000Y50490797D01*
X26123447Y50487000D01*
X21192556Y50487000D01*
X21154000Y50490797D01*
X21115444Y50487000D01*
X21115439Y50487000D01*
X21075026Y50483020D01*
X21000113Y50475642D01*
X20852140Y50430754D01*
X20715767Y50357862D01*
X20596236Y50259764D01*
X20571653Y50229810D01*
X18876190Y48534347D01*
X18846236Y48509764D01*
X18748138Y48390232D01*
X18675246Y48253859D01*
X18630359Y48105886D01*
X18619000Y47990560D01*
X18619000Y47990553D01*
X18615203Y47952000D01*
X18619000Y47913447D01*
X18619001Y35380374D01*
X18615203Y35341811D01*
X18630359Y35187925D01*
X18675246Y35039952D01*
X18693570Y35005671D01*
X18748139Y34903578D01*
X18785792Y34857698D01*
X18821655Y34813999D01*
X18821659Y34813995D01*
X18846237Y34784047D01*
X18876185Y34759469D01*
X20624800Y33010853D01*
X20594354Y32857792D01*
X20594354Y32575122D01*
X20649501Y32297883D01*
X20757674Y32036730D01*
X20914717Y31801698D01*
X21114595Y31601820D01*
X21349627Y31444777D01*
X21610780Y31336604D01*
X21888019Y31281457D01*
X22170689Y31281457D01*
X22447928Y31336604D01*
X22709081Y31444777D01*
X22944113Y31601820D01*
X23143991Y31801698D01*
X23301034Y32036730D01*
X23409207Y32297883D01*
X23464354Y32575122D01*
X23464354Y32857792D01*
X23409207Y33135031D01*
X23301034Y33396184D01*
X23143991Y33631216D01*
X22944113Y33831094D01*
X22709081Y33988137D01*
X22447928Y34096310D01*
X22170689Y34151457D01*
X21888019Y34151457D01*
X21734958Y34121011D01*
X20189000Y35666968D01*
X20189000Y47626843D01*
X20594354Y48032197D01*
X20594354Y47815122D01*
X20649501Y47537883D01*
X20757674Y47276730D01*
X20914717Y47041698D01*
X21114595Y46841820D01*
X21349627Y46684777D01*
X21610780Y46576604D01*
X21888019Y46521457D01*
X22170689Y46521457D01*
X22447928Y46576604D01*
X22709081Y46684777D01*
X22944113Y46841820D01*
X23143991Y47041698D01*
X23230693Y47171457D01*
X25082386Y47171457D01*
X34113000Y38140842D01*
X34113000Y37469339D01*
X33983241Y37382637D01*
X33783363Y37182759D01*
X33626320Y36947727D01*
X33518147Y36686574D01*
X33463000Y36409335D01*
X33463000Y36126665D01*
X33518147Y35849426D01*
X33626320Y35588273D01*
X33783363Y35353241D01*
X33983241Y35153363D01*
X34218273Y34996320D01*
X34479426Y34888147D01*
X34756665Y34833000D01*
X35039335Y34833000D01*
X35316574Y34888147D01*
X35577727Y34996320D01*
X35812759Y35153363D01*
X36012637Y35353241D01*
X36077519Y35450344D01*
X40669646Y35450344D01*
X40765410Y35185943D01*
X41055025Y35045053D01*
X41366562Y34963373D01*
X41688049Y34944039D01*
X42007129Y34987796D01*
X42311542Y35092962D01*
X42485498Y35185943D01*
X42581262Y35450344D01*
X47169646Y35450344D01*
X47265410Y35185943D01*
X47555025Y35045053D01*
X47866562Y34963373D01*
X48188049Y34944039D01*
X48507129Y34987796D01*
X48811542Y35092962D01*
X48985498Y35185943D01*
X49081262Y35450344D01*
X48125454Y36406152D01*
X47169646Y35450344D01*
X42581262Y35450344D01*
X41625454Y36406152D01*
X40669646Y35450344D01*
X36077519Y35450344D01*
X36169680Y35588273D01*
X36277853Y35849426D01*
X36333000Y36126665D01*
X36333000Y36409335D01*
X36310359Y36523162D01*
X39983736Y36523162D01*
X40027493Y36204082D01*
X40132659Y35899669D01*
X40225640Y35725713D01*
X40490041Y35629949D01*
X41445849Y36585757D01*
X41805059Y36585757D01*
X42760867Y35629949D01*
X43025268Y35725713D01*
X43166158Y36015328D01*
X43247838Y36326865D01*
X43259643Y36523162D01*
X46483736Y36523162D01*
X46527493Y36204082D01*
X46632659Y35899669D01*
X46725640Y35725713D01*
X46990041Y35629949D01*
X47945849Y36585757D01*
X48305059Y36585757D01*
X49260867Y35629949D01*
X49525268Y35725713D01*
X49666158Y36015328D01*
X49747838Y36326865D01*
X49767172Y36648352D01*
X49723415Y36967432D01*
X49618249Y37271845D01*
X49525268Y37445801D01*
X49260867Y37541565D01*
X48305059Y36585757D01*
X47945849Y36585757D01*
X46990041Y37541565D01*
X46725640Y37445801D01*
X46584750Y37156186D01*
X46503070Y36844649D01*
X46483736Y36523162D01*
X43259643Y36523162D01*
X43267172Y36648352D01*
X43223415Y36967432D01*
X43118249Y37271845D01*
X43025268Y37445801D01*
X42760867Y37541565D01*
X41805059Y36585757D01*
X41445849Y36585757D01*
X40490041Y37541565D01*
X40225640Y37445801D01*
X40084750Y37156186D01*
X40003070Y36844649D01*
X39983736Y36523162D01*
X36310359Y36523162D01*
X36277853Y36686574D01*
X36169680Y36947727D01*
X36012637Y37182759D01*
X35812759Y37382637D01*
X35683000Y37469339D01*
X35683000Y37721170D01*
X40669646Y37721170D01*
X41625454Y36765362D01*
X42581262Y37721170D01*
X47169646Y37721170D01*
X48125454Y36765362D01*
X49081262Y37721170D01*
X48985498Y37985571D01*
X48695883Y38126461D01*
X48384346Y38208141D01*
X48062859Y38227475D01*
X47743779Y38183718D01*
X47439366Y38078552D01*
X47265410Y37985571D01*
X47169646Y37721170D01*
X42581262Y37721170D01*
X42485498Y37985571D01*
X42195883Y38126461D01*
X41884346Y38208141D01*
X41562859Y38227475D01*
X41243779Y38183718D01*
X40939366Y38078552D01*
X40765410Y37985571D01*
X40669646Y37721170D01*
X35683000Y37721170D01*
X35683000Y38140843D01*
X37842914Y40300757D01*
X40183577Y40300757D01*
X40355467Y40043505D01*
X40583202Y39815770D01*
X40850991Y39636839D01*
X41148542Y39513589D01*
X41464421Y39450757D01*
X41786487Y39450757D01*
X42102366Y39513589D01*
X42399917Y39636839D01*
X42667706Y39815770D01*
X42895441Y40043505D01*
X43067331Y40300757D01*
X46683577Y40300757D01*
X46855467Y40043505D01*
X47083202Y39815770D01*
X47350991Y39636839D01*
X47648542Y39513589D01*
X47964421Y39450757D01*
X48286487Y39450757D01*
X48602366Y39513589D01*
X48899917Y39636839D01*
X49167706Y39815770D01*
X49395441Y40043505D01*
X49574372Y40311294D01*
X49697622Y40608845D01*
X49760454Y40924724D01*
X49760454Y41246790D01*
X49697622Y41562669D01*
X49574372Y41860220D01*
X49395441Y42128009D01*
X49167706Y42355744D01*
X48899917Y42534675D01*
X48602366Y42657925D01*
X48286487Y42720757D01*
X47964421Y42720757D01*
X47648542Y42657925D01*
X47350991Y42534675D01*
X47083202Y42355744D01*
X46855467Y42128009D01*
X46683577Y41870757D01*
X43067331Y41870757D01*
X42895441Y42128009D01*
X42667706Y42355744D01*
X42399917Y42534675D01*
X42102366Y42657925D01*
X41786487Y42720757D01*
X41464421Y42720757D01*
X41148542Y42657925D01*
X40850991Y42534675D01*
X40583202Y42355744D01*
X40355467Y42128009D01*
X40183577Y41870757D01*
X37556313Y41870757D01*
X37517757Y41874554D01*
X37479201Y41870757D01*
X37479196Y41870757D01*
X37438783Y41866777D01*
X37363870Y41859399D01*
X37234229Y41820072D01*
X37215897Y41814511D01*
X37079524Y41741619D01*
X36959993Y41643521D01*
X36935412Y41613569D01*
X34898000Y39576157D01*
X25989890Y48484267D01*
X25965307Y48514221D01*
X25845776Y48612319D01*
X25709403Y48685211D01*
X25561430Y48730098D01*
X25446104Y48741457D01*
X25446096Y48741457D01*
X25407543Y48745254D01*
X25368990Y48741457D01*
X23230693Y48741457D01*
X23143991Y48871216D01*
X23098207Y48917000D01*
X25836843Y48917000D01*
X28579653Y46174190D01*
X28604236Y46144236D01*
X28723767Y46046138D01*
X28854138Y45976454D01*
X28860140Y45973246D01*
X29008113Y45928358D01*
X29083026Y45920980D01*
X29123439Y45917000D01*
X29123444Y45917000D01*
X29162000Y45913203D01*
X29200556Y45917000D01*
X46836843Y45917000D01*
X50115001Y42638841D01*
X50115000Y38515440D01*
X50115001Y38515430D01*
X50115000Y34025460D01*
X48589937Y32500397D01*
X48286487Y32560757D01*
X47964421Y32560757D01*
X47648542Y32497925D01*
X47350991Y32374675D01*
X47083202Y32195744D01*
X46855467Y31968009D01*
X46683577Y31710757D01*
X43067331Y31710757D01*
X42895441Y31968009D01*
X42667706Y32195744D01*
X42399917Y32374675D01*
X42102366Y32497925D01*
X41786487Y32560757D01*
X41464421Y32560757D01*
X41148542Y32497925D01*
X40850991Y32374675D01*
X40583202Y32195744D01*
X40355467Y31968009D01*
X40176536Y31700220D01*
X40053286Y31402669D01*
X39990454Y31086790D01*
X39990454Y30764724D01*
X40053286Y30448845D01*
X40176536Y30151294D01*
X40355467Y29883505D01*
X40583202Y29655770D01*
X40835784Y29487000D01*
X37485124Y29487000D01*
X37737706Y29655770D01*
X37965441Y29883505D01*
X38144372Y30151294D01*
X38267622Y30448845D01*
X38330454Y30764724D01*
X38330454Y31086790D01*
X38267622Y31402669D01*
X38144372Y31700220D01*
X37965441Y31968009D01*
X37737706Y32195744D01*
X37469917Y32374675D01*
X37172366Y32497925D01*
X36856487Y32560757D01*
X36534421Y32560757D01*
X36218542Y32497925D01*
X35920991Y32374675D01*
X35653202Y32195744D01*
X35425467Y31968009D01*
X35253577Y31710757D01*
X31637331Y31710757D01*
X31465441Y31968009D01*
X31237706Y32195744D01*
X30980454Y32367634D01*
X30980454Y32764297D01*
X31361816Y33145659D01*
X31391764Y33170236D01*
X31424150Y33209697D01*
X31451760Y33243340D01*
X31489862Y33289767D01*
X31562754Y33426140D01*
X31607641Y33574113D01*
X31619000Y33689439D01*
X31619000Y33689446D01*
X31622797Y33727999D01*
X31619000Y33766552D01*
X31619000Y35066661D01*
X31748759Y35153363D01*
X31948637Y35353241D01*
X32105680Y35588273D01*
X32213853Y35849426D01*
X32269000Y36126665D01*
X32269000Y36409335D01*
X32213853Y36686574D01*
X32105680Y36947727D01*
X31948637Y37182759D01*
X31748759Y37382637D01*
X31619000Y37469339D01*
X31619000Y39023448D01*
X31622797Y39062001D01*
X31619000Y39100554D01*
X31619000Y39100561D01*
X31607641Y39215887D01*
X31562754Y39363860D01*
X31489862Y39500233D01*
X31433980Y39568324D01*
X31416345Y39589813D01*
X31416342Y39589816D01*
X31391764Y39619764D01*
X31361817Y39644341D01*
X26331890Y44674267D01*
X26307307Y44704221D01*
X26187776Y44802319D01*
X26051403Y44875211D01*
X25903430Y44920098D01*
X25788104Y44931457D01*
X25788096Y44931457D01*
X25749543Y44935254D01*
X25710990Y44931457D01*
X23230693Y44931457D01*
X23143991Y45061216D01*
X22944113Y45261094D01*
X22709081Y45418137D01*
X22447928Y45526310D01*
X22170689Y45581457D01*
X21888019Y45581457D01*
X21610780Y45526310D01*
X21349627Y45418137D01*
X21114595Y45261094D01*
X20914717Y45061216D01*
X20757674Y44826184D01*
X20649501Y44565031D01*
X20594354Y44287792D01*
X20594354Y44005122D01*
X20649501Y43727883D01*
X20757674Y43466730D01*
X20914717Y43231698D01*
X21114595Y43031820D01*
X21349627Y42874777D01*
X21610780Y42766604D01*
X21888019Y42711457D01*
X22170689Y42711457D01*
X22447928Y42766604D01*
X22709081Y42874777D01*
X22944113Y43031820D01*
X23143991Y43231698D01*
X23230693Y43361457D01*
X25424386Y43361457D01*
X30049000Y38736842D01*
X30049001Y37469339D01*
X29919241Y37382637D01*
X29719363Y37182759D01*
X29562320Y36947727D01*
X29454147Y36686574D01*
X29399000Y36409335D01*
X29399000Y36126665D01*
X29454147Y35849426D01*
X29562320Y35588273D01*
X29719363Y35353241D01*
X29919241Y35153363D01*
X30049001Y35066661D01*
X30049000Y34053158D01*
X29667639Y33671796D01*
X29637691Y33647218D01*
X29613113Y33617270D01*
X29613109Y33617266D01*
X29610080Y33613575D01*
X29539593Y33527687D01*
X29521611Y33494044D01*
X29466700Y33391313D01*
X29421813Y33243340D01*
X29406657Y33089454D01*
X29410455Y33050891D01*
X29410455Y32367635D01*
X29153202Y32195744D01*
X28925467Y31968009D01*
X28746536Y31700220D01*
X28623286Y31402669D01*
X28560454Y31086790D01*
X28560454Y30764724D01*
X28623286Y30448845D01*
X28746536Y30151294D01*
X28925467Y29883505D01*
X29153202Y29655770D01*
X29405784Y29487000D01*
X28487156Y29487000D01*
X28447000Y29527157D01*
X28447000Y34665259D01*
X28450797Y34703812D01*
X28447000Y34742365D01*
X28447000Y34742372D01*
X28435641Y34857698D01*
X28390754Y35005671D01*
X28317862Y35142044D01*
X28219764Y35261575D01*
X28189817Y35286152D01*
X23433908Y40042060D01*
X23464354Y40195122D01*
X23464354Y40477792D01*
X23409207Y40755031D01*
X23301034Y41016184D01*
X23143991Y41251216D01*
X22944113Y41451094D01*
X22709081Y41608137D01*
X22447928Y41716310D01*
X22170689Y41771457D01*
X21888019Y41771457D01*
X21610780Y41716310D01*
X21349627Y41608137D01*
X21114595Y41451094D01*
X20914717Y41251216D01*
X20757674Y41016184D01*
X20649501Y40755031D01*
X20594354Y40477792D01*
X20594354Y40195122D01*
X20649501Y39917883D01*
X20757674Y39656730D01*
X20914717Y39421698D01*
X21114595Y39221820D01*
X21349627Y39064777D01*
X21610780Y38956604D01*
X21888019Y38901457D01*
X22170689Y38901457D01*
X22323751Y38931903D01*
X26877000Y34378653D01*
X26877001Y29240563D01*
X26873203Y29202000D01*
X26888359Y29048114D01*
X26933246Y28900141D01*
X26933247Y28900140D01*
X27006139Y28763767D01*
X27022306Y28744068D01*
X27079655Y28674188D01*
X27079659Y28674184D01*
X27104237Y28644236D01*
X27134186Y28619657D01*
X27579649Y28174195D01*
X27604236Y28144236D01*
X27723767Y28046138D01*
X27838378Y27984878D01*
X27860140Y27973246D01*
X28008113Y27928358D01*
X28083026Y27920980D01*
X28123439Y27917000D01*
X28123444Y27917000D01*
X28162000Y27913203D01*
X28200556Y27917000D01*
X29506462Y27917000D01*
X29335410Y27825571D01*
X29239646Y27561170D01*
X30195454Y26605362D01*
X31151262Y27561170D01*
X31055498Y27825571D01*
X30867556Y27917000D01*
X36006462Y27917000D01*
X35835410Y27825571D01*
X35739646Y27561170D01*
X36695454Y26605362D01*
X37651262Y27561170D01*
X37555498Y27825571D01*
X37367556Y27917000D01*
X40936462Y27917000D01*
X40765410Y27825571D01*
X40669646Y27561170D01*
X41625454Y26605362D01*
X42581262Y27561170D01*
X42485498Y27825571D01*
X42297556Y27917000D01*
X47436462Y27917000D01*
X47265410Y27825571D01*
X47169646Y27561170D01*
X48125454Y26605362D01*
X49081262Y27561170D01*
X52099646Y27561170D01*
X53055454Y26605362D01*
X54011262Y27561170D01*
X53915498Y27825571D01*
X53625883Y27966461D01*
X53314346Y28048141D01*
X52992859Y28067475D01*
X52673779Y28023718D01*
X52369366Y27918552D01*
X52195410Y27825571D01*
X52099646Y27561170D01*
X49081262Y27561170D01*
X48985498Y27825571D01*
X48797556Y27917000D01*
X50793144Y27917000D01*
X50831697Y27913203D01*
X50870250Y27917000D01*
X50870258Y27917000D01*
X50985584Y27928359D01*
X51133557Y27973246D01*
X51269930Y28046138D01*
X51389461Y28144236D01*
X51414044Y28174190D01*
X52590971Y29351117D01*
X52894421Y29290757D01*
X53216487Y29290757D01*
X53532366Y29353589D01*
X53829917Y29476839D01*
X54097706Y29655770D01*
X54325441Y29883505D01*
X54497331Y30140757D01*
X58113577Y30140757D01*
X58285467Y29883505D01*
X58513202Y29655770D01*
X58780991Y29476839D01*
X59078542Y29353589D01*
X59394421Y29290757D01*
X59716487Y29290757D01*
X60032366Y29353589D01*
X60329917Y29476839D01*
X60529001Y29609862D01*
X60529001Y27578912D01*
X60511261Y27561172D01*
X60415498Y27825571D01*
X60125883Y27966461D01*
X59814346Y28048141D01*
X59492859Y28067475D01*
X59173779Y28023718D01*
X58869366Y27918552D01*
X58695410Y27825571D01*
X58599646Y27561170D01*
X59555454Y26605362D01*
X59569597Y26619504D01*
X59749202Y26439899D01*
X59735059Y26425757D01*
X59749202Y26411614D01*
X59569597Y26232009D01*
X59555454Y26246152D01*
X58599646Y25290344D01*
X58695410Y25025943D01*
X58985025Y24885053D01*
X59296562Y24803373D01*
X59618049Y24784039D01*
X59937129Y24827796D01*
X60241542Y24932962D01*
X60415498Y25025943D01*
X60511261Y25290342D01*
X60529001Y25272602D01*
X60529001Y24565347D01*
X58564854Y22601200D01*
X58411792Y22631646D01*
X58129122Y22631646D01*
X57851883Y22576499D01*
X57590730Y22468326D01*
X57355698Y22311283D01*
X57155820Y22111405D01*
X56998777Y21876373D01*
X56890604Y21615220D01*
X56835457Y21337981D01*
X56835457Y21055311D01*
X56890604Y20778072D01*
X56998777Y20516919D01*
X57155820Y20281887D01*
X57355698Y20082009D01*
X57590730Y19924966D01*
X57851883Y19816793D01*
X58129122Y19761646D01*
X58411792Y19761646D01*
X58689031Y19816793D01*
X58950184Y19924966D01*
X59185216Y20082009D01*
X59385094Y20281887D01*
X59542137Y20516919D01*
X59650310Y20778072D01*
X59705457Y21055311D01*
X59705457Y21337981D01*
X59675011Y21491043D01*
X61799000Y23615032D01*
X61799000Y11447158D01*
X59633489Y9281646D01*
X59471796Y9281646D01*
X59385094Y9411405D01*
X59185216Y9611283D01*
X58950184Y9768326D01*
X58689031Y9876499D01*
X58411792Y9931646D01*
X58129122Y9931646D01*
X57851883Y9876499D01*
X57590730Y9768326D01*
X57355698Y9611283D01*
X57155820Y9411405D01*
X57069118Y9281646D01*
X55661796Y9281646D01*
X55575094Y9411405D01*
X55375216Y9611283D01*
X55140184Y9768326D01*
X54879031Y9876499D01*
X54601792Y9931646D01*
X54319122Y9931646D01*
X54041883Y9876499D01*
X53780730Y9768326D01*
X53545698Y9611283D01*
X53345820Y9411405D01*
X53293670Y9333357D01*
X35930693Y9333357D01*
X35843991Y9463116D01*
X35644113Y9662994D01*
X35409081Y9820037D01*
X35147928Y9928210D01*
X34870689Y9983357D01*
X34588019Y9983357D01*
X34310780Y9928210D01*
X34049627Y9820037D01*
X33814595Y9662994D01*
X33614717Y9463116D01*
X33528015Y9333357D01*
X32120693Y9333357D01*
X32033991Y9463116D01*
X31834113Y9662994D01*
X31599081Y9820037D01*
X31337928Y9928210D01*
X31060689Y9983357D01*
X30778019Y9983357D01*
X30500780Y9928210D01*
X30239627Y9820037D01*
X30004595Y9662994D01*
X29804717Y9463116D01*
X29647674Y9228084D01*
X29539501Y8966931D01*
X29484354Y8689692D01*
X29484354Y8407022D01*
X29539501Y8129783D01*
X29647674Y7868630D01*
X29804717Y7633598D01*
X30004595Y7433720D01*
X30239627Y7276677D01*
X30500780Y7168504D01*
X30778019Y7113357D01*
X31060689Y7113357D01*
X31337928Y7168504D01*
X31599081Y7276677D01*
X31834113Y7433720D01*
X32033991Y7633598D01*
X32120693Y7763357D01*
X33528015Y7763357D01*
X33614717Y7633598D01*
X33814595Y7433720D01*
X34049627Y7276677D01*
X34310780Y7168504D01*
X34588019Y7113357D01*
X34870689Y7113357D01*
X35147928Y7168504D01*
X35409081Y7276677D01*
X35644113Y7433720D01*
X35843991Y7633598D01*
X35930693Y7763357D01*
X53224566Y7763357D01*
X53345820Y7581887D01*
X53545698Y7382009D01*
X53780730Y7224966D01*
X54041883Y7116793D01*
X54319122Y7061646D01*
X54601792Y7061646D01*
X54879031Y7116793D01*
X55140184Y7224966D01*
X55375216Y7382009D01*
X55575094Y7581887D01*
X55661796Y7711646D01*
X57069118Y7711646D01*
X57155820Y7581887D01*
X57355698Y7382009D01*
X57590730Y7224966D01*
X57851883Y7116793D01*
X58129122Y7061646D01*
X58411792Y7061646D01*
X58689031Y7116793D01*
X58950184Y7224966D01*
X59185216Y7382009D01*
X59385094Y7581887D01*
X59471796Y7711646D01*
X59920093Y7711646D01*
X59958646Y7707849D01*
X59997199Y7711646D01*
X59997207Y7711646D01*
X60112533Y7723005D01*
X60260506Y7767892D01*
X60396879Y7840784D01*
X60516410Y7938882D01*
X60540993Y7968836D01*
X63111817Y10539659D01*
X63141764Y10564236D01*
X63239862Y10683767D01*
X63312754Y10820140D01*
X63357641Y10968113D01*
X63369000Y11083439D01*
X63369000Y11083446D01*
X63372797Y11121999D01*
X63369000Y11160552D01*
X63369000Y42833444D01*
X63372797Y42872000D01*
X63369000Y42910556D01*
X63369000Y42910561D01*
X63365020Y42950974D01*
X63357642Y43025887D01*
X63312754Y43173860D01*
X63293585Y43209723D01*
X63239862Y43310233D01*
X63141764Y43429764D01*
X63111810Y43454347D01*
X57892554Y48673603D01*
X57923000Y48826665D01*
X57923000Y49109335D01*
X57867853Y49386574D01*
X57759680Y49647727D01*
X57602637Y49882759D01*
X57402759Y50082637D01*
X57167727Y50239680D01*
X56906574Y50347853D01*
X56629335Y50403000D01*
X56346665Y50403000D01*
X56069426Y50347853D01*
X55808273Y50239680D01*
X55573241Y50082637D01*
X55373363Y49882759D01*
X55286661Y49753000D01*
X36099339Y49753000D01*
X36012637Y49882759D01*
X35812759Y50082637D01*
X35577727Y50239680D01*
X35316574Y50347853D01*
X35039335Y50403000D01*
X34756665Y50403000D01*
X34479426Y50347853D01*
X34218273Y50239680D01*
X33983241Y50082637D01*
X33783363Y49882759D01*
X33696661Y49753000D01*
X32035339Y49753000D01*
X31948637Y49882759D01*
X31748759Y50082637D01*
X31513727Y50239680D01*
X31252574Y50347853D01*
X30975335Y50403000D01*
X30692665Y50403000D01*
X30510114Y50366688D01*
X28857804Y52018997D01*
X28834001Y52048001D01*
X28718276Y52142974D01*
X28586247Y52213546D01*
X28442986Y52257003D01*
X28331333Y52268000D01*
X28331322Y52268000D01*
X28294000Y52271676D01*
X28256678Y52268000D01*
X9789325Y52268000D01*
X9752000Y52271676D01*
X9714675Y52268000D01*
X9714667Y52268000D01*
X9603014Y52257003D01*
X9459753Y52213546D01*
X9327724Y52142974D01*
X9211999Y52048001D01*
X9188201Y52019003D01*
X5339271Y48170072D01*
X4076000Y48170072D01*
X3951518Y48157812D01*
X3831820Y48121502D01*
X3721506Y48062537D01*
X3624815Y47983185D01*
X3545463Y47886494D01*
X3486498Y47776180D01*
X3450188Y47656482D01*
X3437928Y47532000D01*
X803000Y47532000D01*
X803000Y52977029D01*
X1323858Y52977029D01*
X1323858Y52534971D01*
X1410100Y52101408D01*
X1579268Y51693000D01*
X1824861Y51325443D01*
X2137443Y51012861D01*
X2505000Y50767268D01*
X2913408Y50598100D01*
X3346971Y50511858D01*
X3789029Y50511858D01*
X4222592Y50598100D01*
X4631000Y50767268D01*
X4998557Y51012861D01*
X5311139Y51325443D01*
X5556732Y51693000D01*
X5725900Y52101408D01*
X5812142Y52534971D01*
X5812142Y52977029D01*
X59323858Y52977029D01*
X59323858Y52534971D01*
X59410100Y52101408D01*
X59579268Y51693000D01*
X59824861Y51325443D01*
X60137443Y51012861D01*
X60505000Y50767268D01*
X60913408Y50598100D01*
X61346971Y50511858D01*
X61789029Y50511858D01*
X62222592Y50598100D01*
X62631000Y50767268D01*
X62998557Y51012861D01*
X63311139Y51325443D01*
X63556732Y51693000D01*
X63725900Y52101408D01*
X63812142Y52534971D01*
X63812142Y52977029D01*
X63725900Y53410592D01*
X63556732Y53819000D01*
X63311139Y54186557D01*
X62998557Y54499139D01*
X62631000Y54744732D01*
X62222592Y54913900D01*
X61789029Y55000142D01*
X61346971Y55000142D01*
X60913408Y54913900D01*
X60505000Y54744732D01*
X60137443Y54499139D01*
X59824861Y54186557D01*
X59579268Y53819000D01*
X59410100Y53410592D01*
X59323858Y52977029D01*
X5812142Y52977029D01*
X5725900Y53410592D01*
X5556732Y53819000D01*
X5311139Y54186557D01*
X4998557Y54499139D01*
X4631000Y54744732D01*
X4222592Y54913900D01*
X3789029Y55000142D01*
X3346971Y55000142D01*
X2913408Y54913900D01*
X2505000Y54744732D01*
X2137443Y54499139D01*
X1824861Y54186557D01*
X1579268Y53819000D01*
X1410100Y53410592D01*
X1323858Y52977029D01*
X803000Y52977029D01*
X803000Y53220053D01*
X849594Y53695255D01*
X977162Y54117781D01*
X1184369Y54507482D01*
X1463324Y54849513D01*
X1803399Y55130849D01*
X2191644Y55340771D01*
X2613265Y55471285D01*
X3086274Y55521000D01*
X62032053Y55521000D01*
X62507255Y55474406D01*
%TA.AperFunction,Conductor*%
D18*
G36*
X62507255Y55474406D02*
G01*
X62929781Y55346838D01*
X63319482Y55139631D01*
X63661513Y54860676D01*
X63942849Y54520601D01*
X64152771Y54132356D01*
X64283285Y53710735D01*
X64333000Y53237726D01*
X64333001Y3291957D01*
X64286406Y2816745D01*
X64158838Y2394219D01*
X63951631Y2004518D01*
X63672676Y1662487D01*
X63332601Y1381151D01*
X62944356Y1171229D01*
X62522737Y1040715D01*
X62049726Y991000D01*
X3103947Y991000D01*
X2628745Y1037594D01*
X2206219Y1165162D01*
X1816518Y1372369D01*
X1474487Y1651324D01*
X1193151Y1991399D01*
X983229Y2379644D01*
X852715Y2801263D01*
X803000Y3274274D01*
X803000Y3977029D01*
X1323858Y3977029D01*
X1323858Y3534971D01*
X1410100Y3101408D01*
X1579268Y2693000D01*
X1824861Y2325443D01*
X2137443Y2012861D01*
X2505000Y1767268D01*
X2913408Y1598100D01*
X3346971Y1511858D01*
X3789029Y1511858D01*
X4222592Y1598100D01*
X4631000Y1767268D01*
X4998557Y2012861D01*
X5311139Y2325443D01*
X5556732Y2693000D01*
X5725900Y3101408D01*
X5812142Y3534971D01*
X5812142Y3977029D01*
X59323858Y3977029D01*
X59323858Y3534971D01*
X59410100Y3101408D01*
X59579268Y2693000D01*
X59824861Y2325443D01*
X60137443Y2012861D01*
X60505000Y1767268D01*
X60913408Y1598100D01*
X61346971Y1511858D01*
X61789029Y1511858D01*
X62222592Y1598100D01*
X62631000Y1767268D01*
X62998557Y2012861D01*
X63311139Y2325443D01*
X63556732Y2693000D01*
X63725900Y3101408D01*
X63812142Y3534971D01*
X63812142Y3977029D01*
X63725900Y4410592D01*
X63556732Y4819000D01*
X63311139Y5186557D01*
X62998557Y5499139D01*
X62631000Y5744732D01*
X62222592Y5913900D01*
X61789029Y6000142D01*
X61346971Y6000142D01*
X60913408Y5913900D01*
X60505000Y5744732D01*
X60137443Y5499139D01*
X59824861Y5186557D01*
X59579268Y4819000D01*
X59410100Y4410592D01*
X59323858Y3977029D01*
X5812142Y3977029D01*
X5725900Y4410592D01*
X5556732Y4819000D01*
X5311139Y5186557D01*
X4998557Y5499139D01*
X4631000Y5744732D01*
X4222592Y5913900D01*
X3789029Y6000142D01*
X3346971Y6000142D01*
X2913408Y5913900D01*
X2505000Y5744732D01*
X2137443Y5499139D01*
X1824861Y5186557D01*
X1579268Y4819000D01*
X1410100Y4410592D01*
X1323858Y3977029D01*
X803000Y3977029D01*
X803000Y10820587D01*
X6002192Y10820587D01*
X6097956Y10556186D01*
X6387571Y10415296D01*
X6699108Y10333616D01*
X7020595Y10314282D01*
X7339675Y10358039D01*
X7644088Y10463205D01*
X7818044Y10556186D01*
X7913808Y10820587D01*
X12502192Y10820587D01*
X12597956Y10556186D01*
X12887571Y10415296D01*
X13199108Y10333616D01*
X13520595Y10314282D01*
X13839675Y10358039D01*
X14144088Y10463205D01*
X14318044Y10556186D01*
X14413808Y10820587D01*
X17178192Y10820587D01*
X17273956Y10556186D01*
X17563571Y10415296D01*
X17875108Y10333616D01*
X18196595Y10314282D01*
X18515675Y10358039D01*
X18820088Y10463205D01*
X18994044Y10556186D01*
X19089808Y10820587D01*
X23678192Y10820587D01*
X23773956Y10556186D01*
X24063571Y10415296D01*
X24375108Y10333616D01*
X24696595Y10314282D01*
X25015675Y10358039D01*
X25320088Y10463205D01*
X25494044Y10556186D01*
X25589808Y10820587D01*
X24634000Y11776395D01*
X23678192Y10820587D01*
X19089808Y10820587D01*
X18134000Y11776395D01*
X17178192Y10820587D01*
X14413808Y10820587D01*
X13458000Y11776395D01*
X12502192Y10820587D01*
X7913808Y10820587D01*
X6958000Y11776395D01*
X6002192Y10820587D01*
X803000Y10820587D01*
X803000Y11893405D01*
X5316282Y11893405D01*
X5360039Y11574325D01*
X5465205Y11269912D01*
X5558186Y11095956D01*
X5822587Y11000192D01*
X6778395Y11956000D01*
X7137605Y11956000D01*
X8093413Y11000192D01*
X8357814Y11095956D01*
X8498704Y11385571D01*
X8580384Y11697108D01*
X8592189Y11893405D01*
X11816282Y11893405D01*
X11860039Y11574325D01*
X11965205Y11269912D01*
X12058186Y11095956D01*
X12322587Y11000192D01*
X13278395Y11956000D01*
X13637605Y11956000D01*
X14593413Y11000192D01*
X14857814Y11095956D01*
X14998704Y11385571D01*
X15080384Y11697108D01*
X15092189Y11893405D01*
X16492282Y11893405D01*
X16536039Y11574325D01*
X16641205Y11269912D01*
X16734186Y11095956D01*
X16998587Y11000192D01*
X17954395Y11956000D01*
X18313605Y11956000D01*
X19269413Y11000192D01*
X19533814Y11095956D01*
X19674704Y11385571D01*
X19756384Y11697108D01*
X19768189Y11893405D01*
X22992282Y11893405D01*
X23036039Y11574325D01*
X23141205Y11269912D01*
X23234186Y11095956D01*
X23498587Y11000192D01*
X24454395Y11956000D01*
X24813605Y11956000D01*
X25769413Y11000192D01*
X26033814Y11095956D01*
X26174704Y11385571D01*
X26256384Y11697108D01*
X26275718Y12018595D01*
X26231961Y12337675D01*
X26126795Y12642088D01*
X26033814Y12816044D01*
X25769413Y12911808D01*
X24813605Y11956000D01*
X24454395Y11956000D01*
X23498587Y12911808D01*
X23234186Y12816044D01*
X23093296Y12526429D01*
X23011616Y12214892D01*
X22992282Y11893405D01*
X19768189Y11893405D01*
X19775718Y12018595D01*
X19731961Y12337675D01*
X19626795Y12642088D01*
X19533814Y12816044D01*
X19269413Y12911808D01*
X18313605Y11956000D01*
X17954395Y11956000D01*
X16998587Y12911808D01*
X16734186Y12816044D01*
X16593296Y12526429D01*
X16511616Y12214892D01*
X16492282Y11893405D01*
X15092189Y11893405D01*
X15099718Y12018595D01*
X15055961Y12337675D01*
X14950795Y12642088D01*
X14857814Y12816044D01*
X14593413Y12911808D01*
X13637605Y11956000D01*
X13278395Y11956000D01*
X12322587Y12911808D01*
X12058186Y12816044D01*
X11917296Y12526429D01*
X11835616Y12214892D01*
X11816282Y11893405D01*
X8592189Y11893405D01*
X8599718Y12018595D01*
X8555961Y12337675D01*
X8450795Y12642088D01*
X8357814Y12816044D01*
X8093413Y12911808D01*
X7137605Y11956000D01*
X6778395Y11956000D01*
X5822587Y12911808D01*
X5558186Y12816044D01*
X5417296Y12526429D01*
X5335616Y12214892D01*
X5316282Y11893405D01*
X803000Y11893405D01*
X803000Y13091413D01*
X6002192Y13091413D01*
X6958000Y12135605D01*
X7913808Y13091413D01*
X12502192Y13091413D01*
X13458000Y12135605D01*
X14413808Y13091413D01*
X17178192Y13091413D01*
X18134000Y12135605D01*
X19089808Y13091413D01*
X23678192Y13091413D01*
X24634000Y12135605D01*
X25589808Y13091413D01*
X25494044Y13355814D01*
X25204429Y13496704D01*
X24892892Y13578384D01*
X24571405Y13597718D01*
X24252325Y13553961D01*
X23947912Y13448795D01*
X23773956Y13355814D01*
X23678192Y13091413D01*
X19089808Y13091413D01*
X18994044Y13355814D01*
X18704429Y13496704D01*
X18392892Y13578384D01*
X18071405Y13597718D01*
X17752325Y13553961D01*
X17447912Y13448795D01*
X17273956Y13355814D01*
X17178192Y13091413D01*
X14413808Y13091413D01*
X14318044Y13355814D01*
X14028429Y13496704D01*
X13716892Y13578384D01*
X13395405Y13597718D01*
X13076325Y13553961D01*
X12771912Y13448795D01*
X12597956Y13355814D01*
X12502192Y13091413D01*
X7913808Y13091413D01*
X7818044Y13355814D01*
X7528429Y13496704D01*
X7216892Y13578384D01*
X6895405Y13597718D01*
X6576325Y13553961D01*
X6271912Y13448795D01*
X6097956Y13355814D01*
X6002192Y13091413D01*
X803000Y13091413D01*
X803000Y16617033D01*
X5323000Y16617033D01*
X5323000Y16294967D01*
X5385832Y15979088D01*
X5509082Y15681537D01*
X5688013Y15413748D01*
X5915748Y15186013D01*
X6183537Y15007082D01*
X6481088Y14883832D01*
X6796967Y14821000D01*
X7119033Y14821000D01*
X7434912Y14883832D01*
X7732463Y15007082D01*
X8000252Y15186013D01*
X8227987Y15413748D01*
X8406918Y15681537D01*
X8412909Y15696000D01*
X12003091Y15696000D01*
X12009082Y15681537D01*
X12188013Y15413748D01*
X12415748Y15186013D01*
X12683537Y15007082D01*
X12981088Y14883832D01*
X13296967Y14821000D01*
X13619033Y14821000D01*
X13934912Y14883832D01*
X14232463Y15007082D01*
X14500252Y15186013D01*
X14727987Y15413748D01*
X14906918Y15681537D01*
X15030168Y15979088D01*
X15093000Y16294967D01*
X15093000Y16617033D01*
X15030168Y16932912D01*
X14906918Y17230463D01*
X14727987Y17498252D01*
X14500252Y17725987D01*
X14232463Y17904918D01*
X14218000Y17910909D01*
X14218000Y20609199D01*
X17945259Y24336457D01*
X20811311Y24336457D01*
X20914717Y24181698D01*
X21114595Y23981820D01*
X21349627Y23824777D01*
X21610780Y23716604D01*
X21888019Y23661457D01*
X22170689Y23661457D01*
X22248840Y23677002D01*
X25205301Y20720541D01*
X25229879Y20690593D01*
X25259827Y20666015D01*
X25259830Y20666012D01*
X25289202Y20641907D01*
X25349410Y20592495D01*
X25485783Y20519603D01*
X25599315Y20485163D01*
X25633755Y20474716D01*
X25648133Y20473300D01*
X25749082Y20463357D01*
X25749089Y20463357D01*
X25787642Y20459560D01*
X25826195Y20463357D01*
X29718015Y20463357D01*
X29804717Y20333598D01*
X30004595Y20133720D01*
X30239627Y19976677D01*
X30500780Y19868504D01*
X30778019Y19813357D01*
X31060689Y19813357D01*
X31337928Y19868504D01*
X31599081Y19976677D01*
X31834113Y20133720D01*
X32033991Y20333598D01*
X32191034Y20568630D01*
X32299207Y20829783D01*
X32354354Y21107022D01*
X32354354Y21389692D01*
X32299207Y21666931D01*
X32257757Y21767000D01*
X33100554Y21767000D01*
X33324800Y21542754D01*
X33294354Y21389692D01*
X33294354Y21107022D01*
X33330666Y20924471D01*
X29622196Y17216000D01*
X26088909Y17216000D01*
X26082918Y17230463D01*
X25903987Y17498252D01*
X25676252Y17725987D01*
X25408463Y17904918D01*
X25110912Y18028168D01*
X24795033Y18091000D01*
X24472967Y18091000D01*
X24157088Y18028168D01*
X23859537Y17904918D01*
X23591748Y17725987D01*
X23364013Y17498252D01*
X23185082Y17230463D01*
X23179091Y17216000D01*
X19588909Y17216000D01*
X19582918Y17230463D01*
X19403987Y17498252D01*
X19176252Y17725987D01*
X18908463Y17904918D01*
X18610912Y18028168D01*
X18295033Y18091000D01*
X17972967Y18091000D01*
X17657088Y18028168D01*
X17359537Y17904918D01*
X17091748Y17725987D01*
X16864013Y17498252D01*
X16685082Y17230463D01*
X16561832Y16932912D01*
X16499000Y16617033D01*
X16499000Y16294967D01*
X16561832Y15979088D01*
X16685082Y15681537D01*
X16864013Y15413748D01*
X17091748Y15186013D01*
X17359537Y15007082D01*
X17657088Y14883832D01*
X17972967Y14821000D01*
X18295033Y14821000D01*
X18610912Y14883832D01*
X18908463Y15007082D01*
X19176252Y15186013D01*
X19403987Y15413748D01*
X19582918Y15681537D01*
X19588909Y15696000D01*
X23179091Y15696000D01*
X23185082Y15681537D01*
X23364013Y15413748D01*
X23591748Y15186013D01*
X23859537Y15007082D01*
X24157088Y14883832D01*
X24472967Y14821000D01*
X24795033Y14821000D01*
X25110912Y14883832D01*
X25408463Y15007082D01*
X25592937Y15130344D01*
X40669646Y15130344D01*
X40765410Y14865943D01*
X41055025Y14725053D01*
X41366562Y14643373D01*
X41688049Y14624039D01*
X42007129Y14667796D01*
X42311542Y14772962D01*
X42485498Y14865943D01*
X42581262Y15130344D01*
X47169646Y15130344D01*
X47265410Y14865943D01*
X47555025Y14725053D01*
X47866562Y14643373D01*
X48188049Y14624039D01*
X48507129Y14667796D01*
X48811542Y14772962D01*
X48985498Y14865943D01*
X49081262Y15130344D01*
X48125454Y16086152D01*
X47169646Y15130344D01*
X42581262Y15130344D01*
X41625454Y16086152D01*
X40669646Y15130344D01*
X25592937Y15130344D01*
X25676252Y15186013D01*
X25903987Y15413748D01*
X26082918Y15681537D01*
X26088909Y15696000D01*
X29899675Y15696000D01*
X29936997Y15692324D01*
X29974319Y15696000D01*
X29974330Y15696000D01*
X30085983Y15706997D01*
X30229244Y15750454D01*
X30361273Y15821026D01*
X30476998Y15915999D01*
X30500801Y15945003D01*
X30758960Y16203162D01*
X39983736Y16203162D01*
X40027493Y15884082D01*
X40132659Y15579669D01*
X40225640Y15405713D01*
X40490041Y15309949D01*
X41445849Y16265757D01*
X41805059Y16265757D01*
X42760867Y15309949D01*
X43025268Y15405713D01*
X43166158Y15695328D01*
X43247838Y16006865D01*
X43259643Y16203162D01*
X46483736Y16203162D01*
X46527493Y15884082D01*
X46632659Y15579669D01*
X46725640Y15405713D01*
X46990041Y15309949D01*
X47945849Y16265757D01*
X48305059Y16265757D01*
X49260867Y15309949D01*
X49525268Y15405713D01*
X49666158Y15695328D01*
X49747838Y16006865D01*
X49767172Y16328352D01*
X49723415Y16647432D01*
X49618249Y16951845D01*
X49525268Y17125801D01*
X49260867Y17221565D01*
X48305059Y16265757D01*
X47945849Y16265757D01*
X46990041Y17221565D01*
X46725640Y17125801D01*
X46584750Y16836186D01*
X46503070Y16524649D01*
X46483736Y16203162D01*
X43259643Y16203162D01*
X43267172Y16328352D01*
X43223415Y16647432D01*
X43118249Y16951845D01*
X43025268Y17125801D01*
X42760867Y17221565D01*
X41805059Y16265757D01*
X41445849Y16265757D01*
X40490041Y17221565D01*
X40225640Y17125801D01*
X40084750Y16836186D01*
X40003070Y16524649D01*
X39983736Y16203162D01*
X30758960Y16203162D01*
X31956968Y17401170D01*
X40669646Y17401170D01*
X41625454Y16445362D01*
X42581262Y17401170D01*
X47169646Y17401170D01*
X48125454Y16445362D01*
X49081262Y17401170D01*
X48985498Y17665571D01*
X48695883Y17806461D01*
X48384346Y17888141D01*
X48062859Y17907475D01*
X47743779Y17863718D01*
X47439366Y17758552D01*
X47265410Y17665571D01*
X47169646Y17401170D01*
X42581262Y17401170D01*
X42485498Y17665571D01*
X42195883Y17806461D01*
X41884346Y17888141D01*
X41562859Y17907475D01*
X41243779Y17863718D01*
X40939366Y17758552D01*
X40765410Y17665571D01*
X40669646Y17401170D01*
X31956968Y17401170D01*
X34405468Y19849669D01*
X34588019Y19813357D01*
X34870689Y19813357D01*
X35147928Y19868504D01*
X35409081Y19976677D01*
X35644113Y20133720D01*
X35843991Y20333598D01*
X36001034Y20568630D01*
X36109207Y20829783D01*
X36164354Y21107022D01*
X36164354Y21389692D01*
X36109207Y21666931D01*
X36001034Y21928084D01*
X35843991Y22163116D01*
X35644113Y22362994D01*
X35409081Y22520037D01*
X35147928Y22628210D01*
X34870689Y22683357D01*
X34588019Y22683357D01*
X34434957Y22652911D01*
X34050868Y23037000D01*
X38244054Y23037000D01*
X40050814Y21230240D01*
X39990454Y20926790D01*
X39990454Y20604724D01*
X40053286Y20288845D01*
X40176536Y19991294D01*
X40355467Y19723505D01*
X40583202Y19495770D01*
X40850991Y19316839D01*
X41148542Y19193589D01*
X41464421Y19130757D01*
X41786487Y19130757D01*
X42102366Y19193589D01*
X42399917Y19316839D01*
X42667706Y19495770D01*
X42895441Y19723505D01*
X43067331Y19980757D01*
X46683577Y19980757D01*
X46855467Y19723505D01*
X47083202Y19495770D01*
X47350991Y19316839D01*
X47648542Y19193589D01*
X47964421Y19130757D01*
X48286487Y19130757D01*
X48602366Y19193589D01*
X48899917Y19316839D01*
X49167706Y19495770D01*
X49395441Y19723505D01*
X49567331Y19980757D01*
X51107204Y19980757D01*
X51145757Y19976960D01*
X51184310Y19980757D01*
X51184318Y19980757D01*
X51299644Y19992116D01*
X51447617Y20037003D01*
X51583990Y20109895D01*
X51703521Y20207993D01*
X51728104Y20237947D01*
X51901803Y20411646D01*
X53259118Y20411646D01*
X53345820Y20281887D01*
X53545698Y20082009D01*
X53780730Y19924966D01*
X54041883Y19816793D01*
X54319122Y19761646D01*
X54601792Y19761646D01*
X54879031Y19816793D01*
X55140184Y19924966D01*
X55375216Y20082009D01*
X55575094Y20281887D01*
X55732137Y20516919D01*
X55840310Y20778072D01*
X55895457Y21055311D01*
X55895457Y21337981D01*
X55840310Y21615220D01*
X55732137Y21876373D01*
X55575094Y22111405D01*
X55375216Y22311283D01*
X55140184Y22468326D01*
X54879031Y22576499D01*
X54601792Y22631646D01*
X54319122Y22631646D01*
X54041883Y22576499D01*
X53780730Y22468326D01*
X53545698Y22311283D01*
X53345820Y22111405D01*
X53259118Y21981646D01*
X51615198Y21981646D01*
X51576645Y21985443D01*
X51538092Y21981646D01*
X51538085Y21981646D01*
X51422759Y21970287D01*
X51274786Y21925400D01*
X51138413Y21852508D01*
X51018882Y21754410D01*
X50994301Y21724458D01*
X50820600Y21550757D01*
X49567331Y21550757D01*
X49395441Y21808009D01*
X49167706Y22035744D01*
X48899917Y22214675D01*
X48602366Y22337925D01*
X48286487Y22400757D01*
X47964421Y22400757D01*
X47648542Y22337925D01*
X47350991Y22214675D01*
X47083202Y22035744D01*
X46855467Y21808009D01*
X46683577Y21550757D01*
X43067331Y21550757D01*
X42895441Y21808009D01*
X42667706Y22035744D01*
X42399917Y22214675D01*
X42102366Y22337925D01*
X41786487Y22400757D01*
X41464421Y22400757D01*
X41160971Y22340397D01*
X39151558Y24349810D01*
X39126975Y24379764D01*
X39007444Y24477862D01*
X38871071Y24550754D01*
X38723098Y24595641D01*
X38607772Y24607000D01*
X38607764Y24607000D01*
X38569211Y24610797D01*
X38530658Y24607000D01*
X28365158Y24607000D01*
X27681814Y25290344D01*
X29239646Y25290344D01*
X29335410Y25025943D01*
X29625025Y24885053D01*
X29936562Y24803373D01*
X30258049Y24784039D01*
X30577129Y24827796D01*
X30881542Y24932962D01*
X31055498Y25025943D01*
X31151262Y25290344D01*
X35739646Y25290344D01*
X35835410Y25025943D01*
X36125025Y24885053D01*
X36436562Y24803373D01*
X36758049Y24784039D01*
X37077129Y24827796D01*
X37381542Y24932962D01*
X37555498Y25025943D01*
X37651262Y25290344D01*
X40669646Y25290344D01*
X40765410Y25025943D01*
X41055025Y24885053D01*
X41366562Y24803373D01*
X41688049Y24784039D01*
X42007129Y24827796D01*
X42311542Y24932962D01*
X42485498Y25025943D01*
X42581262Y25290344D01*
X47169646Y25290344D01*
X47265410Y25025943D01*
X47555025Y24885053D01*
X47866562Y24803373D01*
X48188049Y24784039D01*
X48507129Y24827796D01*
X48811542Y24932962D01*
X48985498Y25025943D01*
X49081262Y25290344D01*
X52099646Y25290344D01*
X52195410Y25025943D01*
X52485025Y24885053D01*
X52796562Y24803373D01*
X53118049Y24784039D01*
X53437129Y24827796D01*
X53741542Y24932962D01*
X53915498Y25025943D01*
X54011262Y25290344D01*
X53055454Y26246152D01*
X52099646Y25290344D01*
X49081262Y25290344D01*
X48125454Y26246152D01*
X47169646Y25290344D01*
X42581262Y25290344D01*
X41625454Y26246152D01*
X40669646Y25290344D01*
X37651262Y25290344D01*
X36695454Y26246152D01*
X35739646Y25290344D01*
X31151262Y25290344D01*
X30195454Y26246152D01*
X29239646Y25290344D01*
X27681814Y25290344D01*
X26608996Y26363162D01*
X28553736Y26363162D01*
X28597493Y26044082D01*
X28702659Y25739669D01*
X28795640Y25565713D01*
X29060041Y25469949D01*
X30015849Y26425757D01*
X30375059Y26425757D01*
X31330867Y25469949D01*
X31595268Y25565713D01*
X31736158Y25855328D01*
X31817838Y26166865D01*
X31829643Y26363162D01*
X35053736Y26363162D01*
X35097493Y26044082D01*
X35202659Y25739669D01*
X35295640Y25565713D01*
X35560041Y25469949D01*
X36515849Y26425757D01*
X36875059Y26425757D01*
X37830867Y25469949D01*
X38095268Y25565713D01*
X38236158Y25855328D01*
X38317838Y26166865D01*
X38329643Y26363162D01*
X39983736Y26363162D01*
X40027493Y26044082D01*
X40132659Y25739669D01*
X40225640Y25565713D01*
X40490041Y25469949D01*
X41445849Y26425757D01*
X41805059Y26425757D01*
X42760867Y25469949D01*
X43025268Y25565713D01*
X43166158Y25855328D01*
X43247838Y26166865D01*
X43259643Y26363162D01*
X46483736Y26363162D01*
X46527493Y26044082D01*
X46632659Y25739669D01*
X46725640Y25565713D01*
X46990041Y25469949D01*
X47945849Y26425757D01*
X48305059Y26425757D01*
X49260867Y25469949D01*
X49525268Y25565713D01*
X49666158Y25855328D01*
X49747838Y26166865D01*
X49759643Y26363162D01*
X51413736Y26363162D01*
X51457493Y26044082D01*
X51562659Y25739669D01*
X51655640Y25565713D01*
X51920041Y25469949D01*
X52875849Y26425757D01*
X53235059Y26425757D01*
X54190867Y25469949D01*
X54455268Y25565713D01*
X54596158Y25855328D01*
X54677838Y26166865D01*
X54689643Y26363162D01*
X57913736Y26363162D01*
X57957493Y26044082D01*
X58062659Y25739669D01*
X58155640Y25565713D01*
X58420041Y25469949D01*
X59375849Y26425757D01*
X58420041Y27381565D01*
X58155640Y27285801D01*
X58014750Y26996186D01*
X57933070Y26684649D01*
X57913736Y26363162D01*
X54689643Y26363162D01*
X54697172Y26488352D01*
X54653415Y26807432D01*
X54548249Y27111845D01*
X54455268Y27285801D01*
X54190867Y27381565D01*
X53235059Y26425757D01*
X52875849Y26425757D01*
X51920041Y27381565D01*
X51655640Y27285801D01*
X51514750Y26996186D01*
X51433070Y26684649D01*
X51413736Y26363162D01*
X49759643Y26363162D01*
X49767172Y26488352D01*
X49723415Y26807432D01*
X49618249Y27111845D01*
X49525268Y27285801D01*
X49260867Y27381565D01*
X48305059Y26425757D01*
X47945849Y26425757D01*
X46990041Y27381565D01*
X46725640Y27285801D01*
X46584750Y26996186D01*
X46503070Y26684649D01*
X46483736Y26363162D01*
X43259643Y26363162D01*
X43267172Y26488352D01*
X43223415Y26807432D01*
X43118249Y27111845D01*
X43025268Y27285801D01*
X42760867Y27381565D01*
X41805059Y26425757D01*
X41445849Y26425757D01*
X40490041Y27381565D01*
X40225640Y27285801D01*
X40084750Y26996186D01*
X40003070Y26684649D01*
X39983736Y26363162D01*
X38329643Y26363162D01*
X38337172Y26488352D01*
X38293415Y26807432D01*
X38188249Y27111845D01*
X38095268Y27285801D01*
X37830867Y27381565D01*
X36875059Y26425757D01*
X36515849Y26425757D01*
X35560041Y27381565D01*
X35295640Y27285801D01*
X35154750Y26996186D01*
X35073070Y26684649D01*
X35053736Y26363162D01*
X31829643Y26363162D01*
X31837172Y26488352D01*
X31793415Y26807432D01*
X31688249Y27111845D01*
X31595268Y27285801D01*
X31330867Y27381565D01*
X30375059Y26425757D01*
X30015849Y26425757D01*
X29060041Y27381565D01*
X28795640Y27285801D01*
X28654750Y26996186D01*
X28573070Y26684649D01*
X28553736Y26363162D01*
X26608996Y26363162D01*
X26285000Y26687157D01*
X26285000Y33017255D01*
X26288797Y33055811D01*
X26285000Y33094371D01*
X26285000Y33094372D01*
X26277306Y33172491D01*
X26273642Y33209698D01*
X26228754Y33357671D01*
X26210772Y33391313D01*
X26155862Y33494044D01*
X26057764Y33613575D01*
X26027811Y33638157D01*
X23433908Y36232060D01*
X23464354Y36385122D01*
X23464354Y36667792D01*
X23409207Y36945031D01*
X23301034Y37206184D01*
X23143991Y37441216D01*
X22944113Y37641094D01*
X22709081Y37798137D01*
X22447928Y37906310D01*
X22170689Y37961457D01*
X21888019Y37961457D01*
X21610780Y37906310D01*
X21349627Y37798137D01*
X21114595Y37641094D01*
X20914717Y37441216D01*
X20757674Y37206184D01*
X20649501Y36945031D01*
X20594354Y36667792D01*
X20594354Y36385122D01*
X20649501Y36107883D01*
X20757674Y35846730D01*
X20914717Y35611698D01*
X21114595Y35411820D01*
X21349627Y35254777D01*
X21610780Y35146604D01*
X21888019Y35091457D01*
X22170689Y35091457D01*
X22323751Y35121903D01*
X24715000Y32730654D01*
X24715001Y26400563D01*
X24711203Y26362000D01*
X24726359Y26208114D01*
X24771246Y26060141D01*
X24771247Y26060140D01*
X24844139Y25923767D01*
X24884690Y25874356D01*
X24917655Y25834188D01*
X24917659Y25834184D01*
X24942237Y25804236D01*
X24972185Y25779658D01*
X27414842Y23337000D01*
X27349158Y23337000D01*
X22914274Y27771883D01*
X22944113Y27791820D01*
X23143991Y27991698D01*
X23301034Y28226730D01*
X23409207Y28487883D01*
X23464354Y28765122D01*
X23464354Y29047792D01*
X23409207Y29325031D01*
X23301034Y29586184D01*
X23143991Y29821216D01*
X22944113Y30021094D01*
X22709081Y30178137D01*
X22447928Y30286310D01*
X22170689Y30341457D01*
X21888019Y30341457D01*
X21610780Y30286310D01*
X21349627Y30178137D01*
X21114595Y30021094D01*
X20914717Y29821216D01*
X20757674Y29586184D01*
X20649501Y29325031D01*
X20594354Y29047792D01*
X20594354Y28765122D01*
X20649501Y28487883D01*
X20757674Y28226730D01*
X20914717Y27991698D01*
X21114595Y27791820D01*
X21244354Y27705118D01*
X21244354Y27585199D01*
X21240557Y27546646D01*
X21244354Y27508093D01*
X21244354Y27508086D01*
X21255713Y27392760D01*
X21300600Y27244787D01*
X21373492Y27108414D01*
X21471590Y26988882D01*
X21501544Y26964299D01*
X21934386Y26531457D01*
X21888019Y26531457D01*
X21610780Y26476310D01*
X21349627Y26368137D01*
X21114595Y26211094D01*
X20914717Y26011216D01*
X20811311Y25856457D01*
X17667779Y25856457D01*
X17630456Y25860133D01*
X17593133Y25856457D01*
X17593124Y25856457D01*
X17481471Y25845460D01*
X17338210Y25802003D01*
X17206181Y25731431D01*
X17090456Y25636458D01*
X17066658Y25607460D01*
X12946998Y21487799D01*
X12918000Y21464001D01*
X12894202Y21435003D01*
X12894201Y21435002D01*
X12823026Y21348276D01*
X12752454Y21216246D01*
X12708998Y21072985D01*
X12694324Y20924000D01*
X12698001Y20886668D01*
X12698000Y17910909D01*
X12683537Y17904918D01*
X12415748Y17725987D01*
X12188013Y17498252D01*
X12009082Y17230463D01*
X12003091Y17216000D01*
X8412909Y17216000D01*
X8406918Y17230463D01*
X8227987Y17498252D01*
X8000252Y17725987D01*
X7732463Y17904918D01*
X7434912Y18028168D01*
X7119033Y18091000D01*
X6796967Y18091000D01*
X6481088Y18028168D01*
X6183537Y17904918D01*
X5915748Y17725987D01*
X5688013Y17498252D01*
X5509082Y17230463D01*
X5385832Y16932912D01*
X5323000Y16617033D01*
X803000Y16617033D01*
X803000Y41182000D01*
X3437928Y41182000D01*
X3437928Y39482000D01*
X3450188Y39357518D01*
X3486498Y39237820D01*
X3545463Y39127506D01*
X3624815Y39030815D01*
X3721506Y38951463D01*
X3831820Y38892498D01*
X3904380Y38870487D01*
X3772525Y38738632D01*
X3610010Y38495411D01*
X3498068Y38225158D01*
X3441000Y37938260D01*
X3441000Y37645740D01*
X3498068Y37358842D01*
X3610010Y37088589D01*
X3772525Y36845368D01*
X3979368Y36638525D01*
X4153760Y36522000D01*
X3979368Y36405475D01*
X3772525Y36198632D01*
X3610010Y35955411D01*
X3498068Y35685158D01*
X3441000Y35398260D01*
X3441000Y35105740D01*
X3498068Y34818842D01*
X3610010Y34548589D01*
X3772525Y34305368D01*
X3979368Y34098525D01*
X4153760Y33982000D01*
X3979368Y33865475D01*
X3772525Y33658632D01*
X3610010Y33415411D01*
X3498068Y33145158D01*
X3441000Y32858260D01*
X3441000Y32565740D01*
X3498068Y32278842D01*
X3610010Y32008589D01*
X3772525Y31765368D01*
X3979368Y31558525D01*
X4153760Y31442000D01*
X3979368Y31325475D01*
X3772525Y31118632D01*
X3610010Y30875411D01*
X3498068Y30605158D01*
X3441000Y30318260D01*
X3441000Y30025740D01*
X3498068Y29738842D01*
X3610010Y29468589D01*
X3772525Y29225368D01*
X3979368Y29018525D01*
X4153760Y28902000D01*
X3979368Y28785475D01*
X3772525Y28578632D01*
X3610010Y28335411D01*
X3498068Y28065158D01*
X3441000Y27778260D01*
X3441000Y27485740D01*
X3498068Y27198842D01*
X3610010Y26928589D01*
X3772525Y26685368D01*
X3979368Y26478525D01*
X4153760Y26362000D01*
X3979368Y26245475D01*
X3772525Y26038632D01*
X3610010Y25795411D01*
X3498068Y25525158D01*
X3441000Y25238260D01*
X3441000Y24945740D01*
X3498068Y24658842D01*
X3610010Y24388589D01*
X3772525Y24145368D01*
X3979368Y23938525D01*
X4222589Y23776010D01*
X4492842Y23664068D01*
X4779740Y23607000D01*
X5072260Y23607000D01*
X5359158Y23664068D01*
X5629411Y23776010D01*
X5872632Y23938525D01*
X6079475Y24145368D01*
X6204178Y24332000D01*
X10654289Y24332000D01*
X10754717Y24181698D01*
X10954595Y23981820D01*
X11189627Y23824777D01*
X11450780Y23716604D01*
X11728019Y23661457D01*
X12010689Y23661457D01*
X12287928Y23716604D01*
X12549081Y23824777D01*
X12784113Y23981820D01*
X12983991Y24181698D01*
X13141034Y24416730D01*
X13249207Y24677883D01*
X13304354Y24955122D01*
X13304354Y25237792D01*
X13249207Y25515031D01*
X13141034Y25776184D01*
X12983991Y26011216D01*
X12784113Y26211094D01*
X12549081Y26368137D01*
X12287928Y26476310D01*
X12010689Y26531457D01*
X11728019Y26531457D01*
X11450780Y26476310D01*
X11189627Y26368137D01*
X10954595Y26211094D01*
X10754717Y26011216D01*
X10648333Y25852000D01*
X6204178Y25852000D01*
X6079475Y26038632D01*
X5872632Y26245475D01*
X5698240Y26362000D01*
X5872632Y26478525D01*
X6079475Y26685368D01*
X6204178Y26872000D01*
X10557575Y26872000D01*
X10594897Y26868324D01*
X10632219Y26872000D01*
X10632230Y26872000D01*
X10743883Y26882997D01*
X10887144Y26926454D01*
X11019173Y26997026D01*
X11134898Y27091999D01*
X11158700Y27121002D01*
X11545468Y27507769D01*
X11728019Y27471457D01*
X12010689Y27471457D01*
X12287928Y27526604D01*
X12549081Y27634777D01*
X12784113Y27791820D01*
X12983991Y27991698D01*
X13141034Y28226730D01*
X13249207Y28487883D01*
X13304354Y28765122D01*
X13304354Y29047792D01*
X13249207Y29325031D01*
X13141034Y29586184D01*
X12983991Y29821216D01*
X12784113Y30021094D01*
X12549081Y30178137D01*
X12287928Y30286310D01*
X12010689Y30341457D01*
X11728019Y30341457D01*
X11450780Y30286310D01*
X11189627Y30178137D01*
X10954595Y30021094D01*
X10754717Y29821216D01*
X10597674Y29586184D01*
X10489501Y29325031D01*
X10434354Y29047792D01*
X10434354Y28765122D01*
X10470666Y28582571D01*
X10280096Y28392000D01*
X6204178Y28392000D01*
X6079475Y28578632D01*
X5872632Y28785475D01*
X5698240Y28902000D01*
X5872632Y29018525D01*
X6079475Y29225368D01*
X6204178Y29412000D01*
X9287575Y29412000D01*
X9324897Y29408324D01*
X9362219Y29412000D01*
X9362230Y29412000D01*
X9473883Y29422997D01*
X9617144Y29466454D01*
X9749173Y29537026D01*
X9864898Y29631999D01*
X9888701Y29661003D01*
X11545468Y31317769D01*
X11728019Y31281457D01*
X12010689Y31281457D01*
X12287928Y31336604D01*
X12549081Y31444777D01*
X12784113Y31601820D01*
X12983991Y31801698D01*
X13141034Y32036730D01*
X13249207Y32297883D01*
X13304354Y32575122D01*
X13304354Y32857792D01*
X13249207Y33135031D01*
X13141034Y33396184D01*
X12983991Y33631216D01*
X12784113Y33831094D01*
X12549081Y33988137D01*
X12287928Y34096310D01*
X12010689Y34151457D01*
X11728019Y34151457D01*
X11450780Y34096310D01*
X11189627Y33988137D01*
X10954595Y33831094D01*
X10754717Y33631216D01*
X10597674Y33396184D01*
X10489501Y33135031D01*
X10434354Y32857792D01*
X10434354Y32575122D01*
X10470666Y32392571D01*
X9010096Y30932000D01*
X6204178Y30932000D01*
X6079475Y31118632D01*
X5872632Y31325475D01*
X5698240Y31442000D01*
X5872632Y31558525D01*
X6079475Y31765368D01*
X6204178Y31952000D01*
X8017575Y31952000D01*
X8054897Y31948324D01*
X8092219Y31952000D01*
X8092230Y31952000D01*
X8203883Y31962997D01*
X8347144Y32006454D01*
X8479173Y32077026D01*
X8594898Y32171999D01*
X8618701Y32201003D01*
X11545468Y35127769D01*
X11728019Y35091457D01*
X12010689Y35091457D01*
X12287928Y35146604D01*
X12549081Y35254777D01*
X12784113Y35411820D01*
X12983991Y35611698D01*
X13141034Y35846730D01*
X13249207Y36107883D01*
X13304354Y36385122D01*
X13304354Y36667792D01*
X13249207Y36945031D01*
X13141034Y37206184D01*
X12983991Y37441216D01*
X12784113Y37641094D01*
X12549081Y37798137D01*
X12287928Y37906310D01*
X12010689Y37961457D01*
X11728019Y37961457D01*
X11450780Y37906310D01*
X11189627Y37798137D01*
X10954595Y37641094D01*
X10754717Y37441216D01*
X10597674Y37206184D01*
X10489501Y36945031D01*
X10434354Y36667792D01*
X10434354Y36385122D01*
X10470666Y36202571D01*
X7740096Y33472000D01*
X6204178Y33472000D01*
X6079475Y33658632D01*
X5872632Y33865475D01*
X5698240Y33982000D01*
X5872632Y34098525D01*
X6079475Y34305368D01*
X6204178Y34492000D01*
X6747575Y34492000D01*
X6784897Y34488324D01*
X6822219Y34492000D01*
X6822230Y34492000D01*
X6933883Y34502997D01*
X7077144Y34546454D01*
X7209173Y34617026D01*
X7324898Y34711999D01*
X7348701Y34741003D01*
X11545468Y38937769D01*
X11728019Y38901457D01*
X12010689Y38901457D01*
X12287928Y38956604D01*
X12549081Y39064777D01*
X12784113Y39221820D01*
X12983991Y39421698D01*
X13141034Y39656730D01*
X13249207Y39917883D01*
X13304354Y40195122D01*
X13304354Y40477792D01*
X13249207Y40755031D01*
X13141034Y41016184D01*
X12983991Y41251216D01*
X12784113Y41451094D01*
X12549081Y41608137D01*
X12287928Y41716310D01*
X12010689Y41771457D01*
X11728019Y41771457D01*
X11450780Y41716310D01*
X11189627Y41608137D01*
X10954595Y41451094D01*
X10754717Y41251216D01*
X10597674Y41016184D01*
X10489501Y40755031D01*
X10434354Y40477792D01*
X10434354Y40195122D01*
X10470666Y40012571D01*
X6470096Y36012000D01*
X6204178Y36012000D01*
X6079475Y36198632D01*
X5872632Y36405475D01*
X5698240Y36522000D01*
X5872632Y36638525D01*
X6079475Y36845368D01*
X6204178Y37032000D01*
X6412678Y37032000D01*
X6450000Y37028324D01*
X6487322Y37032000D01*
X6487333Y37032000D01*
X6598986Y37042997D01*
X6742247Y37086454D01*
X6874276Y37157026D01*
X6990001Y37251999D01*
X7013804Y37281003D01*
X10263004Y40530202D01*
X10292001Y40553999D01*
X10386974Y40669724D01*
X10457546Y40801753D01*
X10501003Y40945014D01*
X10512000Y41056667D01*
X10512000Y41056676D01*
X10515676Y41093999D01*
X10512000Y41131322D01*
X10512000Y41714302D01*
X11545468Y42747769D01*
X11728019Y42711457D01*
X12010689Y42711457D01*
X12287928Y42766604D01*
X12549081Y42874777D01*
X12784113Y43031820D01*
X12983991Y43231698D01*
X13141034Y43466730D01*
X13249207Y43727883D01*
X13304354Y44005122D01*
X13304354Y44287792D01*
X13249207Y44565031D01*
X13141034Y44826184D01*
X12983991Y45061216D01*
X12784113Y45261094D01*
X12549081Y45418137D01*
X12287928Y45526310D01*
X12010689Y45581457D01*
X11728019Y45581457D01*
X11450780Y45526310D01*
X11189627Y45418137D01*
X10954595Y45261094D01*
X10754717Y45061216D01*
X10597674Y44826184D01*
X10512000Y44619348D01*
X10512000Y45524302D01*
X11545468Y46557769D01*
X11728019Y46521457D01*
X12010689Y46521457D01*
X12287928Y46576604D01*
X12549081Y46684777D01*
X12784113Y46841820D01*
X12983991Y47041698D01*
X13141034Y47276730D01*
X13249207Y47537883D01*
X13304354Y47815122D01*
X13304354Y48097792D01*
X13249207Y48375031D01*
X13141034Y48636184D01*
X12983991Y48871216D01*
X12784113Y49071094D01*
X12549081Y49228137D01*
X12287928Y49336310D01*
X12010689Y49391457D01*
X11728019Y49391457D01*
X11450780Y49336310D01*
X11189627Y49228137D01*
X10954595Y49071094D01*
X10754717Y48871216D01*
X10597674Y48636184D01*
X10489501Y48375031D01*
X10434354Y48097792D01*
X10434354Y47815122D01*
X10470666Y47632571D01*
X9241003Y46402907D01*
X9211999Y46379104D01*
X9156871Y46311929D01*
X9117026Y46263379D01*
X9069352Y46174188D01*
X9046454Y46131349D01*
X9002997Y45988088D01*
X8992000Y45876435D01*
X8992000Y45876425D01*
X8988324Y45839103D01*
X8992000Y45801780D01*
X8992001Y43948803D01*
X6389679Y41346480D01*
X6365502Y41426180D01*
X6306537Y41536494D01*
X6227185Y41633185D01*
X6130494Y41712537D01*
X6020180Y41771502D01*
X5900482Y41807812D01*
X5776000Y41820072D01*
X4076000Y41820072D01*
X3951518Y41807812D01*
X3831820Y41771502D01*
X3721506Y41712537D01*
X3624815Y41633185D01*
X3545463Y41536494D01*
X3486498Y41426180D01*
X3450188Y41306482D01*
X3437928Y41182000D01*
X803000Y41182000D01*
X803000Y43785110D01*
X3484524Y43785110D01*
X3529175Y43637901D01*
X3654359Y43375080D01*
X3828412Y43141731D01*
X4044645Y42946822D01*
X4294748Y42797843D01*
X4569109Y42700519D01*
X4799000Y42821186D01*
X4799000Y44015000D01*
X5053000Y44015000D01*
X5053000Y42821186D01*
X5282891Y42700519D01*
X5557252Y42797843D01*
X5807355Y42946822D01*
X6023588Y43141731D01*
X6197641Y43375080D01*
X6322825Y43637901D01*
X6367476Y43785110D01*
X6246155Y44015000D01*
X5053000Y44015000D01*
X4799000Y44015000D01*
X3605845Y44015000D01*
X3484524Y43785110D01*
X803000Y43785110D01*
X803000Y47532000D01*
X3437928Y47532000D01*
X3437928Y45832000D01*
X3450188Y45707518D01*
X3486498Y45587820D01*
X3545463Y45477506D01*
X3624815Y45380815D01*
X3721506Y45301463D01*
X3831820Y45242498D01*
X3912466Y45218034D01*
X3828412Y45142269D01*
X3654359Y44908920D01*
X3529175Y44646099D01*
X3484524Y44498890D01*
X3605845Y44269000D01*
X4799000Y44269000D01*
X4799000Y44289000D01*
X5053000Y44289000D01*
X5053000Y44269000D01*
X6246155Y44269000D01*
X6367476Y44498890D01*
X6322825Y44646099D01*
X6197641Y44908920D01*
X6023588Y45142269D01*
X5939534Y45218034D01*
X6020180Y45242498D01*
X6130494Y45301463D01*
X6227185Y45380815D01*
X6306537Y45477506D01*
X6365502Y45587820D01*
X6401812Y45707518D01*
X6414072Y45832000D01*
X6414072Y47095271D01*
X10066802Y50748000D01*
X27979199Y50748000D01*
X29435312Y49291886D01*
X29399000Y49109335D01*
X29399000Y48826665D01*
X29454147Y48549426D01*
X29562320Y48288273D01*
X29719363Y48053241D01*
X29919241Y47853363D01*
X30154273Y47696320D01*
X30415426Y47588147D01*
X30692665Y47533000D01*
X30975335Y47533000D01*
X31252574Y47588147D01*
X31513727Y47696320D01*
X31748759Y47853363D01*
X31948637Y48053241D01*
X32035339Y48183000D01*
X33696661Y48183000D01*
X33783363Y48053241D01*
X33983241Y47853363D01*
X34218273Y47696320D01*
X34479426Y47588147D01*
X34756665Y47533000D01*
X35039335Y47533000D01*
X35316574Y47588147D01*
X35577727Y47696320D01*
X35812759Y47853363D01*
X36012637Y48053241D01*
X36099339Y48183000D01*
X55286661Y48183000D01*
X55373363Y48053241D01*
X55573241Y47853363D01*
X55808273Y47696320D01*
X56069426Y47588147D01*
X56346665Y47533000D01*
X56629335Y47533000D01*
X56782397Y47563446D01*
X61799001Y42546842D01*
X61799001Y39941157D01*
X58340345Y43399812D01*
X58315764Y43429764D01*
X58196233Y43527862D01*
X58059860Y43600754D01*
X57911887Y43645641D01*
X57796561Y43657000D01*
X57796553Y43657000D01*
X57758000Y43660797D01*
X57719447Y43657000D01*
X51317158Y43657000D01*
X47744345Y47229812D01*
X47719764Y47259764D01*
X47600233Y47357862D01*
X47463860Y47430754D01*
X47315887Y47475641D01*
X47200561Y47487000D01*
X47200553Y47487000D01*
X47162000Y47490797D01*
X47123447Y47487000D01*
X29487157Y47487000D01*
X26744347Y50229810D01*
X26719764Y50259764D01*
X26600233Y50357862D01*
X26463860Y50430754D01*
X26315887Y50475641D01*
X26200561Y50487000D01*
X26200553Y50487000D01*
X26162000Y50490797D01*
X26123447Y50487000D01*
X21192556Y50487000D01*
X21154000Y50490797D01*
X21115444Y50487000D01*
X21115439Y50487000D01*
X21075026Y50483020D01*
X21000113Y50475642D01*
X20852140Y50430754D01*
X20715767Y50357862D01*
X20596236Y50259764D01*
X20571653Y50229810D01*
X18876190Y48534347D01*
X18846236Y48509764D01*
X18748138Y48390232D01*
X18675246Y48253859D01*
X18630359Y48105886D01*
X18619000Y47990560D01*
X18619000Y47990553D01*
X18615203Y47952000D01*
X18619000Y47913447D01*
X18619001Y35380374D01*
X18615203Y35341811D01*
X18630359Y35187925D01*
X18675246Y35039952D01*
X18693570Y35005671D01*
X18748139Y34903578D01*
X18785792Y34857698D01*
X18821655Y34813999D01*
X18821659Y34813995D01*
X18846237Y34784047D01*
X18876185Y34759469D01*
X20624800Y33010853D01*
X20594354Y32857792D01*
X20594354Y32575122D01*
X20649501Y32297883D01*
X20757674Y32036730D01*
X20914717Y31801698D01*
X21114595Y31601820D01*
X21349627Y31444777D01*
X21610780Y31336604D01*
X21888019Y31281457D01*
X22170689Y31281457D01*
X22447928Y31336604D01*
X22709081Y31444777D01*
X22944113Y31601820D01*
X23143991Y31801698D01*
X23301034Y32036730D01*
X23409207Y32297883D01*
X23464354Y32575122D01*
X23464354Y32857792D01*
X23409207Y33135031D01*
X23301034Y33396184D01*
X23143991Y33631216D01*
X22944113Y33831094D01*
X22709081Y33988137D01*
X22447928Y34096310D01*
X22170689Y34151457D01*
X21888019Y34151457D01*
X21734958Y34121011D01*
X20189000Y35666968D01*
X20189000Y47626843D01*
X20594354Y48032197D01*
X20594354Y47815122D01*
X20649501Y47537883D01*
X20757674Y47276730D01*
X20914717Y47041698D01*
X21114595Y46841820D01*
X21349627Y46684777D01*
X21610780Y46576604D01*
X21888019Y46521457D01*
X22170689Y46521457D01*
X22447928Y46576604D01*
X22709081Y46684777D01*
X22944113Y46841820D01*
X23143991Y47041698D01*
X23230693Y47171457D01*
X25082386Y47171457D01*
X34113000Y38140842D01*
X34113000Y37469339D01*
X33983241Y37382637D01*
X33783363Y37182759D01*
X33626320Y36947727D01*
X33518147Y36686574D01*
X33463000Y36409335D01*
X33463000Y36126665D01*
X33518147Y35849426D01*
X33626320Y35588273D01*
X33783363Y35353241D01*
X33983241Y35153363D01*
X34218273Y34996320D01*
X34479426Y34888147D01*
X34756665Y34833000D01*
X35039335Y34833000D01*
X35316574Y34888147D01*
X35577727Y34996320D01*
X35812759Y35153363D01*
X36012637Y35353241D01*
X36077519Y35450344D01*
X40669646Y35450344D01*
X40765410Y35185943D01*
X41055025Y35045053D01*
X41366562Y34963373D01*
X41688049Y34944039D01*
X42007129Y34987796D01*
X42311542Y35092962D01*
X42485498Y35185943D01*
X42581262Y35450344D01*
X47169646Y35450344D01*
X47265410Y35185943D01*
X47555025Y35045053D01*
X47866562Y34963373D01*
X48188049Y34944039D01*
X48507129Y34987796D01*
X48811542Y35092962D01*
X48985498Y35185943D01*
X49081262Y35450344D01*
X48125454Y36406152D01*
X47169646Y35450344D01*
X42581262Y35450344D01*
X41625454Y36406152D01*
X40669646Y35450344D01*
X36077519Y35450344D01*
X36169680Y35588273D01*
X36277853Y35849426D01*
X36333000Y36126665D01*
X36333000Y36409335D01*
X36310359Y36523162D01*
X39983736Y36523162D01*
X40027493Y36204082D01*
X40132659Y35899669D01*
X40225640Y35725713D01*
X40490041Y35629949D01*
X41445849Y36585757D01*
X41805059Y36585757D01*
X42760867Y35629949D01*
X43025268Y35725713D01*
X43166158Y36015328D01*
X43247838Y36326865D01*
X43259643Y36523162D01*
X46483736Y36523162D01*
X46527493Y36204082D01*
X46632659Y35899669D01*
X46725640Y35725713D01*
X46990041Y35629949D01*
X47945849Y36585757D01*
X48305059Y36585757D01*
X49260867Y35629949D01*
X49525268Y35725713D01*
X49666158Y36015328D01*
X49747838Y36326865D01*
X49767172Y36648352D01*
X49723415Y36967432D01*
X49618249Y37271845D01*
X49525268Y37445801D01*
X49260867Y37541565D01*
X48305059Y36585757D01*
X47945849Y36585757D01*
X46990041Y37541565D01*
X46725640Y37445801D01*
X46584750Y37156186D01*
X46503070Y36844649D01*
X46483736Y36523162D01*
X43259643Y36523162D01*
X43267172Y36648352D01*
X43223415Y36967432D01*
X43118249Y37271845D01*
X43025268Y37445801D01*
X42760867Y37541565D01*
X41805059Y36585757D01*
X41445849Y36585757D01*
X40490041Y37541565D01*
X40225640Y37445801D01*
X40084750Y37156186D01*
X40003070Y36844649D01*
X39983736Y36523162D01*
X36310359Y36523162D01*
X36277853Y36686574D01*
X36169680Y36947727D01*
X36012637Y37182759D01*
X35812759Y37382637D01*
X35683000Y37469339D01*
X35683000Y37721170D01*
X40669646Y37721170D01*
X41625454Y36765362D01*
X42581262Y37721170D01*
X47169646Y37721170D01*
X48125454Y36765362D01*
X49081262Y37721170D01*
X48985498Y37985571D01*
X48695883Y38126461D01*
X48384346Y38208141D01*
X48062859Y38227475D01*
X47743779Y38183718D01*
X47439366Y38078552D01*
X47265410Y37985571D01*
X47169646Y37721170D01*
X42581262Y37721170D01*
X42485498Y37985571D01*
X42195883Y38126461D01*
X41884346Y38208141D01*
X41562859Y38227475D01*
X41243779Y38183718D01*
X40939366Y38078552D01*
X40765410Y37985571D01*
X40669646Y37721170D01*
X35683000Y37721170D01*
X35683000Y38140843D01*
X37842914Y40300757D01*
X40183577Y40300757D01*
X40355467Y40043505D01*
X40583202Y39815770D01*
X40850991Y39636839D01*
X41148542Y39513589D01*
X41464421Y39450757D01*
X41786487Y39450757D01*
X42102366Y39513589D01*
X42399917Y39636839D01*
X42667706Y39815770D01*
X42895441Y40043505D01*
X43067331Y40300757D01*
X46683577Y40300757D01*
X46855467Y40043505D01*
X47083202Y39815770D01*
X47350991Y39636839D01*
X47648542Y39513589D01*
X47964421Y39450757D01*
X48286487Y39450757D01*
X48602366Y39513589D01*
X48899917Y39636839D01*
X49167706Y39815770D01*
X49395441Y40043505D01*
X49574372Y40311294D01*
X49697622Y40608845D01*
X49760454Y40924724D01*
X49760454Y41246790D01*
X49697622Y41562669D01*
X49574372Y41860220D01*
X49395441Y42128009D01*
X49167706Y42355744D01*
X48899917Y42534675D01*
X48602366Y42657925D01*
X48286487Y42720757D01*
X47964421Y42720757D01*
X47648542Y42657925D01*
X47350991Y42534675D01*
X47083202Y42355744D01*
X46855467Y42128009D01*
X46683577Y41870757D01*
X43067331Y41870757D01*
X42895441Y42128009D01*
X42667706Y42355744D01*
X42399917Y42534675D01*
X42102366Y42657925D01*
X41786487Y42720757D01*
X41464421Y42720757D01*
X41148542Y42657925D01*
X40850991Y42534675D01*
X40583202Y42355744D01*
X40355467Y42128009D01*
X40183577Y41870757D01*
X37556313Y41870757D01*
X37517757Y41874554D01*
X37479201Y41870757D01*
X37479196Y41870757D01*
X37438783Y41866777D01*
X37363870Y41859399D01*
X37234229Y41820072D01*
X37215897Y41814511D01*
X37079524Y41741619D01*
X36959993Y41643521D01*
X36935412Y41613569D01*
X34898000Y39576157D01*
X25989890Y48484267D01*
X25965307Y48514221D01*
X25845776Y48612319D01*
X25709403Y48685211D01*
X25561430Y48730098D01*
X25446104Y48741457D01*
X25446096Y48741457D01*
X25407543Y48745254D01*
X25368990Y48741457D01*
X23230693Y48741457D01*
X23143991Y48871216D01*
X23098207Y48917000D01*
X25836843Y48917000D01*
X28579653Y46174190D01*
X28604236Y46144236D01*
X28723767Y46046138D01*
X28854138Y45976454D01*
X28860140Y45973246D01*
X29008113Y45928358D01*
X29083026Y45920980D01*
X29123439Y45917000D01*
X29123444Y45917000D01*
X29162000Y45913203D01*
X29200556Y45917000D01*
X46836843Y45917000D01*
X50115001Y42638841D01*
X50115000Y38515440D01*
X50115001Y38515430D01*
X50115000Y34025460D01*
X48589937Y32500397D01*
X48286487Y32560757D01*
X47964421Y32560757D01*
X47648542Y32497925D01*
X47350991Y32374675D01*
X47083202Y32195744D01*
X46855467Y31968009D01*
X46683577Y31710757D01*
X43067331Y31710757D01*
X42895441Y31968009D01*
X42667706Y32195744D01*
X42399917Y32374675D01*
X42102366Y32497925D01*
X41786487Y32560757D01*
X41464421Y32560757D01*
X41148542Y32497925D01*
X40850991Y32374675D01*
X40583202Y32195744D01*
X40355467Y31968009D01*
X40176536Y31700220D01*
X40053286Y31402669D01*
X39990454Y31086790D01*
X39990454Y30764724D01*
X40053286Y30448845D01*
X40176536Y30151294D01*
X40355467Y29883505D01*
X40583202Y29655770D01*
X40835784Y29487000D01*
X37485124Y29487000D01*
X37737706Y29655770D01*
X37965441Y29883505D01*
X38144372Y30151294D01*
X38267622Y30448845D01*
X38330454Y30764724D01*
X38330454Y31086790D01*
X38267622Y31402669D01*
X38144372Y31700220D01*
X37965441Y31968009D01*
X37737706Y32195744D01*
X37469917Y32374675D01*
X37172366Y32497925D01*
X36856487Y32560757D01*
X36534421Y32560757D01*
X36218542Y32497925D01*
X35920991Y32374675D01*
X35653202Y32195744D01*
X35425467Y31968009D01*
X35253577Y31710757D01*
X31637331Y31710757D01*
X31465441Y31968009D01*
X31237706Y32195744D01*
X30980454Y32367634D01*
X30980454Y32764297D01*
X31361816Y33145659D01*
X31391764Y33170236D01*
X31424150Y33209697D01*
X31451760Y33243340D01*
X31489862Y33289767D01*
X31562754Y33426140D01*
X31607641Y33574113D01*
X31619000Y33689439D01*
X31619000Y33689446D01*
X31622797Y33727999D01*
X31619000Y33766552D01*
X31619000Y35066661D01*
X31748759Y35153363D01*
X31948637Y35353241D01*
X32105680Y35588273D01*
X32213853Y35849426D01*
X32269000Y36126665D01*
X32269000Y36409335D01*
X32213853Y36686574D01*
X32105680Y36947727D01*
X31948637Y37182759D01*
X31748759Y37382637D01*
X31619000Y37469339D01*
X31619000Y39023448D01*
X31622797Y39062001D01*
X31619000Y39100554D01*
X31619000Y39100561D01*
X31607641Y39215887D01*
X31562754Y39363860D01*
X31489862Y39500233D01*
X31433980Y39568324D01*
X31416345Y39589813D01*
X31416342Y39589816D01*
X31391764Y39619764D01*
X31361817Y39644341D01*
X26331890Y44674267D01*
X26307307Y44704221D01*
X26187776Y44802319D01*
X26051403Y44875211D01*
X25903430Y44920098D01*
X25788104Y44931457D01*
X25788096Y44931457D01*
X25749543Y44935254D01*
X25710990Y44931457D01*
X23230693Y44931457D01*
X23143991Y45061216D01*
X22944113Y45261094D01*
X22709081Y45418137D01*
X22447928Y45526310D01*
X22170689Y45581457D01*
X21888019Y45581457D01*
X21610780Y45526310D01*
X21349627Y45418137D01*
X21114595Y45261094D01*
X20914717Y45061216D01*
X20757674Y44826184D01*
X20649501Y44565031D01*
X20594354Y44287792D01*
X20594354Y44005122D01*
X20649501Y43727883D01*
X20757674Y43466730D01*
X20914717Y43231698D01*
X21114595Y43031820D01*
X21349627Y42874777D01*
X21610780Y42766604D01*
X21888019Y42711457D01*
X22170689Y42711457D01*
X22447928Y42766604D01*
X22709081Y42874777D01*
X22944113Y43031820D01*
X23143991Y43231698D01*
X23230693Y43361457D01*
X25424386Y43361457D01*
X30049000Y38736842D01*
X30049001Y37469339D01*
X29919241Y37382637D01*
X29719363Y37182759D01*
X29562320Y36947727D01*
X29454147Y36686574D01*
X29399000Y36409335D01*
X29399000Y36126665D01*
X29454147Y35849426D01*
X29562320Y35588273D01*
X29719363Y35353241D01*
X29919241Y35153363D01*
X30049001Y35066661D01*
X30049000Y34053158D01*
X29667639Y33671796D01*
X29637691Y33647218D01*
X29613113Y33617270D01*
X29613109Y33617266D01*
X29610080Y33613575D01*
X29539593Y33527687D01*
X29521611Y33494044D01*
X29466700Y33391313D01*
X29421813Y33243340D01*
X29406657Y33089454D01*
X29410455Y33050891D01*
X29410455Y32367635D01*
X29153202Y32195744D01*
X28925467Y31968009D01*
X28746536Y31700220D01*
X28623286Y31402669D01*
X28560454Y31086790D01*
X28560454Y30764724D01*
X28623286Y30448845D01*
X28746536Y30151294D01*
X28925467Y29883505D01*
X29153202Y29655770D01*
X29405784Y29487000D01*
X28487156Y29487000D01*
X28447000Y29527157D01*
X28447000Y34665259D01*
X28450797Y34703812D01*
X28447000Y34742365D01*
X28447000Y34742372D01*
X28435641Y34857698D01*
X28390754Y35005671D01*
X28317862Y35142044D01*
X28219764Y35261575D01*
X28189817Y35286152D01*
X23433908Y40042060D01*
X23464354Y40195122D01*
X23464354Y40477792D01*
X23409207Y40755031D01*
X23301034Y41016184D01*
X23143991Y41251216D01*
X22944113Y41451094D01*
X22709081Y41608137D01*
X22447928Y41716310D01*
X22170689Y41771457D01*
X21888019Y41771457D01*
X21610780Y41716310D01*
X21349627Y41608137D01*
X21114595Y41451094D01*
X20914717Y41251216D01*
X20757674Y41016184D01*
X20649501Y40755031D01*
X20594354Y40477792D01*
X20594354Y40195122D01*
X20649501Y39917883D01*
X20757674Y39656730D01*
X20914717Y39421698D01*
X21114595Y39221820D01*
X21349627Y39064777D01*
X21610780Y38956604D01*
X21888019Y38901457D01*
X22170689Y38901457D01*
X22323751Y38931903D01*
X26877000Y34378653D01*
X26877001Y29240563D01*
X26873203Y29202000D01*
X26888359Y29048114D01*
X26933246Y28900141D01*
X26933247Y28900140D01*
X27006139Y28763767D01*
X27022306Y28744068D01*
X27079655Y28674188D01*
X27079659Y28674184D01*
X27104237Y28644236D01*
X27134186Y28619657D01*
X27579649Y28174195D01*
X27604236Y28144236D01*
X27723767Y28046138D01*
X27838378Y27984878D01*
X27860140Y27973246D01*
X28008113Y27928358D01*
X28083026Y27920980D01*
X28123439Y27917000D01*
X28123444Y27917000D01*
X28162000Y27913203D01*
X28200556Y27917000D01*
X29506462Y27917000D01*
X29335410Y27825571D01*
X29239646Y27561170D01*
X30195454Y26605362D01*
X31151262Y27561170D01*
X31055498Y27825571D01*
X30867556Y27917000D01*
X36006462Y27917000D01*
X35835410Y27825571D01*
X35739646Y27561170D01*
X36695454Y26605362D01*
X37651262Y27561170D01*
X37555498Y27825571D01*
X37367556Y27917000D01*
X40936462Y27917000D01*
X40765410Y27825571D01*
X40669646Y27561170D01*
X41625454Y26605362D01*
X42581262Y27561170D01*
X42485498Y27825571D01*
X42297556Y27917000D01*
X47436462Y27917000D01*
X47265410Y27825571D01*
X47169646Y27561170D01*
X48125454Y26605362D01*
X49081262Y27561170D01*
X52099646Y27561170D01*
X53055454Y26605362D01*
X54011262Y27561170D01*
X53915498Y27825571D01*
X53625883Y27966461D01*
X53314346Y28048141D01*
X52992859Y28067475D01*
X52673779Y28023718D01*
X52369366Y27918552D01*
X52195410Y27825571D01*
X52099646Y27561170D01*
X49081262Y27561170D01*
X48985498Y27825571D01*
X48797556Y27917000D01*
X50793144Y27917000D01*
X50831697Y27913203D01*
X50870250Y27917000D01*
X50870258Y27917000D01*
X50985584Y27928359D01*
X51133557Y27973246D01*
X51269930Y28046138D01*
X51389461Y28144236D01*
X51414044Y28174190D01*
X52590971Y29351117D01*
X52894421Y29290757D01*
X53216487Y29290757D01*
X53532366Y29353589D01*
X53829917Y29476839D01*
X54097706Y29655770D01*
X54325441Y29883505D01*
X54497331Y30140757D01*
X58113577Y30140757D01*
X58285467Y29883505D01*
X58513202Y29655770D01*
X58780991Y29476839D01*
X59078542Y29353589D01*
X59394421Y29290757D01*
X59716487Y29290757D01*
X60032366Y29353589D01*
X60329917Y29476839D01*
X60529001Y29609862D01*
X60529001Y27578912D01*
X60511261Y27561172D01*
X60415498Y27825571D01*
X60125883Y27966461D01*
X59814346Y28048141D01*
X59492859Y28067475D01*
X59173779Y28023718D01*
X58869366Y27918552D01*
X58695410Y27825571D01*
X58599646Y27561170D01*
X59555454Y26605362D01*
X59569597Y26619504D01*
X59749202Y26439899D01*
X59735059Y26425757D01*
X59749202Y26411614D01*
X59569597Y26232009D01*
X59555454Y26246152D01*
X58599646Y25290344D01*
X58695410Y25025943D01*
X58985025Y24885053D01*
X59296562Y24803373D01*
X59618049Y24784039D01*
X59937129Y24827796D01*
X60241542Y24932962D01*
X60415498Y25025943D01*
X60511261Y25290342D01*
X60529001Y25272602D01*
X60529001Y24565347D01*
X58564854Y22601200D01*
X58411792Y22631646D01*
X58129122Y22631646D01*
X57851883Y22576499D01*
X57590730Y22468326D01*
X57355698Y22311283D01*
X57155820Y22111405D01*
X56998777Y21876373D01*
X56890604Y21615220D01*
X56835457Y21337981D01*
X56835457Y21055311D01*
X56890604Y20778072D01*
X56998777Y20516919D01*
X57155820Y20281887D01*
X57355698Y20082009D01*
X57590730Y19924966D01*
X57851883Y19816793D01*
X58129122Y19761646D01*
X58411792Y19761646D01*
X58689031Y19816793D01*
X58950184Y19924966D01*
X59185216Y20082009D01*
X59385094Y20281887D01*
X59542137Y20516919D01*
X59650310Y20778072D01*
X59705457Y21055311D01*
X59705457Y21337981D01*
X59675011Y21491043D01*
X61799000Y23615032D01*
X61799000Y11447158D01*
X59633489Y9281646D01*
X59471796Y9281646D01*
X59385094Y9411405D01*
X59185216Y9611283D01*
X58950184Y9768326D01*
X58689031Y9876499D01*
X58411792Y9931646D01*
X58129122Y9931646D01*
X57851883Y9876499D01*
X57590730Y9768326D01*
X57355698Y9611283D01*
X57155820Y9411405D01*
X57069118Y9281646D01*
X55661796Y9281646D01*
X55575094Y9411405D01*
X55375216Y9611283D01*
X55140184Y9768326D01*
X54879031Y9876499D01*
X54601792Y9931646D01*
X54319122Y9931646D01*
X54041883Y9876499D01*
X53780730Y9768326D01*
X53545698Y9611283D01*
X53345820Y9411405D01*
X53293670Y9333357D01*
X35930693Y9333357D01*
X35843991Y9463116D01*
X35644113Y9662994D01*
X35409081Y9820037D01*
X35147928Y9928210D01*
X34870689Y9983357D01*
X34588019Y9983357D01*
X34310780Y9928210D01*
X34049627Y9820037D01*
X33814595Y9662994D01*
X33614717Y9463116D01*
X33528015Y9333357D01*
X32120693Y9333357D01*
X32033991Y9463116D01*
X31834113Y9662994D01*
X31599081Y9820037D01*
X31337928Y9928210D01*
X31060689Y9983357D01*
X30778019Y9983357D01*
X30500780Y9928210D01*
X30239627Y9820037D01*
X30004595Y9662994D01*
X29804717Y9463116D01*
X29647674Y9228084D01*
X29539501Y8966931D01*
X29484354Y8689692D01*
X29484354Y8407022D01*
X29539501Y8129783D01*
X29647674Y7868630D01*
X29804717Y7633598D01*
X30004595Y7433720D01*
X30239627Y7276677D01*
X30500780Y7168504D01*
X30778019Y7113357D01*
X31060689Y7113357D01*
X31337928Y7168504D01*
X31599081Y7276677D01*
X31834113Y7433720D01*
X32033991Y7633598D01*
X32120693Y7763357D01*
X33528015Y7763357D01*
X33614717Y7633598D01*
X33814595Y7433720D01*
X34049627Y7276677D01*
X34310780Y7168504D01*
X34588019Y7113357D01*
X34870689Y7113357D01*
X35147928Y7168504D01*
X35409081Y7276677D01*
X35644113Y7433720D01*
X35843991Y7633598D01*
X35930693Y7763357D01*
X53224566Y7763357D01*
X53345820Y7581887D01*
X53545698Y7382009D01*
X53780730Y7224966D01*
X54041883Y7116793D01*
X54319122Y7061646D01*
X54601792Y7061646D01*
X54879031Y7116793D01*
X55140184Y7224966D01*
X55375216Y7382009D01*
X55575094Y7581887D01*
X55661796Y7711646D01*
X57069118Y7711646D01*
X57155820Y7581887D01*
X57355698Y7382009D01*
X57590730Y7224966D01*
X57851883Y7116793D01*
X58129122Y7061646D01*
X58411792Y7061646D01*
X58689031Y7116793D01*
X58950184Y7224966D01*
X59185216Y7382009D01*
X59385094Y7581887D01*
X59471796Y7711646D01*
X59920093Y7711646D01*
X59958646Y7707849D01*
X59997199Y7711646D01*
X59997207Y7711646D01*
X60112533Y7723005D01*
X60260506Y7767892D01*
X60396879Y7840784D01*
X60516410Y7938882D01*
X60540993Y7968836D01*
X63111817Y10539659D01*
X63141764Y10564236D01*
X63239862Y10683767D01*
X63312754Y10820140D01*
X63357641Y10968113D01*
X63369000Y11083439D01*
X63369000Y11083446D01*
X63372797Y11121999D01*
X63369000Y11160552D01*
X63369000Y42833444D01*
X63372797Y42872000D01*
X63369000Y42910556D01*
X63369000Y42910561D01*
X63365020Y42950974D01*
X63357642Y43025887D01*
X63312754Y43173860D01*
X63293585Y43209723D01*
X63239862Y43310233D01*
X63141764Y43429764D01*
X63111810Y43454347D01*
X57892554Y48673603D01*
X57923000Y48826665D01*
X57923000Y49109335D01*
X57867853Y49386574D01*
X57759680Y49647727D01*
X57602637Y49882759D01*
X57402759Y50082637D01*
X57167727Y50239680D01*
X56906574Y50347853D01*
X56629335Y50403000D01*
X56346665Y50403000D01*
X56069426Y50347853D01*
X55808273Y50239680D01*
X55573241Y50082637D01*
X55373363Y49882759D01*
X55286661Y49753000D01*
X36099339Y49753000D01*
X36012637Y49882759D01*
X35812759Y50082637D01*
X35577727Y50239680D01*
X35316574Y50347853D01*
X35039335Y50403000D01*
X34756665Y50403000D01*
X34479426Y50347853D01*
X34218273Y50239680D01*
X33983241Y50082637D01*
X33783363Y49882759D01*
X33696661Y49753000D01*
X32035339Y49753000D01*
X31948637Y49882759D01*
X31748759Y50082637D01*
X31513727Y50239680D01*
X31252574Y50347853D01*
X30975335Y50403000D01*
X30692665Y50403000D01*
X30510114Y50366688D01*
X28857804Y52018997D01*
X28834001Y52048001D01*
X28718276Y52142974D01*
X28586247Y52213546D01*
X28442986Y52257003D01*
X28331333Y52268000D01*
X28331322Y52268000D01*
X28294000Y52271676D01*
X28256678Y52268000D01*
X9789325Y52268000D01*
X9752000Y52271676D01*
X9714675Y52268000D01*
X9714667Y52268000D01*
X9603014Y52257003D01*
X9459753Y52213546D01*
X9327724Y52142974D01*
X9211999Y52048001D01*
X9188201Y52019003D01*
X5339271Y48170072D01*
X4076000Y48170072D01*
X3951518Y48157812D01*
X3831820Y48121502D01*
X3721506Y48062537D01*
X3624815Y47983185D01*
X3545463Y47886494D01*
X3486498Y47776180D01*
X3450188Y47656482D01*
X3437928Y47532000D01*
X803000Y47532000D01*
X803000Y52977029D01*
X1323858Y52977029D01*
X1323858Y52534971D01*
X1410100Y52101408D01*
X1579268Y51693000D01*
X1824861Y51325443D01*
X2137443Y51012861D01*
X2505000Y50767268D01*
X2913408Y50598100D01*
X3346971Y50511858D01*
X3789029Y50511858D01*
X4222592Y50598100D01*
X4631000Y50767268D01*
X4998557Y51012861D01*
X5311139Y51325443D01*
X5556732Y51693000D01*
X5725900Y52101408D01*
X5812142Y52534971D01*
X5812142Y52977029D01*
X59323858Y52977029D01*
X59323858Y52534971D01*
X59410100Y52101408D01*
X59579268Y51693000D01*
X59824861Y51325443D01*
X60137443Y51012861D01*
X60505000Y50767268D01*
X60913408Y50598100D01*
X61346971Y50511858D01*
X61789029Y50511858D01*
X62222592Y50598100D01*
X62631000Y50767268D01*
X62998557Y51012861D01*
X63311139Y51325443D01*
X63556732Y51693000D01*
X63725900Y52101408D01*
X63812142Y52534971D01*
X63812142Y52977029D01*
X63725900Y53410592D01*
X63556732Y53819000D01*
X63311139Y54186557D01*
X62998557Y54499139D01*
X62631000Y54744732D01*
X62222592Y54913900D01*
X61789029Y55000142D01*
X61346971Y55000142D01*
X60913408Y54913900D01*
X60505000Y54744732D01*
X60137443Y54499139D01*
X59824861Y54186557D01*
X59579268Y53819000D01*
X59410100Y53410592D01*
X59323858Y52977029D01*
X5812142Y52977029D01*
X5725900Y53410592D01*
X5556732Y53819000D01*
X5311139Y54186557D01*
X4998557Y54499139D01*
X4631000Y54744732D01*
X4222592Y54913900D01*
X3789029Y55000142D01*
X3346971Y55000142D01*
X2913408Y54913900D01*
X2505000Y54744732D01*
X2137443Y54499139D01*
X1824861Y54186557D01*
X1579268Y53819000D01*
X1410100Y53410592D01*
X1323858Y52977029D01*
X803000Y52977029D01*
X803000Y53220053D01*
X849594Y53695255D01*
X977162Y54117781D01*
X1184369Y54507482D01*
X1463324Y54849513D01*
X1803399Y55130849D01*
X2191644Y55340771D01*
X2613265Y55471285D01*
X3086274Y55521000D01*
X62032053Y55521000D01*
X62507255Y55474406D01*
G37*
%TD.AperFunction*%
%TD*%
M02*
