%TF.GenerationSoftware,KiCad,Pcbnew,(5.1.10)-1*%
%TF.CreationDate,2021-10-30T19:23:44+02:00*%
%TF.ProjectId,Pi-Radio,50692d52-6164-4696-9f2e-6b696361645f,rev?*%
%TF.SameCoordinates,PX602aa70PY947d2f0*%
%TF.FileFunction,Copper,L1,Top*%
%TF.FilePolarity,Positive*%
%FSLAX46Y46*%
G04 Gerber Fmt 4.6, Leading zero omitted, Abs format (unit mm)*
G04 Created by KiCad (PCBNEW (5.1.10)-1) date 2021-10-30 19:23:44*
%MOMM*%
%LPD*%
G01*
G04 APERTURE LIST*
%TA.AperFunction,ComponentPad*%
%ADD10O,1.700000X1.700000*%
%TD*%
%TA.AperFunction,ComponentPad*%
%ADD11R,1.700000X1.700000*%
%TD*%
%TA.AperFunction,ComponentPad*%
%ADD12C,2.000000*%
%TD*%
%TA.AperFunction,ComponentPad*%
%ADD13O,1.600000X1.600000*%
%TD*%
%TA.AperFunction,ComponentPad*%
%ADD14C,1.600000*%
%TD*%
G04 APERTURE END LIST*
D10*
%TO.P,J1,7*%
%TO.N,Pin16*%
X4926000Y25092000D03*
%TO.P,J1,6*%
%TO.N,Pin18*%
X4926000Y27632000D03*
%TO.P,J1,5*%
%TO.N,Pin8*%
X4926000Y30172000D03*
%TO.P,J1,4*%
%TO.N,Pin13*%
X4926000Y32712000D03*
%TO.P,J1,3*%
%TO.N,Pin15*%
X4926000Y35252000D03*
%TO.P,J1,2*%
%TO.N,Pin10*%
X4926000Y37792000D03*
D11*
%TO.P,J1,1*%
%TO.N,Pin11*%
X4926000Y40332000D03*
%TD*%
D12*
%TO.P,SW2,1*%
%TO.N,Net-(R3-Pad1)*%
X13458000Y16456000D03*
%TO.P,SW2,2*%
%TO.N,GND*%
X13458000Y11956000D03*
%TO.P,SW2,1*%
%TO.N,Net-(R3-Pad1)*%
X6958000Y16456000D03*
%TO.P,SW2,2*%
%TO.N,GND*%
X6958000Y11956000D03*
%TD*%
D13*
%TO.P,R8,2*%
%TO.N,Pin18*%
X11869354Y28906457D03*
D14*
%TO.P,R8,1*%
%TO.N,Net-(R7-Pad1)*%
X22029354Y28906457D03*
%TD*%
D13*
%TO.P,R2,2*%
%TO.N,Pin10*%
X11869354Y44146457D03*
D14*
%TO.P,R2,1*%
%TO.N,Net-(R1-Pad1)*%
X22029354Y44146457D03*
%TD*%
D13*
%TO.P,R3,2*%
%TO.N,+3V3*%
X30919354Y8548357D03*
D14*
%TO.P,R3,1*%
%TO.N,Net-(R3-Pad1)*%
X30919354Y21248357D03*
%TD*%
D13*
%TO.P,R4,2*%
%TO.N,Pin16*%
X11869354Y25096457D03*
D14*
%TO.P,R4,1*%
%TO.N,Net-(R3-Pad1)*%
X22029354Y25096457D03*
%TD*%
D13*
%TO.P,R5,2*%
%TO.N,+3V3*%
X34898000Y48968000D03*
D14*
%TO.P,R5,1*%
%TO.N,Net-(R5-Pad1)*%
X34898000Y36268000D03*
%TD*%
D13*
%TO.P,R11,2*%
%TO.N,+3V3*%
X54460457Y8496646D03*
D14*
%TO.P,R11,1*%
%TO.N,Net-(R11-Pad1)*%
X54460457Y21196646D03*
%TD*%
D13*
%TO.P,R9,2*%
%TO.N,+3V3*%
X58270457Y8496646D03*
D14*
%TO.P,R9,1*%
%TO.N,Net-(R10-Pad1)*%
X58270457Y21196646D03*
%TD*%
D12*
%TO.P,SW4,1*%
%TO.N,Net-(R7-Pad1)*%
X24634000Y16456000D03*
%TO.P,SW4,2*%
%TO.N,GND*%
X24634000Y11956000D03*
%TO.P,SW4,1*%
%TO.N,Net-(R7-Pad1)*%
X18134000Y16456000D03*
%TO.P,SW4,2*%
%TO.N,GND*%
X18134000Y11956000D03*
%TD*%
D13*
%TO.P,R10,2*%
%TO.N,Pin8*%
X11869354Y32716457D03*
D14*
%TO.P,R10,1*%
%TO.N,Net-(R10-Pad1)*%
X22029354Y32716457D03*
%TD*%
D13*
%TO.P,R1,2*%
%TO.N,+3V3*%
X30834000Y48968000D03*
D14*
%TO.P,R1,1*%
%TO.N,Net-(R1-Pad1)*%
X30834000Y36268000D03*
%TD*%
D12*
%TO.P,SW6,1*%
%TO.N,Net-(R11-Pad1)*%
X48125454Y20765757D03*
%TO.P,SW6,2*%
%TO.N,GND*%
X48125454Y16265757D03*
%TO.P,SW6,1*%
%TO.N,Net-(R11-Pad1)*%
X41625454Y20765757D03*
%TO.P,SW6,2*%
%TO.N,GND*%
X41625454Y16265757D03*
%TD*%
D13*
%TO.P,R12,2*%
%TO.N,Pin13*%
X11869354Y36526457D03*
D14*
%TO.P,R12,1*%
%TO.N,Net-(R11-Pad1)*%
X22029354Y36526457D03*
%TD*%
D12*
%TO.P,SW3,1*%
%TO.N,Net-(R5-Pad1)*%
X48125454Y41085757D03*
%TO.P,SW3,2*%
%TO.N,GND*%
X48125454Y36585757D03*
%TO.P,SW3,1*%
%TO.N,Net-(R5-Pad1)*%
X41625454Y41085757D03*
%TO.P,SW3,2*%
%TO.N,GND*%
X41625454Y36585757D03*
%TD*%
D13*
%TO.P,R7,2*%
%TO.N,+3V3*%
X34729354Y8548357D03*
D14*
%TO.P,R7,1*%
%TO.N,Net-(R7-Pad1)*%
X34729354Y21248357D03*
%TD*%
D10*
%TO.P,J8,2*%
%TO.N,GND*%
X4926000Y44142000D03*
D11*
%TO.P,J8,1*%
%TO.N,+3V3*%
X4926000Y46682000D03*
%TD*%
D13*
%TO.P,R6,2*%
%TO.N,Pin11*%
X11869354Y47956457D03*
D14*
%TO.P,R6,1*%
%TO.N,Net-(R5-Pad1)*%
X22029354Y47956457D03*
%TD*%
D13*
%TO.P,R13,2*%
%TO.N,+3V3*%
X56488000Y48968000D03*
D14*
%TO.P,R13,1*%
%TO.N,Net-(R13-Pad1)*%
X56488000Y36268000D03*
%TD*%
D12*
%TO.P,SW1,1*%
%TO.N,Net-(R1-Pad1)*%
X36695454Y30925757D03*
%TO.P,SW1,2*%
%TO.N,GND*%
X36695454Y26425757D03*
%TO.P,SW1,1*%
%TO.N,Net-(R1-Pad1)*%
X30195454Y30925757D03*
%TO.P,SW1,2*%
%TO.N,GND*%
X30195454Y26425757D03*
%TD*%
%TO.P,SW7,1*%
%TO.N,Net-(R13-Pad1)*%
X59555454Y30925757D03*
%TO.P,SW7,2*%
%TO.N,GND*%
X59555454Y26425757D03*
%TO.P,SW7,1*%
%TO.N,Net-(R13-Pad1)*%
X53055454Y30925757D03*
%TO.P,SW7,2*%
%TO.N,GND*%
X53055454Y26425757D03*
%TD*%
%TO.P,SW5,1*%
%TO.N,Net-(R10-Pad1)*%
X48125454Y30925757D03*
%TO.P,SW5,2*%
%TO.N,GND*%
X48125454Y26425757D03*
%TO.P,SW5,1*%
%TO.N,Net-(R10-Pad1)*%
X41625454Y30925757D03*
%TO.P,SW5,2*%
%TO.N,GND*%
X41625454Y26425757D03*
%TD*%
D13*
%TO.P,R14,2*%
%TO.N,Pin15*%
X11869354Y40336457D03*
D14*
%TO.P,R14,1*%
%TO.N,Net-(R13-Pad1)*%
X22029354Y40336457D03*
%TD*%
M02*
